<svg width="32" height="32" viewBox="0 0 32 32" fill="none" xmlns="http://www.w3.org/2000/svg">
<path fill-rule="evenodd" clip-rule="evenodd" d="M29.7742 15.2C29.6809 15.28 29.4809 15.3599 29.3609 15.2533L29.5076 14.9999C29.461 14.9428 29.4171 14.8822 29.3733 14.8218C29.1416 14.5022 28.913 14.1869 28.3076 14.3999L28.1609 14.9466L27.8942 14.8933L28.1742 14.5999C27.9041 14.6112 27.8905 14.7839 27.8768 14.9578C27.8743 14.9899 27.8717 15.0221 27.8676 15.0533C27.7609 14.9999 27.6409 14.9866 27.5476 15.0266L27.5209 15.6799C27.4565 15.6452 27.4252 15.5793 27.3963 15.5182C27.3474 15.415 27.3052 15.3261 27.1209 15.4266C27.1209 15.5671 27.2133 15.6068 27.298 15.6433C27.3981 15.6864 27.4876 15.7249 27.4009 15.9199C27.2971 15.9242 27.2199 15.9089 27.1607 15.8972C27.0376 15.8727 26.9926 15.8638 26.9476 16.0799C26.8532 16.0327 26.8319 15.9543 26.8559 15.8538C26.8604 15.8404 26.8643 15.8269 26.8676 15.8133C26.8629 15.8271 26.859 15.8406 26.8559 15.8538C26.8229 15.9517 26.7585 16.0419 26.6958 16.1298C26.5917 16.2756 26.4922 16.415 26.5476 16.5733C26.3915 16.5675 26.2705 16.6845 26.1596 16.7918C26.0147 16.932 25.887 17.0554 25.7209 16.8666C25.7476 17 25.6676 17.4133 25.5209 17.5866C25.4813 17.2567 25.3308 17.3936 25.15 17.558C24.9654 17.7259 24.7492 17.9224 24.5876 17.6799C24.6577 17.9996 24.4315 18.26 24.1942 18.5332C24.0258 18.7271 23.8517 18.9274 23.7742 19.1599C23.7742 19.1498 23.7738 19.1383 23.7733 19.1261C23.7715 19.084 23.7694 19.0344 23.786 19.0113L23.8009 18.9999C23.7947 19.002 23.7899 19.0059 23.786 19.0113C23.6297 19.1284 23.5073 19.1497 23.384 19.1712C23.3245 19.1816 23.2647 19.192 23.2009 19.2133C23.3705 19.4186 23.307 19.6597 23.2425 19.9048C23.2107 20.0257 23.1786 20.1476 23.1742 20.2666C22.8727 20.2666 22.8567 20.1132 22.8395 19.9485C22.8263 19.8219 22.8124 19.6886 22.6676 19.6133C22.7876 19.7199 22.7309 19.8899 22.6792 20.0449C22.6276 20.1999 22.5809 20.3399 22.7209 20.3866C22.6228 20.3975 22.5594 20.4094 22.5122 20.4182C22.3864 20.4418 22.3767 20.4436 22.1342 20.3466C22.3034 20.5599 22.2454 20.6109 22.1683 20.6787C22.1056 20.7337 22.0303 20.7999 22.0542 20.9733C21.8571 21.0255 21.7558 20.9843 21.6867 20.9563C21.5969 20.9199 21.5615 20.9055 21.4409 21.1466C21.1876 21.1866 21.3476 20.7866 21.3476 20.7866C21.1226 21.0026 21.2499 21.1153 21.3811 21.2314C21.4442 21.2873 21.5082 21.3439 21.5342 21.4132C21.3386 21.7024 21.2406 21.6172 21.1261 21.5176C21.0611 21.4611 20.9908 21.3999 20.8942 21.3999C20.8138 21.5423 20.7821 21.7105 20.7527 21.8673C20.7187 22.0482 20.6876 22.2137 20.5876 22.3066C20.573 22.2993 20.5585 22.296 20.5448 22.2929C20.5081 22.2846 20.4773 22.2776 20.4676 22.2C20.4487 22.4201 20.2815 22.6016 20.1073 22.7908C19.9122 23.0026 19.7083 23.2241 19.6942 23.5199C19.6735 23.5199 19.6528 23.5199 19.634 23.5162C19.6187 23.5082 19.6033 23.5005 19.5876 23.4932C19.6004 23.5061 19.6164 23.5128 19.634 23.5162C19.7869 23.5971 19.9148 23.715 19.9876 23.7999C19.9344 23.8531 19.9057 23.9256 19.88 23.9906C19.8348 24.105 19.7987 24.1964 19.6542 24.1199C19.7192 24.0642 19.7066 24.0085 19.693 23.9483C19.687 23.922 19.6809 23.8949 19.6809 23.8666L19.6009 24.0933C19.3876 24.0344 19.4462 23.9512 19.5125 23.8571C19.5663 23.7806 19.6253 23.697 19.5476 23.6133C19.4812 23.7293 19.4214 23.8622 19.3615 23.9949C19.2289 24.2891 19.0964 24.583 18.8942 24.6933C18.7497 24.6013 18.8577 24.451 18.9422 24.3334C19.0292 24.2124 19.0913 24.1259 18.8276 24.1733L19.2676 23.9199C18.9548 23.8678 19.005 23.822 19.0619 23.7702C19.1215 23.716 19.1883 23.6551 18.8542 23.5733C18.5876 23.7666 18.4909 23.9266 18.3942 24.0866C18.2976 24.2466 18.2009 24.4066 17.9342 24.5999C17.9477 24.7212 18.0054 24.7608 18.0644 24.8012C18.1222 24.8408 18.1811 24.8812 18.2009 24.9999C17.9867 25.4629 17.6937 25.4209 17.4388 25.3844C17.2019 25.3504 16.998 25.3212 16.9209 25.7066C16.9294 25.766 16.9475 25.8291 16.9659 25.8932C17.0342 26.131 17.1067 26.3834 16.7076 26.5199L16.5476 26.1333C16.3359 26.3138 16.3539 26.4653 16.3694 26.5959C16.3871 26.7449 16.4016 26.8667 16.0676 26.9733C16.0599 26.8658 16.1406 26.7583 16.1927 26.689C16.231 26.638 16.2538 26.6076 16.2142 26.6133C15.9411 26.6133 15.9615 26.7212 15.9857 26.8486C16.0039 26.9451 16.0243 27.0528 15.9209 27.1333L15.6676 26.8933C15.57 26.9846 15.4709 27.0841 15.3685 27.1868C15.0376 27.5191 14.6724 27.8857 14.2142 28.1199C14.2142 28.0998 14.2161 28.0788 14.218 28.0575C14.2263 27.9659 14.2349 27.8699 14.0942 27.8266C13.4009 28.2932 12.4009 28.2666 11.6676 28.0666C11.5742 28.1733 11.4809 28.2666 11.3742 28.3599C11.3076 28.3599 11.2542 28.2266 11.3342 28.1733C11.1695 28.1059 11.1814 28.1731 11.1975 28.2639C11.2101 28.3347 11.2252 28.4198 11.1609 28.4666C10.9876 28.4666 10.9476 28.28 11.0542 28.2C10.5209 28.44 9.40089 28.4666 8.98756 27.9466L9.1209 27.9066C8.96105 27.7837 8.79553 27.8506 8.63872 27.9141C8.45546 27.9882 8.28408 28.0576 8.14756 27.8133H8.2409C8.14286 27.7463 8.04142 27.6789 7.93863 27.6106C7.20271 27.1217 6.39788 26.587 6.28089 25.8266C6.07302 25.9022 5.97228 25.7129 5.86902 25.5189C5.7537 25.3022 5.63523 25.0796 5.3609 25.2133C5.34966 24.9434 5.3716 24.8039 5.39175 24.6759C5.41938 24.5003 5.44363 24.3461 5.37423 23.9066C5.3485 23.8166 5.24207 23.7793 5.12383 23.7378C4.997 23.6934 4.85657 23.6441 4.78757 23.5199L5.08089 23.4266L4.6809 23.1733L5.0009 22.9066C4.98089 22.8733 4.9609 22.8366 4.9409 22.7999C4.9209 22.7633 4.9009 22.7266 4.8809 22.6933C4.8809 22.7866 4.78757 22.9199 4.69423 22.9199C4.46757 22.5599 4.77423 21.9733 4.93423 21.9599C4.82757 21.6799 4.73423 21.3999 4.66756 21.0933C4.75443 21.1126 4.79938 21.1948 4.84792 21.2842C4.86002 21.3092 4.87659 21.3384 4.89843 21.3725C4.88038 21.344 4.86427 21.3143 4.84856 21.2854L4.84792 21.2842C4.78006 21.1437 4.85323 21.1339 4.92724 21.1241C5.01198 21.1128 5.09782 21.1014 4.97423 20.8933C4.91053 20.9357 4.82992 20.8852 4.77279 20.8494C4.75828 20.8403 4.74503 20.832 4.73423 20.8266C4.93423 20.6266 5.0009 20.1733 5.01423 19.7999L5.2009 19.9199C5.25173 19.7602 5.29762 19.5915 5.34475 19.4183C5.47072 18.9553 5.6056 18.4596 5.86756 18.0133C5.65423 18.1866 5.3609 17.9599 5.4409 17.7466L5.76089 17.8399C5.71955 17.7395 5.67036 17.7542 5.62375 17.7682C5.56514 17.7857 5.51061 17.802 5.4809 17.5866C5.66756 17.3599 5.89423 17.6399 5.89423 17.8133L5.90744 17.7597C5.93002 17.6675 5.95414 17.5691 5.98756 17.4799C6.04205 17.5033 6.06473 17.5448 6.09009 17.5913C6.10817 17.6244 6.12761 17.66 6.1609 17.6933C6.11904 17.5856 6.23004 17.5263 6.35199 17.4611C6.50195 17.3809 6.66846 17.2918 6.58757 17.0933L6.66756 17.1466C6.80241 16.9905 6.9146 16.857 7.01618 16.7361C7.10527 16.6301 7.18662 16.5333 7.26757 16.4399C7.31427 16.3832 7.35931 16.3273 7.40435 16.2715C7.5393 16.104 7.67429 15.9365 7.85423 15.7466C7.74289 15.6193 7.7786 15.5158 7.82273 15.3879C7.85258 15.3014 7.88628 15.2037 7.8809 15.0799C8.01103 14.9905 8.15232 14.906 8.29796 14.8188C8.62985 14.6204 8.98435 14.4083 9.28089 14.0933C9.39998 13.8551 9.34889 13.8107 9.29088 13.7603C9.25146 13.7261 9.20884 13.6891 9.21423 13.5866C9.3074 13.6611 9.44686 13.6026 9.55983 13.5551C9.68937 13.5007 9.78409 13.461 9.73423 13.6533L9.74048 13.6464C10.2287 13.1054 10.363 12.9565 10.8676 12.1466C10.8306 12.1466 10.7962 12.1491 10.765 12.1514C10.6723 12.1583 10.6075 12.1631 10.5876 12.0933C10.6809 11.9466 10.9342 11.8933 11.0009 11.9999V12.0533C11.2221 11.5589 11.7542 11.2676 12.2661 10.9875C12.8034 10.6934 13.3183 10.4116 13.4276 9.91992V9.97327L13.8276 9.17326C13.9782 9.04885 13.9744 9.12059 13.9695 9.21478C13.9644 9.31238 13.958 9.4341 14.1209 9.3866C14.3185 8.85977 14.6244 8.61001 14.9176 8.37069C15.1587 8.17391 15.3911 7.98418 15.5476 7.65328C16.0656 7.71895 16.4519 7.25758 16.844 6.78918C17.1685 6.40162 17.497 6.00925 17.9076 5.90662L17.7476 5.81327C17.7646 5.6428 17.8634 5.64669 17.9673 5.65077C18.0259 5.65308 18.0861 5.65545 18.1342 5.62659C18.0895 5.59305 18.0354 5.59466 17.9886 5.59606C17.9239 5.59799 17.8732 5.59951 17.8809 5.50659C18.1476 5.15993 18.4542 4.83995 18.7876 4.53328C19.1209 4.21328 19.3609 4.06662 19.7076 3.90662C20.3476 3.61328 21.0542 3.55994 21.6809 3.59994C21.8671 3.61687 21.9483 3.44987 22.0264 3.28902C22.1329 3.06984 22.2338 2.86208 22.5876 3.14661C22.5371 3.20543 22.492 3.26955 22.4455 3.33562C22.4182 3.37438 22.3905 3.41381 22.3609 3.45325C22.8676 3.30658 23.4009 3.4666 23.8409 3.71993C24.0791 3.85305 24.2952 4.00827 24.5125 4.1643C24.7087 4.30519 24.9058 4.44675 25.1209 4.57328C25.0881 4.57328 25.057 4.58149 25.0276 4.58927C24.9731 4.60365 24.9242 4.61655 24.8809 4.57328C24.8542 4.86662 25.3342 5.17326 25.5076 5.09326C25.5452 5.1761 25.4978 5.20364 25.4422 5.23595C25.3994 5.26085 25.3516 5.28857 25.3342 5.3466C25.3218 5.45191 25.4303 5.53132 25.5327 5.60622C25.6506 5.69253 25.7604 5.77285 25.6676 5.87992C25.6528 5.89468 25.6258 5.88493 25.6001 5.86876C25.5846 5.85028 25.5673 5.83567 25.5476 5.82658C25.5595 5.83849 25.5794 5.85571 25.6001 5.86876C25.6396 5.91573 25.6676 5.98771 25.6949 6.05766C25.7512 6.20222 25.8042 6.3381 25.9476 6.2266C25.9361 6.39288 25.9838 6.54437 26.0292 6.68848C26.0893 6.8795 26.1454 7.05756 26.0542 7.23995C26.207 7.3418 26.1744 7.48925 26.1436 7.62859C26.1098 7.7811 26.0782 7.92391 26.2942 7.98661C25.8542 7.90661 25.8142 8.54661 25.9076 8.85327C25.8645 8.7979 25.8157 8.82486 25.7626 8.85423C25.7019 8.88785 25.6354 8.92462 25.5651 8.84484L25.5742 8.82658L25.5476 8.85327H25.5557C25.4657 9.08877 25.4184 9.32143 25.6409 9.39994C25.3179 9.46828 25.2437 9.71028 25.1772 9.92771C25.1008 10.1769 25.0344 10.3939 24.6142 10.2799C24.0542 11.1866 23.4809 11.9866 22.8942 12.7199C22.7501 12.5496 22.9181 12.3632 23.0821 12.1813C23.252 11.9929 23.4175 11.8093 23.2276 11.6533C23.0596 11.912 22.9381 12.1567 22.8229 12.3887C22.5996 12.8381 22.4004 13.2393 21.9342 13.5999C21.7922 13.6851 21.8317 13.535 21.8666 13.4027C21.8808 13.3486 21.8942 13.2975 21.8942 13.2666C21.6631 13.6226 21.3764 13.9055 21.0972 14.181C20.7804 14.4936 20.4731 14.7968 20.2676 15.1866C20.2409 15.1599 20.2676 15.0666 20.2942 14.9866C20.2696 15.0183 20.2367 15.048 20.2044 15.0772C20.1144 15.1586 20.0297 15.2351 20.1476 15.3333L20.2142 15.1866C20.4634 15.2124 20.3914 15.5704 20.3337 15.8574C20.3068 15.9915 20.2829 16.11 20.2964 16.172C20.1916 15.926 20.0477 16.0025 19.901 16.0806C19.7268 16.1733 19.5486 16.2681 19.4276 15.8266C19.3876 15.9332 19.3609 16.0799 19.4676 16.1733C19.3342 16.2533 19.2409 16.2266 19.2409 16.0133C19.0882 16.2423 19.0752 16.365 19.0642 16.4685C19.0521 16.5819 19.0425 16.672 18.8542 16.8533C18.8157 16.8147 18.8128 16.7627 18.8095 16.7025C18.8071 16.6587 18.8044 16.6105 18.7876 16.5599C18.7476 16.8799 18.6942 17.1999 18.3342 17.4399C18.326 17.4194 18.3114 17.4039 18.298 17.3896C18.2719 17.3619 18.25 17.3385 18.2857 17.2913L18.3076 17.2666C18.2987 17.2755 18.2915 17.2837 18.2857 17.2913C18.1001 17.5046 17.9818 17.741 17.8644 17.9756C17.6829 18.3383 17.5035 18.6968 17.0809 18.9599C17.0094 18.7098 16.9303 18.7546 16.8271 18.8131C16.7377 18.8638 16.6303 18.9246 16.4942 18.8133L16.2676 19.2H16.5209C16.4094 19.3114 16.3353 19.4508 16.2633 19.586C16.1631 19.7743 16.0672 19.9545 15.8809 20.0399L15.9742 19.7333L15.5209 20.2799L15.9076 20.0933C15.8457 20.285 15.9187 20.3649 15.9722 20.4233C16.034 20.4908 16.0696 20.5298 15.8409 20.6799C15.8543 20.6487 15.8289 20.6682 15.7778 20.7074C15.6759 20.7856 15.4717 20.9421 15.2676 20.9333L15.2577 20.9733C15.2084 21.1745 15.1576 21.3816 14.9076 21.5066C14.8338 21.4918 14.7641 21.3914 14.7007 21.3C14.6496 21.2263 14.6026 21.1585 14.5609 21.1466C14.6067 21.3166 14.4696 21.4866 14.3275 21.663C14.1898 21.8339 14.0473 22.0107 14.0619 22.1992C14.036 22.0993 13.9277 21.985 13.8809 21.9733L13.9476 22.2666C13.7609 22.3333 13.7209 22.32 13.6276 22.2C13.4254 22.3695 13.5295 22.4242 13.6199 22.4718C13.7144 22.5214 13.7939 22.5633 13.4942 22.7199C13.5053 22.6978 13.5026 22.6849 13.4995 22.6697C13.495 22.6483 13.4897 22.6224 13.5209 22.5599C13.3169 22.7129 13.1695 22.8834 13.0347 23.0394C12.8169 23.2914 12.6318 23.5054 12.2942 23.5466C12.1708 23.3958 12.2589 23.3366 12.3374 23.2839C12.4116 23.2341 12.4771 23.19 12.3476 23.0799C11.9342 23.3999 11.1342 23.7999 10.5476 23.3866L10.6409 23.4799C10.4942 23.7066 10.3876 23.5732 10.3076 23.4132C10.2922 23.3799 10.2782 23.345 10.2644 23.3102C10.2101 23.1745 10.1567 23.0408 10.0188 23.0059C10.1096 23.0032 10.2615 22.8696 10.2142 22.8933C10.1453 22.7784 10.0479 22.6778 9.94004 22.5664C9.73478 22.3544 9.49154 22.1031 9.33423 21.6399L9.4809 21.7066C9.50898 21.613 9.52721 21.5029 9.54595 21.3897C9.58061 21.1805 9.61706 20.9604 9.7209 20.8133C9.68101 20.7684 9.67095 20.7198 9.66215 20.6772C9.6474 20.606 9.63614 20.5516 9.49423 20.5599C9.7609 20.4266 9.93423 20.3066 10.0676 20.1733C10.1876 20.0533 10.3742 19.7866 10.4942 19.5866L10.5145 19.5532C10.7739 19.1245 11.0287 18.7036 11.5876 18.5866C11.5076 18.6666 11.4809 18.8666 11.5476 18.7999L12.0409 18.1333C11.9075 18.0582 11.8732 18.0666 11.8042 18.0834C11.7629 18.0935 11.7092 18.1066 11.6142 18.1066C11.5876 17.9333 11.6809 17.6933 11.8276 17.5599C11.6964 17.8938 12.013 17.8438 12.2245 17.8104C12.2495 17.8065 12.2731 17.8027 12.2942 17.7999C12.2594 17.786 12.2391 17.7538 12.2181 17.7205C12.199 17.6902 12.1794 17.659 12.1476 17.6399C12.4316 17.6399 12.384 17.5563 12.3201 17.4441C12.249 17.3193 12.1579 17.1593 12.4809 17.0399L12.5476 17.1466C12.5814 17.0832 12.6085 17.0143 12.6358 16.9453C12.6944 16.7966 12.7535 16.6467 12.8809 16.5466C13.0178 16.6114 12.9834 16.6802 12.946 16.7549C12.9141 16.8185 12.8801 16.8864 12.9476 16.9599C13.0372 16.865 13.0726 16.716 13.1074 16.5696C13.1606 16.3457 13.2124 16.128 13.4542 16.1199C13.4289 16.1896 13.3855 16.2593 13.3411 16.3305C13.2922 16.409 13.2422 16.4893 13.2142 16.5733C13.5621 16.5733 13.6273 16.5183 13.7292 16.4325C13.7601 16.4065 13.7944 16.3776 13.8409 16.3466H13.8142L14.3076 16.0666L14.1476 16.1066C14.0364 15.6695 14.2052 15.5041 14.3909 15.3221C14.5394 15.1766 14.6987 15.0206 14.7342 14.7066C14.685 15.1331 14.7367 15.1257 14.8273 15.1127C14.8839 15.1046 14.9557 15.0942 15.0276 15.1866L15.035 15.1847L15.0778 15.2532C15.0778 15.2532 15.0591 15.2159 15.0388 15.1837C15.0671 15.1764 15.0972 15.1676 15.1277 15.1587C15.2685 15.1176 15.4169 15.0743 15.4276 15.1599C15.4336 14.9967 15.5274 14.9459 15.6293 14.8906C15.7522 14.8239 15.8869 14.7508 15.8942 14.4666C15.9239 14.4864 15.961 14.4657 16.0021 14.4429C16.0715 14.4042 16.1521 14.3592 16.2276 14.4932C16.3401 14.3165 16.254 14.3286 16.1532 14.3427C16.0868 14.3521 16.014 14.3623 15.9876 14.3199C16.0491 14.0368 16.3038 13.8873 16.5812 13.7243C16.9048 13.5343 17.2594 13.3261 17.3742 12.8666C17.5414 12.5657 17.5878 12.3352 17.633 12.1112C17.6778 11.8886 17.7214 11.6724 17.8809 11.3999C18.1342 11.3599 18.0142 11.7733 18.0142 11.7733C18.3476 11.6399 18.5076 11.4399 18.6542 11.1466C18.6666 11.2457 18.748 11.2527 18.877 11.2639L18.9076 11.2666C18.9756 11.1816 18.9617 11.1014 18.9488 11.0271C18.9314 10.9265 18.9159 10.8366 19.1076 10.7599L19.1204 10.798C19.1603 10.9149 19.2129 11.0695 19.2009 11.2133C19.2761 11.0765 19.3338 10.9186 19.392 10.7595C19.4472 10.6085 19.5028 10.4563 19.5742 10.3199C19.6978 10.3675 19.6723 10.5031 19.6474 10.635C19.6375 10.6881 19.6276 10.7407 19.6276 10.7866C19.6522 10.7478 19.6794 10.7066 19.7078 10.6634C19.8945 10.3802 20.1334 10.0178 20.0409 9.78658L19.8685 9.85756C19.8495 9.85447 19.8307 9.86068 19.8142 9.87992L19.8685 9.85756C19.9418 9.86946 20.0193 10.0192 19.9876 10.0933C19.9342 10.4533 19.6142 10.3333 19.5342 10.2666L19.6409 10.0666C19.2842 9.91375 19.1547 10.2315 19.0216 10.5581C18.9457 10.7443 18.8686 10.9334 18.7476 11.0399L18.5876 10.6133L18.5076 11.1733C18.3609 11.1733 18.1476 11.0399 18.2676 10.8533C18.0794 10.8936 18.0572 10.9712 18.0371 11.0417C18.0173 11.111 17.9995 11.1734 17.8276 11.1866C17.7902 11.1866 17.7761 11.1633 17.7853 11.1385L17.6542 11.4399C17.6493 11.4002 17.6146 11.366 17.5821 11.3339C17.5275 11.2799 17.4789 11.2318 17.5876 11.1733C17.2972 11.2908 17.1968 11.5159 17.1173 11.6942C17.0434 11.8598 16.9876 11.9851 16.8142 11.9466V11.8933C16.588 12.2326 16.6504 12.2871 16.7371 12.3627C16.8139 12.4297 16.9098 12.5134 16.8409 12.8266L16.0409 12.5733L16.2009 12.8399C16.2009 12.8399 16.0142 12.9866 15.9476 12.8799C15.9117 13.0736 15.953 13.0743 16.0009 13.0752C16.0421 13.0759 16.0881 13.0767 16.0942 13.2C15.8899 13.2291 15.7392 13.3939 15.6008 13.5452C15.4232 13.7394 15.2657 13.9115 15.0409 13.7466C15.0724 13.8724 15.1602 13.8498 15.2261 13.8329C15.2997 13.8139 15.3458 13.802 15.2542 14.0133C15.0052 13.8521 14.9493 13.9887 14.881 14.1556C14.8249 14.2925 14.7605 14.4499 14.5742 14.4799C14.523 14.3662 14.5543 14.2767 14.575 14.2177C14.6027 14.1383 14.6112 14.114 14.3742 14.1599C14.4808 14.4469 14.2495 14.5372 14.0215 14.6263C13.8788 14.682 13.7374 14.7373 13.6809 14.8399C13.8424 15.0099 13.6572 15.1907 13.4326 15.41C13.3048 15.5347 13.1643 15.6719 13.0676 15.8266C13.0276 15.7626 12.7476 15.9626 12.4407 16.1818C12.2361 16.3279 12.0196 16.4826 11.8542 16.5733L11.8142 16.5199C11.9647 16.7607 11.783 16.9864 11.6043 17.2084C11.5455 17.2814 11.4871 17.354 11.4409 17.4266C11.2942 17.2666 11.2809 17.1599 11.3342 16.9599L11.1076 17.1866C11.1342 17.3199 11.1076 17.4399 10.9876 17.6133L10.8542 17.3599C10.7502 17.4735 10.6713 17.6121 10.5896 17.7557C10.441 18.017 10.2831 18.2945 9.94756 18.4666C9.99647 18.5277 10.0915 18.5689 10.1914 18.6123C10.4185 18.7108 10.6712 18.8204 10.4676 19.2C10.3609 19.12 10.1742 18.9599 10.2409 18.8133C10.2346 18.8259 10.2291 18.8444 10.2227 18.8657C10.202 18.9347 10.1726 19.0329 10.0809 19.0533V18.7199C9.94193 18.7784 9.96746 18.841 9.99462 18.9075C10.017 18.9622 10.0404 19.0197 9.97423 19.0799C9.90406 19.0027 9.85236 19.0068 9.80551 19.0105C9.76334 19.0138 9.72511 19.0168 9.6809 18.9599C9.69104 18.9396 9.72048 18.9251 9.75306 18.9091C9.80613 18.8829 9.86756 18.8527 9.86756 18.7866C9.6809 18.9199 9.4009 19.0399 9.2409 18.9866C9.33423 19.0533 9.42756 19.1733 9.32089 19.3199C9.1327 19.5382 9.06351 19.5016 8.98854 19.4618C8.93073 19.4311 8.86948 19.3987 8.74756 19.4799C8.75731 19.5482 8.72428 19.6218 8.69149 19.6949C8.63459 19.8216 8.57839 19.9469 8.74756 20.0399C8.69767 20.1397 8.61046 20.1499 8.52503 20.1599C8.49629 20.1632 8.46775 20.1665 8.4409 20.1733C8.43442 20.2229 8.42306 20.2903 8.41009 20.3673C8.3429 20.7661 8.23251 21.4213 8.53423 21.1866L8.56089 21.1199V21.1599C8.61559 21.41 8.63823 21.6508 8.66103 21.8933C8.67712 22.0646 8.6933 22.2366 8.7209 22.4132C8.78756 22.8399 8.94757 23.2799 9.26757 23.5599L9.18756 23.6266C9.60089 23.9466 10.1209 24.3066 10.5209 24.2266C10.6409 24.2799 10.7876 24.5066 10.6942 24.5999C10.8265 24.6085 10.9192 24.6047 11.0024 24.6013C11.1793 24.5942 11.3135 24.5887 11.6942 24.7066C11.4837 24.7978 11.5354 24.8373 11.55 24.8485C11.552 24.85 11.5533 24.851 11.5531 24.8515C11.5528 24.8525 11.5474 24.8518 11.5319 24.8499C11.5011 24.8461 11.4305 24.8373 11.2809 24.8266C11.3602 24.8433 11.4321 24.861 11.4987 24.8774C11.8577 24.9658 12.0669 25.0173 12.4942 24.6799C12.3609 24.9866 13.0009 24.8666 13.2142 24.6533H12.7876C13.0542 24.5199 13.2676 24.4133 13.4942 24.2933C13.5076 24.3533 13.5176 24.4133 13.5276 24.4733C13.5376 24.5333 13.5476 24.5933 13.5609 24.6533C13.8676 24.5866 14.1209 24.3733 14.2809 24.1733C14.3803 24.0407 14.4523 23.8806 14.5196 23.7311C14.5335 23.7001 14.5472 23.6696 14.5609 23.6399C14.7209 23.2799 14.8942 22.9599 15.3742 22.9733C15.3742 22.8104 15.266 22.8608 15.1507 22.9145C15.0299 22.9707 14.9014 23.0306 14.8809 22.8533C15.0784 22.697 15.3926 22.6523 15.6262 22.6191C15.7712 22.5985 15.8852 22.5823 15.9209 22.5466C16.1845 22.4114 16.1877 22.2317 16.191 22.0457C16.1943 21.8647 16.1976 21.6777 16.4409 21.5199C16.3076 21.4933 16.0276 21.3199 16.2542 20.9333C16.5742 20.6799 16.9609 20.9333 16.8409 21.1866C16.7742 21.2666 16.7209 21.2666 16.6942 21.24C16.6276 21.36 16.5476 21.5199 16.7476 21.4932L16.6942 21.3733C16.7795 21.3532 16.8875 21.284 16.9911 21.2176C17.1628 21.1076 17.3226 21.0052 17.3476 21.1466C17.476 20.8641 17.3199 20.9155 17.1177 21.015C17.3699 20.8874 17.5117 20.7346 17.6588 20.576C17.7874 20.4375 17.9201 20.2945 18.1342 20.1599C18.0276 20.1732 17.8676 20.1333 17.9342 20.0666C18.3042 19.8099 18.2808 19.7157 18.2539 19.6071C18.2333 19.524 18.2105 19.4325 18.3609 19.2533C18.5109 19.2186 18.5736 19.2864 18.6179 19.3344C18.6761 19.3974 18.703 19.4264 18.8542 19.1466C19.1517 19.0103 19.1266 19.2772 19.1108 19.444L19.1076 19.4799C19.237 19.1287 19.5459 19.0081 19.7987 18.9094C19.9105 18.8658 20.0114 18.8264 20.0809 18.7733L19.9721 19.0029C19.9683 19.0107 19.9646 19.0186 19.9609 19.0266L19.9721 19.0029C20.0378 18.8697 20.126 18.7822 20.2142 18.7066L19.9476 18.6399C19.9693 18.6269 19.9899 18.6139 20.0095 18.6015C20.1106 18.5378 20.1851 18.4908 20.2409 18.5466C20.2409 18.4573 20.1779 18.4078 20.1095 18.3539C20.0144 18.2791 19.9088 18.196 19.9476 17.9866C20.0379 17.9653 20.1114 17.8784 20.1839 17.7924C20.2933 17.6629 20.4006 17.5357 20.5609 17.6399C20.2946 17.8311 20.371 17.8719 20.4641 17.9218C20.5347 17.9596 20.615 18.0025 20.563 18.1201C20.5327 18.1551 20.5096 18.1908 20.4942 18.2266C20.5275 18.1854 20.5496 18.1503 20.563 18.1201C20.6116 18.0637 20.6786 18.0093 20.7609 17.9599C20.8009 17.9599 20.7876 18.0266 20.7742 18.0666C21.1043 17.9472 21.0719 17.8278 21.0315 17.6792C20.9953 17.5457 20.9526 17.3886 21.1609 17.1866C21.2276 17.3733 21.5076 17.3199 21.5476 17.2266C21.3609 17.3999 21.2542 17.1066 21.3209 16.8399C21.5617 16.7237 21.5957 16.6023 21.6257 16.495C21.6438 16.43 21.6605 16.3702 21.7209 16.3199L21.5076 16.4399C21.4574 16.2995 21.5356 16.1968 21.6455 16.0523C21.6817 16.0048 21.7213 15.9527 21.7609 15.8933C21.7883 15.9116 21.7977 15.9348 21.797 15.9592C21.7826 15.9841 21.7721 16.0123 21.7663 16.0443C21.761 16.0533 21.7557 16.0618 21.7508 16.0695C21.7295 16.1035 21.7173 16.123 21.7609 16.1066C21.7609 16.0843 21.7627 16.0636 21.7663 16.0443C21.7815 16.0182 21.7962 15.9879 21.797 15.9592C21.8614 15.8469 22.004 15.7983 22.1557 15.7466C22.3516 15.6797 22.5629 15.6077 22.6409 15.3866C22.7585 15.3589 22.8223 15.421 22.8807 15.4778C22.9347 15.5305 22.9842 15.5787 23.0676 15.5466C23.1624 15.2893 23.3019 15.2417 23.4459 15.1927C23.5855 15.1451 23.7293 15.0961 23.8409 14.8533C23.8076 14.845 23.7787 14.8387 23.7537 14.8333C23.6893 14.8194 23.6513 14.8112 23.6332 14.7877C23.6073 14.7542 23.6219 14.6894 23.6574 14.5319C23.6645 14.5006 23.6724 14.4656 23.6809 14.4266L23.2009 15.1333L23.3342 14.5066C23.2441 14.5902 23.1789 14.7049 23.119 14.8102C23.0549 14.9231 22.9968 15.0252 22.9209 15.0666C22.9262 15.0238 22.9314 14.988 22.9357 14.9578C22.9485 14.8676 22.9541 14.8283 22.9371 14.8077C22.924 14.7918 22.8975 14.7869 22.8506 14.7783C22.8265 14.7738 22.7969 14.7684 22.7609 14.7599C23.0206 14.7599 23.0993 14.5862 23.1817 14.4042C23.2558 14.2405 23.3329 14.0701 23.5476 14.0133L23.9609 14.4399C24.2786 14.3156 24.4139 14.0589 24.5612 13.7792C24.6984 13.5189 24.846 13.2387 25.1609 13.0266L24.9076 13.1333C24.8532 12.9934 24.9708 12.8943 25.0996 12.7859C25.1918 12.7082 25.2897 12.6257 25.3342 12.5199C25.4226 12.6377 25.5326 12.6327 25.6536 12.6271C25.697 12.6251 25.7418 12.6231 25.7876 12.6266C25.7469 12.591 25.7972 12.5246 25.8625 12.4382C25.9687 12.2978 26.1146 12.1048 25.9742 11.9066L26.4009 11.8399C26.7343 11.5732 26.7383 11.2983 26.7425 11.0197C26.7458 10.7969 26.7491 10.5717 26.9209 10.3466C26.9523 10.4564 27.0164 10.4944 27.0748 10.529C27.1653 10.5827 27.242 10.6281 27.1609 10.9199C27.1797 10.8917 27.1988 10.864 27.2173 10.8371C27.3303 10.6732 27.424 10.5372 27.3209 10.4799C27.4088 10.4485 27.4287 10.2929 27.4502 10.1245C27.4744 9.93531 27.5006 9.73006 27.6276 9.66659C27.6133 9.63444 27.5904 9.60326 27.5663 9.57047C27.5005 9.48084 27.4259 9.37921 27.4942 9.21326C27.5196 9.20479 27.5504 9.21785 27.5695 9.2285C27.5747 9.23404 27.5807 9.23798 27.5876 9.23995C27.5876 9.23995 27.5805 9.23462 27.5695 9.2285C27.5499 9.20765 27.5407 9.16409 27.5308 9.117C27.5076 9.0072 27.4804 8.87821 27.3076 8.97327C27.6942 8.7466 27.7876 8.25325 27.8009 7.78658C27.8009 7.70586 27.7994 7.62665 27.7978 7.54907V7.54764C27.7905 7.16502 27.7839 6.82097 27.9609 6.53328C27.8276 6.03995 27.6009 5.47992 27.4009 5.07992C27.4187 5.07992 27.4336 5.07707 27.4462 5.07466C27.4808 5.06807 27.4978 5.06484 27.5076 5.13326C27.4609 4.80689 27.2979 4.77998 27.1264 4.75168C26.9546 4.72333 26.7743 4.69358 26.6942 4.35994C26.7433 4.07362 26.8627 4.21895 26.9445 4.3186C26.9961 4.38136 27.0327 4.426 27.0276 4.33325C27.3064 4.08455 27.0996 3.904 26.8551 3.69049C26.667 3.52626 26.4565 3.34252 26.4276 3.09326L26.5342 3.15991C26.4688 2.89022 26.173 2.7708 25.8464 2.63894C25.6401 2.55567 25.4215 2.46743 25.2409 2.33325C25.2409 2.33325 25.2942 2.30659 25.2942 2.25326C24.9661 2.27786 24.5775 2.20155 24.1965 2.12676C23.9583 2.07998 23.723 2.03379 23.5076 2.01327C23.5941 1.94117 23.6546 1.91412 23.6954 1.8959C23.7677 1.86356 23.778 1.859 23.7609 1.67993C23.6538 1.66302 23.6277 1.73429 23.597 1.81816C23.5551 1.93268 23.5046 2.0707 23.2276 2.03992C23.1888 1.9839 23.1291 1.92649 23.0657 1.86543C22.9328 1.73757 22.7833 1.59373 22.7742 1.41325C22.9342 1.42658 23.0942 1.45325 23.2542 1.49325C23.1402 1.22133 22.8992 1.26102 22.6793 1.29724C22.565 1.31608 22.4563 1.33397 22.3742 1.3066L22.4142 1.15991C21.9991 1.16695 21.8067 1.27796 21.604 1.39496C21.4226 1.49968 21.2328 1.6092 20.8676 1.65328L20.9609 1.75993C20.7894 1.99322 20.6884 1.94756 20.5855 1.90096C20.4883 1.85701 20.3894 1.81224 20.2276 1.99992L19.9876 1.66659C19.8124 1.78641 19.5035 2.08465 19.2105 2.36749C19.0797 2.4938 18.952 2.61703 18.8409 2.71993C18.9022 2.35186 19.3023 1.97251 19.6047 1.68575L19.6809 1.61328C19.4009 1.70661 18.7742 2.06661 18.7476 2.31995C18.7654 2.29912 18.7833 2.27498 18.8017 2.25003C18.8659 2.16318 18.9373 2.06661 19.0409 2.06661C18.8676 2.50661 18.6009 2.85328 18.1876 3.19995C17.9282 2.8613 17.626 3.12617 17.2977 3.41382C17.0186 3.65846 16.7206 3.91959 16.4142 3.83993C16.1619 4.3288 15.7417 4.64515 15.2943 4.98199C14.9851 5.21474 14.663 5.45728 14.3742 5.77327C14.7142 5.85327 14.6642 5.90994 14.5892 5.99494C14.5142 6.07993 14.4142 6.19326 14.6542 6.3866C14.5209 6.57326 14.4542 6.62659 14.4009 6.62659L13.6276 6.89327C13.4837 6.89327 13.5247 6.8116 13.5675 6.72637C13.6001 6.66148 13.6337 6.59451 13.5876 6.55994C13.3511 6.75827 13.2717 6.72093 13.1797 6.67763C13.1109 6.64525 13.0349 6.60953 12.8809 6.66659C13.0809 6.77325 12.9742 7.01326 12.6942 7.17326L13.2009 7.06661C13.0535 7.44855 12.8488 7.47017 12.6428 7.49195C12.4388 7.5135 12.2334 7.53519 12.0809 7.90662L12.1076 7.59994C12.0519 7.70333 11.9405 7.83401 11.8136 7.98276C11.5152 8.33276 11.1314 8.78285 11.1876 9.21326C11.0942 9.21326 10.9076 9.15992 11.0009 8.99992C10.7012 9.25931 10.4612 9.63334 10.2272 9.99811C9.91997 10.4771 9.62296 10.9401 9.21423 11.1066L9.1609 10.9466C9.12899 10.9968 9.1189 11.0609 9.10878 11.1253C9.0893 11.2491 9.06972 11.3736 8.89423 11.3999C8.88275 11.3846 8.87346 11.3649 8.86449 11.3459C8.84218 11.2986 8.82177 11.2552 8.77423 11.2933C8.74756 11.3999 8.64089 11.7999 8.41423 11.8933V11.6399C7.95757 11.9417 7.81013 12.3431 7.66078 12.7498C7.56593 13.008 7.47031 13.2684 7.29423 13.5066C6.98756 13.1999 6.38756 13.5866 6.09423 13.7866L6.05423 13.7333C5.66756 14.0799 5.41423 14.4533 5.2009 14.8533C4.98756 15.2266 4.7209 15.7199 4.4809 16.1866C3.81529 16.3798 3.30528 17.4461 2.86039 18.3762C2.75275 18.6013 2.64887 18.8185 2.54757 19.0133C2.66757 18.8666 2.86756 19.1333 2.86756 19.3333C2.80211 19.426 2.81475 19.5678 2.82608 19.6948C2.84244 19.8783 2.85604 20.0308 2.62756 19.9599L2.65423 19.8666C2.2675 19.9754 2.24226 20.4456 2.22106 20.8405C2.21888 20.8813 2.21673 20.9212 2.21423 20.9599L2.73423 21.0666C2.3209 21.5733 2.4009 22.3066 2.57423 22.9333C2.60702 23.0518 2.6422 23.1666 2.67615 23.2773C2.82166 23.7519 2.94467 24.1531 2.76089 24.4666C2.84661 24.558 2.91763 24.6641 2.98865 24.7703C3.08334 24.9118 3.17804 25.0532 3.30757 25.1599L3.04089 25.2533C3.28089 25.9466 3.41423 26.3066 3.98756 27.0266L3.70756 26.9866C3.86667 27.2325 4.15915 27.2234 4.44032 27.2147C4.67752 27.2073 4.90667 27.2002 5.04089 27.3466L4.81423 27.7333C4.93742 27.8679 5.05691 28.0149 5.17814 28.164C5.62111 28.7087 6.08716 29.2819 6.84089 29.3866C6.80089 29.4266 6.70756 29.5199 6.57423 29.4532C6.88196 29.6969 7.81856 30.4214 7.97292 29.9311C7.96399 30.2296 8.858 30.249 9.30757 30.1866L9.1609 30.4399C9.25546 30.39 9.33191 30.3469 9.3979 30.3096C9.66685 30.1577 9.76193 30.104 10.2009 30.0933C10.2809 30.1333 10.2809 30.2399 10.2142 30.2533C10.3338 30.2874 10.4072 30.2535 10.4863 30.2169C10.5924 30.1678 10.7088 30.114 10.9609 30.2133L10.7609 30.3733C11.1065 30.4151 11.1642 30.3583 11.2893 30.2351C11.3235 30.2014 11.3627 30.1628 11.4142 30.1199C11.6809 30.0266 12.2142 30.1732 12.3076 30.4132C12.3609 30.2532 12.5609 30.0266 12.8276 30.0666C12.8743 30.1484 12.8083 30.2098 12.7644 30.2506C12.7583 30.2563 12.7525 30.2617 12.7476 30.2666C13.1458 30.3085 13.3976 30.1637 13.6238 30.0337C13.8293 29.9155 14.0137 29.8095 14.2676 29.8666C14.3076 29.9466 14.3476 29.9866 14.4009 29.9999C13.8908 30.1699 13.4582 30.2404 13.4153 30.2315L13.4142 30.2266C13.4107 30.229 13.4111 30.2306 13.4153 30.2315C13.437 30.3233 13.5174 30.3724 13.5943 30.4194C13.725 30.4993 13.8459 30.5732 13.6542 30.8399C13.7494 30.7659 13.8548 30.6705 13.967 30.5688C14.2793 30.2861 14.6443 29.9557 14.9876 29.9066C15.0141 29.9199 15.0411 29.9334 15.0809 29.9599L15.0409 29.9999C15.1476 29.9733 15.2276 29.9199 15.2942 29.8399L15.3162 29.8363C15.463 29.8119 15.5538 29.7968 15.6809 29.7333C15.8076 29.883 16.1332 29.6547 16.3485 29.5038C16.3823 29.4801 16.4137 29.4581 16.4409 29.4399C16.375 29.3465 16.3837 29.269 16.3907 29.2073C16.4007 29.1192 16.407 29.0634 16.1876 29.0399C16.2276 29.0399 16.1742 29.0933 16.0409 29.1866C16.0342 29.1933 16.0267 29.1999 16.0192 29.2066C15.9967 29.2266 15.9742 29.2466 15.9742 29.2666V29.24L15.917 29.2744C15.7927 29.3493 15.6401 29.4413 15.4676 29.5333C15.5742 29.32 15.6809 29.1333 15.9742 29.1333C15.9742 29.0083 15.9834 28.8787 15.991 28.7714C15.9963 28.6955 16.0009 28.6308 16.0009 28.5866C16.2527 28.6801 16.5512 28.6611 16.8082 28.6446C17.0274 28.6306 17.2166 28.6186 17.3209 28.6799C17.3907 28.5955 17.4625 28.5112 17.5342 28.4271C17.9834 27.9003 18.4299 27.3766 18.3609 26.8133C18.4178 26.69 18.5219 26.7218 18.6157 26.7505C18.6537 26.7622 18.6901 26.7733 18.7209 26.7733C18.7063 26.8121 18.6847 26.8492 18.6637 26.8852C18.6271 26.9479 18.5924 27.0073 18.6009 27.0666C18.6549 26.9451 18.756 26.813 18.8585 26.679C19.0598 26.4158 19.2667 26.1453 19.1342 25.9333C19.3618 25.8262 19.3743 25.9341 19.3827 26.0058C19.3909 26.0769 19.395 26.1123 19.6009 25.8666V26.0133C20.2323 25.7837 20.4427 25.2887 20.6568 24.7851C20.879 24.2622 21.1052 23.7301 21.8105 23.4762C21.8396 23.4701 21.8738 23.4576 21.9209 23.4399C21.8828 23.4513 21.8461 23.4634 21.8105 23.4762C21.7737 23.4839 21.7448 23.4815 21.7076 23.4666C22.3225 23.0627 22.8093 22.5034 23.2962 21.944C23.8861 21.2662 24.4761 20.5884 25.2942 20.1866C25.5752 20.0122 25.5816 19.8589 25.5897 19.6654C25.5927 19.5926 25.596 19.5141 25.6142 19.4266L25.8942 19.5733L25.9742 18.9999C26.1056 18.7073 26.3868 18.6206 26.68 18.5303C27.0414 18.4189 27.421 18.3019 27.5609 17.7866L27.3342 17.7199C27.4142 17.6577 27.5061 17.5525 27.5979 17.4474C27.7816 17.237 27.9653 17.0266 28.0542 17.1599C28.0542 17.1486 28.0506 17.1324 28.0464 17.1138C28.031 17.0451 28.0083 16.9438 28.1342 16.9333L28.2542 17.0399L28.5876 16.3199C28.804 16.1756 28.9039 16.2645 29.0033 16.3531C29.1244 16.4608 29.2448 16.568 29.5742 16.2533C29.7476 15.9866 29.8676 15.3066 29.7209 15.3066L29.7742 15.2ZM13.8009 28.5999C13.8179 28.549 13.743 28.5359 13.6486 28.5194C13.5946 28.5099 13.5342 28.4993 13.4809 28.4799C13.5742 28.4666 13.6942 28.4399 13.8276 28.3866C13.8809 28.4666 13.8809 28.5733 13.8009 28.5999ZM15.9876 29.3866C15.9876 29.3866 16.0142 29.4933 15.9876 29.5466C15.8676 29.6666 15.7876 29.6399 15.7476 29.5999C15.8142 29.5599 15.8942 29.5066 15.9742 29.4399V29.3999L15.9876 29.3866Z" fill="black" fill-opacity="0.8"/>
<path d="M14.1869 6.28479C14.2082 6.15252 14.2292 6.02226 14.0372 6.05324C14.3169 5.92689 14.3524 6.16097 14.3791 6.33783C14.3919 6.42226 14.4027 6.49364 14.4372 6.50657C14.1374 6.59222 14.1624 6.43717 14.1869 6.28479Z" fill="black" fill-opacity="0.8"/>
<path d="M21.3326 9.01326L21.1859 8.69327H21.1726C21.2792 8.5466 21.4392 8.65325 21.4526 8.75992L21.3326 9.01326Z" fill="black" fill-opacity="0.8"/>
<path d="M20.87 9.01488C20.8292 9.04834 20.7931 9.07793 20.7984 9.11992V9.14661C20.745 9.03995 20.545 9.0266 20.4517 9.17327C20.5084 9.39279 20.5011 9.48068 20.4938 9.56878C20.4873 9.64655 20.4809 9.72448 20.5184 9.89328C20.2117 9.77328 20.185 9.39995 20.2117 9.14661C20.2162 9.15562 20.2207 9.16614 20.2255 9.17742C20.2493 9.23292 20.2808 9.30661 20.3584 9.30661C20.4117 8.94661 20.625 8.74662 20.9584 8.77328C21.0069 8.90263 20.9328 8.96334 20.87 9.01488Z" fill="black" fill-opacity="0.8"/>
<path d="M16.6911 21.04C16.6911 21.04 16.6377 21.1466 16.6644 21.1733C16.7044 21.1066 16.7311 21.0533 16.6911 21.04Z" fill="black" fill-opacity="0.8"/>
<path d="M8.3184 21.6132C8.34506 21.4932 8.38506 21.3866 8.42506 21.2799C8.41162 21.3337 8.40722 21.3904 8.40325 21.4416C8.39539 21.5427 8.38923 21.6221 8.3184 21.6132Z" fill="black" fill-opacity="0.8"/>
<path d="M19.1344 11.3333C19.1344 11.3333 19.1744 11.2266 19.1744 11.1599L19.0949 11.2793C19.0776 11.2598 19.0455 11.2266 19.0267 11.2266C19.0591 11.2805 19.0653 11.317 19.0594 11.3501L19.0401 11.3733H19.0534C19.056 11.3656 19.058 11.3579 19.0594 11.3501L19.1048 11.2956L19.1211 11.3199L19.1344 11.3333Z" fill="black" fill-opacity="0.8"/>
<path d="M11.0401 17.1866L11.0267 17.2H11.0401V17.1866Z" fill="black" fill-opacity="0.8"/>
<path d="M11.0401 17.1866L11.0801 17.1466C11.0801 17.1466 11.0534 17.0533 11.0401 16.9999V17.1866Z" fill="black" fill-opacity="0.8"/>
<path d="M13.6518 15.0533C13.5984 14.9333 13.5984 14.8533 13.6384 14.7999C13.5984 14.7599 13.5451 14.7199 13.4784 14.6799C13.4316 14.7174 13.5099 14.8339 13.579 14.9369C13.6083 14.9804 13.6359 15.0216 13.6518 15.0533Z" fill="black" fill-opacity="0.8"/>
<path d="M29.5059 14.9865L29.5326 14.9332L29.6126 15.1065L29.5059 14.9865Z" fill="black" fill-opacity="0.8"/>
<path d="M20.7449 17.9999H20.7316C20.6916 18.0799 20.7315 18.0399 20.7449 17.9999Z" fill="black" fill-opacity="0.8"/>
<path d="M27.558 9.78662C27.5705 9.77099 27.583 9.75829 27.5948 9.74628C27.6004 9.74061 27.6058 9.7351 27.611 9.72951C27.5984 9.74833 27.581 9.76748 27.558 9.78662Z" fill="black" fill-opacity="0.8"/>
<path d="M27.611 9.72951C27.6423 9.68277 27.6437 9.63799 27.6247 9.59998C27.638 9.57332 27.6513 9.57332 27.6646 9.57332C27.6646 9.66061 27.6418 9.69646 27.611 9.72951Z" fill="black" fill-opacity="0.8"/>
<path d="M27.959 6.46663L27.999 6.39998L27.9857 6.57332L27.959 6.46663Z" fill="black" fill-opacity="0.8"/>
<path d="M19.5444 23.4679L19.5724 23.48C19.5007 23.4359 19.5042 23.3485 19.5067 23.2885C19.5101 23.2033 19.5113 23.1732 19.2924 23.4C19.3882 23.4 19.4626 23.4323 19.5444 23.4679Z" fill="black" fill-opacity="0.8"/>
<path d="M25.8549 7.46663C25.9615 7.4133 26.0149 7.33331 26.0549 7.26664C26.046 7.2622 26.0386 7.25775 26.0312 7.25331C26.0163 7.24442 26.0015 7.23553 25.9749 7.22664L25.8549 7.46663Z" fill="black" fill-opacity="0.8"/>
<path d="M10.2399 30.1333C10.2399 30.1333 10.1865 30.1334 10.1465 30.1067C10.1865 30.1333 10.2265 30.1333 10.2399 30.1333Z" fill="black" fill-opacity="0.8"/>
<path d="M16.1074 29.0266C16.094 29.0533 16.0674 29.0799 16.0674 29.0799V29.0933L16.0007 29.1333V29.0266H16.1074Z" fill="black" fill-opacity="0.8"/>
<path d="M5.0684 23.44L5.13506 23.4133L5.1484 23.48L5.0684 23.44Z" fill="black" fill-opacity="0.8"/>
<path d="M20.2924 14.9999C20.2924 14.9999 20.319 14.9599 20.3324 14.9466C20.399 14.7999 20.3324 14.8932 20.2924 14.9999Z" fill="black" fill-opacity="0.8"/>
<path d="M15.3023 20.8473C15.3177 20.7836 15.3326 20.7219 15.3602 20.6666C15.2536 20.7466 15.1736 20.8266 15.2802 20.9333C15.2884 20.9045 15.2954 20.8756 15.3023 20.8473Z" fill="black" fill-opacity="0.8"/>
<path d="M15.6134 20.4133C15.4801 20.4667 15.4002 20.5599 15.3602 20.6666L15.378 20.6539C15.4682 20.5898 15.5759 20.5133 15.6134 20.4133Z" fill="black" fill-opacity="0.8"/>
<path d="M20.2477 10.2723C20.2518 10.2769 20.2549 10.28 20.2549 10.28V10.2666L20.2477 10.2723Z" fill="black" fill-opacity="0.8"/>
<path d="M20.2282 10.24C20.2282 10.2488 20.2398 10.2634 20.2477 10.2723L20.1882 10.32L20.2282 10.24Z" fill="black" fill-opacity="0.8"/>
<path d="M20.3463 9.97323L20.2663 10.1599C20.2663 10.1599 20.373 10.0666 20.3463 9.97323Z" fill="black" fill-opacity="0.8"/>
<path d="M18.133 12.2449L18.1205 12.2533L18.1338 12.2666C18.1329 12.2591 18.1327 12.2519 18.133 12.2449Z" fill="black" fill-opacity="0.8"/>
<path d="M18.133 12.2449C18.1782 12.2166 18.2383 12.1943 18.3029 12.1702C18.4364 12.1206 18.5887 12.0639 18.6671 11.9333L18.6271 11.8666C18.6463 11.9562 18.5274 11.9997 18.4013 12.0458C18.2734 12.0926 18.1383 12.142 18.133 12.2449Z" fill="black" fill-opacity="0.8"/>
<path d="M15.2819 13.3067L15.3422 13.2624C15.328 13.2765 15.3125 13.2912 15.2953 13.3067H15.2819Z" fill="black" fill-opacity="0.8"/>
<path d="M15.3422 13.2624L15.7353 12.9733C15.5886 12.9733 15.4019 12.9467 15.5619 12.76C15.2188 12.8871 15.2633 12.9082 15.3462 12.9474C15.4316 12.9879 15.5577 13.0476 15.3422 13.2624Z" fill="black" fill-opacity="0.8"/>
<path d="M13.9014 14.2519C13.9837 14.246 14.077 14.2392 13.9608 14.4C13.7342 14.4933 13.7475 14.44 13.8142 14.24C13.823 14.2576 13.8609 14.2549 13.9014 14.2519Z" fill="black" fill-opacity="0.8"/>
<path d="M10.6934 24.9333C10.8715 24.9488 10.8517 24.9148 10.8169 24.8549C10.7936 24.8146 10.7634 24.7627 10.7817 24.7062L10.7867 24.6933C10.7848 24.6976 10.7831 24.7019 10.7817 24.7062L10.6934 24.9333Z" fill="black" fill-opacity="0.8"/>
<path d="M12.6136 23.0308C12.6611 23.0422 12.7071 23.0533 12.7586 23.0533H12.7453C12.7053 23.1199 12.5853 23.2533 12.5853 23.2533L12.5319 23.0133C12.5604 23.018 12.5873 23.0245 12.6136 23.0308Z" fill="black" fill-opacity="0.8"/>
<path d="M15.1486 23.2L14.9886 23.4399L14.9486 23.5333L15.1486 23.2Z" fill="black" fill-opacity="0.8"/>
<path d="M28.3178 6.99992L28.0111 7.09326C28.0778 7.2666 28.4244 7.30659 28.3178 6.99992Z" fill="black" fill-opacity="0.8"/>
<path d="M20.3601 1.3732C20.4716 1.35352 20.5896 1.3629 20.6934 1.37115C20.8005 1.37967 20.8925 1.38698 20.9467 1.35989C20.8134 1.22656 20.4934 1.18653 20.3601 1.3732Z" fill="black" fill-opacity="0.8"/>
<path d="M2.31798 21.44L2.30466 21.6266L2.22465 21.2266L2.31798 21.44Z" fill="black" fill-opacity="0.8"/>
</svg>
