<svg width="24" height="24" viewBox="0 0 24 24" fill="none" xmlns="http://www.w3.org/2000/svg">
<path d="M4.69913 12.94C4.75913 13.04 4.94912 12.83 5.09912 12.75C5.23912 12.81 4.96912 12.92 4.87912 13.04C4.98912 13.07 5.22912 12.97 5.25912 13.03C5.22912 13.06 5.21912 13.08 5.15912 13.1C5.38912 13.05 5.31913 13.31 5.60913 13.23C5.58913 13.25 5.57911 13.27 5.55911 13.28C5.65911 13.19 5.77913 13.1 5.85913 13.05C5.88913 13.09 6.05913 13.03 5.91913 13.15C5.90913 13.12 5.84912 13.16 5.78912 13.18H5.87912C5.68912 13.37 5.75913 13.18 5.60913 13.28C5.73913 13.32 5.97912 13.28 5.96912 13.4C5.76912 13.56 5.78913 13.3 5.66913 13.52V13.36C5.39913 13.67 5.65913 13.28 5.35913 13.6C5.38913 13.77 5.56912 13.67 5.59912 13.85C5.73912 13.8 5.75911 13.72 5.89911 13.67C6.23911 13.71 5.47912 14.19 5.84912 14.13C6.00912 14.07 6.28912 13.9 6.21912 14.09L5.95914 14.22C6.02914 14.36 6.34912 14.05 6.28912 14.3C6.17912 14.34 6.13912 14.25 6.12912 14.3C6.00912 14.52 6.30912 14.27 6.34912 14.33L6.14911 14.49C6.27911 14.6 6.52911 14.65 6.67911 14.77C6.60911 14.81 6.52914 14.83 6.48914 14.91C6.72914 15.03 6.74912 15.33 6.75912 15.6L6.98914 15.54C6.98914 15.54 6.92912 15.63 6.87912 15.63C6.85912 15.75 6.99911 15.55 7.08911 15.54C7.12911 15.57 7.01913 15.67 6.94913 15.68C7.18913 15.7 7.52911 15.81 7.42911 16.08H7.35913C7.35913 16.25 7.80914 15.95 7.70914 16.16H7.66913C7.74913 16.44 8.08912 16.57 7.93912 16.94C8.21912 16.79 7.97912 17.24 8.34912 17C8.25912 17.25 8.16911 17.26 8.17911 17.53C8.19911 17.59 8.45912 17.44 8.53912 17.48L8.34912 17.61L8.60913 17.55L8.40912 17.75C8.40912 17.75 8.45912 17.75 8.49911 17.78C8.47912 17.73 8.54912 17.67 8.59912 17.63C8.74912 17.66 8.70912 18.06 8.62912 18.16C8.75912 18.24 8.88912 18.3 9.00912 18.36C8.94912 18.44 8.88912 18.4 8.81912 18.41C9.09912 18.4 8.69914 18.66 8.95914 18.65C8.96914 18.58 9.04912 18.53 9.06912 18.49C9.04912 18.71 9.19913 18.92 9.32913 19L9.23914 19.15C9.42914 19.49 9.68911 19.66 9.89911 19.96C9.82911 19.73 9.89913 19.35 9.94913 19.38V19.79C9.99913 19.6 9.89914 19.56 9.98914 19.38C10.0491 19.52 10.0191 19.9 9.95914 19.96H10.0591C10.0591 20.09 10.0391 20.12 10.0191 20.26C10.0591 20.06 10.1991 20.94 10.2591 20.57V20.71C10.2591 20.71 10.2891 20.74 10.2991 20.75C10.4991 20.42 10.5791 20.15 10.7391 19.88C10.6891 19.56 10.7691 19.53 10.7591 19.22C10.8791 19.15 11.0691 19.16 11.2091 18.91C11.2491 18.64 11.1491 18.67 11.1291 18.47C11.2291 18.67 11.3591 18.43 11.3691 18.68C11.5191 18.39 11.5691 18.29 11.6491 17.86C11.5691 17.84 11.5191 17.86 11.4891 17.79C11.4891 17.72 11.6191 17.73 11.6891 17.79V17.82C11.7091 17.53 11.8991 17.49 12.0791 17.44C12.2591 17.39 12.4291 17.33 12.3091 17.14V17.16L12.2591 16.87C12.3391 16.8 12.3491 17 12.4891 17C12.3391 16.64 12.7191 16.72 12.6391 16.44C13.1991 16.62 12.8791 15.98 13.2891 16L13.1691 15.94C13.0891 15.83 13.2691 15.93 13.3091 15.91C13.2191 15.86 13.1791 15.89 13.1291 15.83C13.2191 15.38 13.7691 15.17 14.1091 14.86C14.2291 14.74 13.5691 14.42 13.9491 14.41L14.1291 14.59C14.0491 14.15 14.4891 14.03 14.4491 13.62C14.4891 13.67 14.5491 13.71 14.5291 13.73C14.7191 13.77 14.6691 13.52 14.5491 13.44C14.5891 13.41 14.6691 13.5 14.7491 13.51C14.8791 13.51 14.6491 13.24 14.8191 13.31C14.8491 13.32 14.8591 13.36 14.8591 13.38C14.8091 13.3 14.9891 13.22 14.7891 13.14C14.9391 13.09 14.8291 12.9 14.9891 12.88C14.8291 12.7 15.1891 12.76 14.9291 12.57C15.2091 12.76 15.2691 12.54 15.1791 12.39C15.2491 12.47 15.3091 12.39 15.4091 12.49C15.4491 12.41 15.4391 12.31 15.2891 12.23C15.7191 12.31 15.1791 11.78 15.6691 11.98C15.6491 11.66 15.6691 11.4 15.7291 11.16C16.0091 11.35 15.6191 11.4 15.9291 11.58C15.9291 11.32 15.7491 11.06 15.9291 10.92C15.9991 10.9 16.0391 11.02 16.0791 11.07C16.0791 10.81 16.3291 10.73 16.2791 10.46C16.3091 10.48 16.3191 10.51 16.3391 10.54C16.3491 10.5 16.4291 10.49 16.2991 10.41L16.3191 10.46C16.0991 10.39 16.0091 10.08 15.9091 10.01C16.2491 10.3 16.1091 9.90001 16.5191 10.29C16.5091 10.25 16.4591 10.19 16.3691 10.14C16.4191 10.12 16.4691 10.14 16.5491 10.24C16.5491 10.08 16.3891 10.03 16.4591 9.93001C16.5191 9.97001 16.5291 10.01 16.5991 10.06C16.5091 9.93 16.4191 9.80001 16.5291 9.74001C16.5591 9.77001 16.6191 9.79001 16.5991 9.82001C16.6791 9.65001 16.4391 9.35001 16.6591 9.26001C16.8991 9.48001 16.7891 9.26001 17.0291 9.40001V9.26001L16.8791 9.22C16.9291 9.14 16.7991 8.96 16.9291 8.94L16.9891 9.06L17.0391 8.88L16.8991 8.91C16.8291 8.75 16.5891 8.73 16.7291 8.67C16.7391 8.71 16.7791 8.59 16.9491 8.64C16.8991 8.55 16.8391 8.46 16.9491 8.44C17.0391 8.47 17.1991 8.62 17.2591 8.64C17.0891 8.48 17.3191 8.42001 17.1391 8.24001C17.1791 8.29001 17.2991 8.37 17.3291 8.38L17.1891 8.25C17.2591 8.25 17.2891 8.25001 17.3891 8.32001C17.4891 8.23001 17.0691 8.17001 17.2791 8.12001C17.2791 8.14001 17.3091 8.15 17.3191 8.19C17.4691 8.1 17.3791 7.87 17.5291 7.8C17.7891 7.91 17.5291 7.94 17.7491 8.03C17.8191 7.83 17.6891 7.49001 17.8491 7.35001L17.7991 7.37001C17.4791 7.14001 18.0491 7.35 17.9391 7.16C17.9491 7.2 18.1091 7.3 18.0791 7.28C18.2091 7.2 18.1491 6.99 18.1491 6.75L18.2191 6.83C18.3391 6.81 18.3791 6.68 18.4591 6.63C18.3891 6.55 18.4291 6.52 18.2891 6.47C18.9291 6.55 18.2891 5.87 18.8291 5.92C18.8191 5.94 18.8691 6.03001 18.8791 6.01001L18.9091 5.79001C18.7491 5.71001 18.8091 5.76 18.6691 5.72C18.5991 5.64 18.5591 5.55001 18.5891 5.51001C18.6391 5.65001 18.8291 5.66 18.9291 5.67C18.8791 5.65 18.8391 5.6 18.7891 5.58C19.1091 5.65 18.4991 5.38001 18.7591 5.37001L18.8291 5.42C18.8191 5.35 18.7391 5.24001 18.7991 5.21001C18.9791 5.30001 18.8491 5.31001 18.9891 5.40001C19.0191 5.32001 18.7491 5.06001 18.9591 5.10001C18.9891 5.16001 18.9591 5.20001 18.9891 5.26001C19.2291 5.32001 19.1891 5.28 19.2491 5.25L19.4091 5.19H19.3391C18.9491 4.82 19.3691 4.96 19.1491 4.66C19.3491 4.95 19.2991 4.78 19.4791 4.91C19.5491 4.91 19.6391 4.91 19.6891 4.95C19.5691 4.8 19.8691 4.93001 19.6891 4.71001C19.7491 4.75001 19.7291 4.65001 19.8791 4.76001C19.8791 4.66001 19.7591 4.71001 19.6891 4.65001C19.5491 4.41001 20.1091 4.55001 19.9191 4.21001C19.8891 4.00001 19.6891 3.84001 19.6691 3.65001C19.7991 3.67001 19.8691 3.83 19.8691 3.83C19.9991 3.82 20.0191 3.75 19.9891 3.64C20.0391 3.69 20.0891 3.70001 20.1691 3.73001C20.1891 3.67001 19.9691 3.55001 20.0991 3.54001C20.1591 3.60001 20.2591 3.68 20.3191 3.75C20.2991 3.65 20.2191 3.52 20.2091 3.42C20.3291 3.47 20.3491 3.56 20.4091 3.63C20.4091 3.53 20.4291 3.38 20.2691 3.25H20.1791C20.1791 3.25 20.3391 3.34 20.3491 3.38C20.4491 3.53 20.2291 3.43001 20.1691 3.40001V3.33C19.7691 3.15 20.0991 3.55 20.0191 3.63L19.7791 3.43001L19.9391 3.66C19.8591 3.64 19.6991 3.56001 19.6891 3.49001C19.5191 3.47001 19.7491 3.61001 19.5691 3.57001C19.5391 3.57001 19.5291 3.55001 19.5291 3.54001L19.5691 3.65001C19.5691 3.65001 19.3791 3.54 19.4391 3.53C19.2091 3.55 19.5191 3.84001 19.2891 3.76001V3.74001C19.2691 3.96001 19.4591 3.88 19.6191 4.14L19.0891 3.92L19.2691 4.06C19.2691 4.06 19.2191 4.10001 19.1391 4.04001C19.2291 4.18001 19.2291 4.08 19.3291 4.2C19.0991 4.17 19.2791 4.47 18.9491 4.3C19.0791 4.42 19.1091 4.3 19.1591 4.44C18.8091 4.26 19.1591 4.57 18.9591 4.55C18.7991 4.42 18.9391 4.41 18.7391 4.39C18.9991 4.62 18.5891 4.49001 18.5991 4.59001C18.8291 4.74001 18.6091 4.78 18.6291 4.94C18.5591 4.89 18.3791 5.06001 18.2391 5.10001L18.1991 5.07001C18.4191 5.23001 18.3191 5.31 18.3191 5.41C18.1791 5.32 18.1291 5.27 18.0991 5.19L18.0591 5.26001C18.1191 5.32001 18.1491 5.37001 18.1491 5.43001L17.9891 5.3C17.9391 5.4 18.0791 5.61001 17.8891 5.65001C18.0491 5.76001 18.3991 5.84 18.4291 6.03C18.3391 5.98 18.1891 5.89001 18.1691 5.84001C18.1691 5.86001 18.2191 5.92 18.1691 5.92L18.0491 5.78C17.9491 5.79 18.1591 5.89 18.1191 5.92C17.9891 5.84 18.0091 5.9 17.9091 5.83C17.9091 5.81 17.9891 5.83 17.9491 5.78C17.8991 5.81 17.7891 5.82 17.6791 5.78C17.7491 5.82 17.8491 5.89001 17.8391 5.93001C17.7891 6.03001 17.6691 5.87 17.5691 5.88C17.6391 5.96 17.5191 5.96 17.6991 6.08C17.6791 6.11 17.5891 6.06 17.5291 6.03C17.5791 6.13 17.4191 6.26001 17.6491 6.34001H17.6691C17.7591 6.61001 17.3591 6.59001 17.3491 6.79001L17.2891 6.75C17.3091 6.89 17.2091 6.98 17.2991 7.13C17.2791 7.16 17.1491 7.13 17.0791 7.06C17.0791 7.16 17.1491 7.21 16.9791 7.25C16.9091 7.11 16.8691 7.21 16.9391 7.13C16.8291 7.19 16.7191 7.14001 16.8291 7.35001C16.6891 7.22001 16.5891 7.29 16.6091 7.36H16.7591C16.7591 7.43 16.7091 7.46 16.6691 7.5L16.4691 7.34001C16.0991 7.36001 16.6991 7.95001 16.1791 7.82001C16.2991 7.96001 16.3491 7.78 16.4891 7.94C16.4091 8.01 16.0491 7.91 16.0291 7.94C15.8391 7.98 16.2691 8.24 16.1191 8.31C16.2091 8.34 16.4191 8.45001 16.4291 8.59001C16.3491 8.66001 16.0491 8.5 16.0191 8.41C16.0191 8.39 16.0591 8.39 16.0791 8.41C16.0691 8.37 16.0591 8.31001 15.9591 8.29001L16.0291 8.35001C15.9291 8.35001 15.8591 8.47 15.7491 8.36C15.7791 8.47 15.8591 8.46 15.9291 8.44C15.7491 8.48 15.8191 8.61 15.6791 8.67C15.7291 8.67 15.8291 8.72001 15.8191 8.73001C15.6191 8.84001 15.9191 8.89 15.8791 9.02C15.7291 9.02 15.6191 8.83 15.6491 9C15.5291 9.02 15.4391 8.89001 15.3991 8.82001C15.4791 9.01001 15.1891 8.95001 15.1191 8.99001L15.0891 8.90001C15.1091 8.95001 15.0891 8.98001 15.0691 9.01001L15.2391 9.07001C15.2391 9.07001 15.1791 9.11001 15.1091 9.07001C15.1891 9.16001 15.3791 9.20001 15.4691 9.35001C15.3691 9.35001 15.4691 9.53 15.2591 9.42C15.4091 9.33 15.0491 9.31001 15.0891 9.18001C15.0991 9.22001 15.0891 9.24001 15.0391 9.26001C15.0091 9.26001 14.9991 9.23001 14.9991 9.21001C14.7391 9.22001 15.1891 9.41001 15.0991 9.54001C14.9991 9.45001 14.8691 9.44 14.8791 9.47C14.9191 9.42 15.0791 9.56 15.1391 9.67C14.9991 9.7 15.1391 9.80001 15.1091 9.84001L15.1791 9.82001C15.2791 9.91001 15.2391 9.94 15.2391 10.02C15.1491 9.97 15.2091 9.93001 15.1591 9.93001C15.3191 10.12 14.8591 9.95001 14.9391 10.12C14.8391 10.12 14.7291 9.99 14.6491 10C14.7291 10.19 14.4291 10.01 14.4791 10.2C14.6491 10.26 14.6191 10.24 14.7191 10.4V10.16L14.8691 10.41C14.9091 10.36 14.8391 10.24 14.8891 10.22C14.9791 10.35 14.9491 10.32 15.0891 10.38C14.8191 10.31 15.1291 10.61 14.9291 10.6L14.5591 10.36C14.3091 10.38 14.6091 10.71 14.4191 10.81H14.5191C14.6591 10.91 14.4791 10.91 14.4991 11C14.3791 10.92 14.3091 10.92 14.2191 10.9C14.3091 10.96 14.1391 11.01 14.3791 11.19L14.1691 11.16C14.0191 11.25 14.4291 11.53 14.3091 11.64C14.1991 11.52 14.0691 11.52 14.0291 11.37C13.9991 11.41 13.9591 11.44 14.0391 11.49C13.9491 11.47 14.1391 11.71 13.9891 11.68C14.0291 11.73 14.1591 11.82 14.1191 11.86C14.0891 11.85 14.0591 11.82 14.0591 11.82C14.1191 11.86 14.0991 11.95 14.2591 11.99C13.7891 11.88 14.0591 12.37 13.6491 12.28C13.6291 12.4 13.5991 12.54 13.5591 12.63C13.5291 12.6 13.4991 12.59 13.5191 12.58C13.3291 12.62 13.8391 12.88 13.6191 12.93C13.3691 12.87 13.5491 12.79 13.4491 12.79C13.0291 12.55 13.4091 12.98 13.1091 12.92V12.88C12.9191 12.86 13.1491 13.14 13.0491 13.24C13.0491 13.24 13.0191 13.21 12.9891 13.2C13.1491 13.41 13.1291 13.6 13.1191 13.74C12.9791 13.61 13.0591 13.64 12.8891 13.56C12.8891 13.62 13.1591 13.71 13.1491 13.84C13.0391 13.82 12.9191 13.84 12.7391 13.74L12.7891 13.64C12.5291 13.54 12.7191 13.76 12.6591 13.78L12.5591 13.71C12.5091 13.87 12.7491 14.03 12.6391 14.16L12.7191 14.19C12.9191 14.43 12.5391 14.17 12.6691 14.37L12.3991 14.24C12.4291 14.33 12.5291 14.58 12.5091 14.71C12.3591 14.54 12.3291 14.37 12.2691 14.23C12.2291 14.28 12.1791 14.42 12.2791 14.53C12.2691 14.49 12.2191 14.43 12.2791 14.43C12.4391 14.62 12.4791 14.76 12.4091 14.87C11.9391 14.55 12.1091 15.07 11.6891 14.91C11.7491 15.21 11.3791 15.23 11.2691 15.47C11.6991 15.63 11.2391 15.54 11.6391 15.77C11.6391 15.84 11.6091 15.85 11.5891 15.84H11.2591C11.1191 15.81 11.1991 15.75 11.1091 15.7C11.0091 15.79 10.9191 15.64 10.7691 15.65C10.9191 15.72 10.9491 15.81 10.8491 15.84L11.0891 15.86C11.1991 16.14 10.6791 15.79 10.7891 16.08L10.6991 15.95C10.7191 16.08 10.5091 16.25 10.7791 16.52C10.7291 16.51 10.6091 16.46 10.5991 16.41C10.5191 16.49 10.5291 16.65 10.5291 16.79C10.5491 16.9 10.5791 16.96 10.4791 16.91L10.3991 16.82C10.3991 16.82 10.5391 17 10.4491 16.93C10.4191 16.89 10.3791 16.84 10.3691 16.83C10.3991 16.86 10.4791 17.03 10.4291 16.98L10.3591 16.85C10.2591 16.74 10.4791 17.23 10.4391 17.44C10.2991 17.03 10.2491 16.92 10.2291 16.85V16.78C10.2291 16.78 10.2291 17.04 10.1991 17.36C10.1991 17.42 10.1791 17.47 10.1691 17.5C10.1591 16.86 10.0791 17.11 10.1091 16.81C10.0891 16.89 10.0191 17.12 9.98914 17.14C10.0091 17.05 9.84914 17.34 9.98914 17.01C10.1191 16.69 10.0791 16.77 10.0691 16.75L9.83911 17.11C9.97911 16.81 9.93913 16.84 9.85913 16.84C9.79913 16.85 9.61911 16.72 9.80911 16.54C9.69911 16.55 9.65912 16.49 9.53912 16.5L9.71912 16.38C9.66912 16.22 9.64912 16.14 9.49911 16.01L9.64911 15.95C9.59911 15.85 9.06912 16.19 8.99911 16.12L9.23914 15.91C9.12914 15.76 9.23911 15.44 8.89911 15.45C8.93911 15.43 9.01913 15.38 9.04913 15.4C9.00913 15.32 9.02912 14.99 8.68912 15.27C8.91912 15.1 8.59912 15.09 8.43912 15.08L8.61911 14.97C8.34911 15.05 8.28912 15.09 8.15912 15.04C8.15912 15 8.27912 14.92 8.25912 14.99C8.28912 14.85 8.05913 15.04 8.07913 14.88L8.20914 14.84C8.16914 14.75 8.10913 14.8 7.94913 14.84C7.84913 14.84 7.88911 14.66 8.02911 14.54C7.92911 14.6 7.76911 14.64 7.77911 14.56C7.82911 14.51 7.87912 14.5 7.90912 14.5C7.92912 14.28 7.56913 14.44 7.66913 14.23C7.72913 14.19 7.74912 14.16 7.75912 14.14C7.82912 14.25 7.87913 14.34 7.85913 14.34C8.01913 14.23 7.97912 14.12 8.24911 14.04C8.07911 14.05 7.73912 14.12 7.75912 13.98C7.76912 13.97 7.78911 13.95 7.80911 13.93H7.82913C7.82913 13.93 7.80913 13.89 7.76913 13.89C7.76913 13.84 7.77913 13.81 7.76913 13.79C7.88913 13.69 7.76911 13.64 7.74911 13.59C7.57911 13.72 7.56914 13.64 7.45914 13.79C7.45914 13.77 7.48912 13.79 7.50912 13.81C7.50912 13.81 7.52912 13.81 7.53912 13.81H7.51913C7.51913 13.81 7.56913 13.88 7.60913 13.92C7.49913 13.95 7.39914 13.96 7.45914 13.85C7.32914 13.9 7.19913 13.96 7.13913 13.99C7.33913 13.76 7.38911 13.56 7.52911 13.44C7.33911 13.38 7.24911 13.18 6.86911 13.32C6.79911 13.32 6.92912 13.21 6.96912 13.16C7.01912 13.16 7.02911 13.19 7.08911 13.16C6.94911 13.14 6.89912 12.96 6.65912 13.1C6.69912 12.93 6.90911 13.01 6.77911 12.9L6.85913 12.87C7.03913 12.36 5.98912 12.87 6.25912 12.25C6.24912 12.29 6.23913 12.31 6.19913 12.34C6.17913 11.87 5.53913 11.81 5.63913 11.27C5.63913 11.13 5.48911 11.23 5.33911 11.25L5.50912 11.1L5.22913 11.16C4.97913 11.14 5.51913 10.61 5.10913 10.65L4.99911 10.76C4.97912 10.68 4.78912 10.62 4.93912 10.53C4.90912 10.53 4.79911 10.6 4.83911 10.53L4.93912 10.46L4.66913 10.43C4.65913 10.26 5.06912 10.18 4.96912 9.99001C4.88912 9.95001 4.55912 10.01 4.50912 10.08C4.51912 10.11 4.49911 10.19 4.39911 10.26L4.30911 10.24C4.01911 10.43 3.68911 10.59 3.58911 10.87L3.82913 10.85L3.70914 10.98L3.63913 10.9C3.53913 11.04 3.67911 10.99 3.77911 10.96C3.70911 11.02 3.66912 11.07 3.65912 11.11L3.99911 11.01C3.89911 11.1 3.74913 11.12 3.72913 11.23C3.88913 11.19 3.94911 11.01 4.08911 11.03C3.98911 11.17 3.87911 11.23 4.02911 11.21C3.95911 11.27 3.90913 11.29 3.85913 11.29C3.97913 11.28 3.98912 11.39 4.15912 11.31C4.02912 11.47 4.31913 11.45 4.04913 11.63C4.12913 11.6 4.31911 11.57 4.36911 11.6C3.98911 11.75 4.46913 11.78 4.10913 12.01C4.43913 11.87 4.38912 12.14 4.62912 12.13C4.59912 12.14 4.54911 12.16 4.55911 12.14C4.57911 12.22 4.49913 12.3 4.47913 12.38C4.72913 12.22 4.84911 12.27 5.02911 12.22C4.84911 12.46 4.71912 12.37 4.50912 12.55C4.69912 12.41 4.79912 12.55 4.93912 12.4C4.83912 12.56 4.90913 12.5 4.72913 12.67C5.03913 12.47 4.81912 12.69 5.03912 12.6C4.94912 12.79 4.76911 12.82 4.92911 12.85C4.86911 12.96 4.70914 12.95 4.70914 12.95L4.69913 12.94ZM6.73914 14.73C6.73914 14.73 6.70913 14.7 6.69913 14.69C6.69913 14.69 6.71914 14.71 6.73914 14.73ZM6.86911 14.91C6.86911 14.91 6.83912 14.85 6.81912 14.83C6.87912 14.78 6.93913 14.75 6.94913 14.77C6.89913 14.79 6.89911 14.86 6.86911 14.92V14.91ZM7.79913 13.68C7.79913 13.68 7.81912 13.72 7.78912 13.75C7.77912 13.74 7.75913 13.73 7.72913 13.71H7.70914C7.70914 13.71 7.77913 13.68 7.79913 13.67V13.68Z" fill="black" fill-opacity="0.8"/>
</svg>
