<svg width="24" height="24" viewBox="0 0 24 24" fill="none" xmlns="http://www.w3.org/2000/svg">
<path d="M7.34843 2.56005C7.28843 2.60005 7.19843 2.71005 7.23843 2.71005L7.42843 2.55005H7.33843L7.34843 2.56005Z" fill="black" fill-opacity="0.8"/>
<path d="M7.20495 3.06008C7.32495 3.01008 7.50494 2.89008 7.64494 2.71008C7.44494 2.85008 7.50495 2.77008 7.27495 2.94008C7.22495 2.94008 7.28495 2.84008 7.35495 2.78008C7.30495 2.82008 7.35494 2.70008 7.22494 2.80008C7.12494 2.97008 7.16495 3.02008 7.31495 2.95008C7.28495 3.00008 7.23494 3.03008 7.19494 3.06008H7.20495Z" fill="black" fill-opacity="0.8"/>
<path d="M9.47852 5.8901V5.8501C9.47852 5.8501 9.47852 5.8801 9.47852 5.8901Z" fill="black" fill-opacity="0.8"/>
<path d="M10.9682 7.56006C10.9682 7.56006 10.9282 7.56006 10.9082 7.58006C10.9282 7.58006 10.9482 7.58006 10.9682 7.56006Z" fill="black" fill-opacity="0.8"/>
<path d="M11.0485 8.03012C11.0485 8.03012 11.0485 8.01012 11.0485 8.00012C11.0385 8.02012 11.0385 8.04012 11.0485 8.03012Z" fill="black" fill-opacity="0.8"/>
<path d="M9.47852 5.8901V5.99002C9.52852 5.94002 9.47852 5.9301 9.47852 5.8901Z" fill="black" fill-opacity="0.8"/>
<path d="M7.9782 2.99011C7.9782 2.99011 7.9382 2.99011 7.9082 3.01011H7.9482L7.9782 2.99011Z" fill="black" fill-opacity="0.8"/>
<path d="M8.62492 5.33008C8.62492 5.33008 8.57492 5.36008 8.54492 5.38008L8.64492 5.33008H8.62492Z" fill="black" fill-opacity="0.8"/>
<path d="M8.07617 4.82C8.07617 4.82 8.23618 4.69 8.30618 4.63C8.23618 4.68 8.19618 4.7 8.17618 4.71C8.14618 4.74 8.11617 4.78 8.07617 4.82Z" fill="black" fill-opacity="0.8"/>
<path d="M7.49508 3.71008H7.45508C7.45508 3.71008 7.47508 3.71008 7.49508 3.71008Z" fill="black" fill-opacity="0.8"/>
<path d="M8.99727 5.75012C8.99727 5.75012 8.95727 5.80012 8.94727 5.81012C8.96727 5.79012 8.97727 5.77012 8.99727 5.75012Z" fill="black" fill-opacity="0.8"/>
<path d="M8.31711 20.9901C8.31711 20.9901 8.29711 20.9701 8.28711 20.9601C8.29711 20.9801 8.30711 20.9901 8.31711 20.9901Z" fill="black" fill-opacity="0.8"/>
<path d="M6.95695 20.87V20.86L6.87695 20.77L6.95695 20.87Z" fill="black" fill-opacity="0.8"/>
<path d="M14.5957 12.0801C14.7957 12.1501 14.7757 12.2401 15.0057 12.3101C14.9357 12.2701 14.7357 12.1201 14.5957 12.0801Z" fill="black" fill-opacity="0.8"/>
<path d="M7.9668 3.02002C7.9668 3.02002 7.98679 3.03002 7.98679 3.04002C7.98679 3.03002 7.9768 3.02002 7.9668 3.02002Z" fill="black" fill-opacity="0.8"/>
<path d="M14.998 12.3101H15.018C15.008 12.3101 14.998 12.3101 14.998 12.3101Z" fill="black" fill-opacity="0.8"/>
<path d="M12.5762 9.76005C12.5762 9.76005 12.6162 9.71005 12.6262 9.68005C12.6162 9.70005 12.5962 9.72005 12.5762 9.76005Z" fill="black" fill-opacity="0.8"/>
<path d="M11.9355 8.70007V8.74007C11.9355 8.74007 11.9355 8.71007 11.9355 8.70007Z" fill="black" fill-opacity="0.8"/>
<path d="M13.2257 9.99011C13.2257 9.99011 13.2057 10.0401 13.2457 10.0301C13.2457 10.0301 13.2457 10.0101 13.2557 10.0101C13.2257 10.0201 13.2157 10.0301 13.2257 9.99011Z" fill="black" fill-opacity="0.8"/>
<path d="M13.6855 10.45L13.7056 10.41L13.6855 10.4V10.45Z" fill="black" fill-opacity="0.8"/>
<path d="M9.63852 19.53C9.58852 19.5 9.53852 19.46 9.47852 19.42C9.58852 19.52 9.55852 19.62 9.63852 19.53Z" fill="black" fill-opacity="0.8"/>
<path d="M7.89648 3.07002C7.89648 3.07002 7.95649 3.02002 7.97649 3.02002H7.95649C7.95649 3.02002 7.91649 3.05002 7.90649 3.07002H7.89648Z" fill="black" fill-opacity="0.8"/>
<path d="M14.416 8.83008L14.466 8.92008C14.466 8.92008 14.446 8.85008 14.416 8.83008Z" fill="black" fill-opacity="0.8"/>
<path d="M12.9082 16.2201V16.2501C12.9082 16.2501 12.9182 16.2401 12.9082 16.2201Z" fill="black" fill-opacity="0.8"/>
<path d="M14.7065 9.12012C14.6665 9.19012 14.6465 9.23012 14.6465 9.26012C14.6565 9.26012 14.6765 9.25012 14.6965 9.23012L14.7165 9.12012H14.7065Z" fill="black" fill-opacity="0.8"/>
<path d="M9.35535 20.2501C9.42535 20.1801 9.19535 20.0301 9.09535 19.9001C9.12535 19.7601 9.27535 20.0101 9.40535 20.0801C9.40535 19.9801 9.26535 19.7601 9.31535 19.7301C9.35535 19.7601 9.36535 19.7601 9.40535 19.8101C9.30535 19.6001 9.55535 19.6401 9.42535 19.3801C9.44535 19.3901 9.46535 19.4101 9.48535 19.4201C9.37535 19.3301 9.27535 19.2301 9.20535 19.1601C9.23535 19.1301 9.13535 18.9801 9.27535 19.0901C9.25535 19.1101 9.30535 19.1601 9.33535 19.2101L9.31535 19.1201C9.52535 19.2701 9.33535 19.2301 9.47535 19.3601C9.47535 19.2401 9.40535 19.0101 9.50535 19.0101C9.69535 19.1801 9.45535 19.1801 9.67535 19.2801H9.53535C9.87535 19.5101 9.46535 19.3101 9.82535 19.5601C9.97535 19.5101 9.84535 19.3601 9.99535 19.3101C9.91535 19.1901 9.83535 19.1701 9.76535 19.0501C9.72535 18.7301 10.3254 19.3901 10.1954 19.0501C10.1054 18.9001 9.88535 18.6601 10.0753 18.7101L10.2553 18.9401C10.3753 18.8601 10.0153 18.5901 10.2553 18.6301C10.3153 18.7301 10.2554 18.7701 10.2854 18.7801C10.5154 18.8801 10.2154 18.6201 10.2654 18.5701L10.4554 18.7401C10.5254 18.6101 10.5154 18.3701 10.5954 18.2201C10.6454 18.2801 10.6754 18.3601 10.7654 18.3801C10.8154 18.1501 11.0954 18.1001 11.3354 18.0701L11.2354 17.8601C11.2354 17.8601 11.3254 17.9101 11.3454 17.9501C11.4554 17.9501 11.2454 17.8501 11.2154 17.7601C11.2354 17.7201 11.3454 17.8101 11.3754 17.8801C11.3354 17.6501 11.3654 17.3301 11.6254 17.3901L11.6553 17.4601C11.7953 17.4501 11.4253 17.0501 11.6453 17.1301V17.1701C11.8953 17.0701 11.9354 16.7401 12.3054 16.8501C12.1054 16.6001 12.5754 16.7801 12.2754 16.4601C12.5254 16.5201 12.5553 16.6001 12.7953 16.5701C12.8453 16.5501 12.6554 16.3201 12.6654 16.2401L12.8253 16.4001L12.7154 16.1701L12.9454 16.3301V16.2501C12.9454 16.2501 12.8353 16.2101 12.7953 16.1601C12.7953 16.0201 13.0653 16.1101 13.1553 16.2001L13.1754 15.9101C13.2354 15.9801 13.2353 16.0301 13.2553 16.0901C13.1753 15.8401 13.4453 16.2501 13.3653 16.0201C13.3153 15.9901 13.2754 15.9201 13.2454 15.8801C13.3854 15.9401 13.4654 15.8601 13.4954 15.7501L13.5954 15.8701C13.7354 15.7801 13.7854 15.5701 13.9154 15.4501C13.8154 15.4501 13.6353 15.2401 13.6553 15.1801L13.8454 15.3401C13.7654 15.2101 13.7453 15.3101 13.6553 15.1301C13.7253 15.1001 13.8854 15.2901 13.9154 15.3801V15.2601C13.9654 15.3101 13.9853 15.3501 14.0453 15.4201C13.9653 15.2901 14.3154 15.4901 14.1654 15.2701L14.2154 15.3201C14.3454 15.1901 14.3454 15.0701 14.4454 14.9601C14.2954 14.8101 14.3754 14.8001 14.2854 14.6501C14.4054 14.6201 14.6154 14.6501 14.6954 14.5501C14.6954 14.4101 14.5854 14.4001 14.5254 14.2901C14.6654 14.4201 14.7453 14.3201 14.7953 14.4601C14.8853 14.3301 14.9154 14.2901 14.9454 14.0401C14.8754 14.0001 14.8353 13.9901 14.7953 13.9401C14.7953 13.8901 14.9153 13.9401 14.9753 14.0101V14.0301C14.9353 13.6701 15.7453 14.0601 15.5854 13.6501V13.6701V13.3901C15.6653 13.3501 15.6554 13.5301 15.7754 13.5701C15.6454 13.2401 16.1553 13.2601 16.1553 12.9601C16.4853 13.0301 16.6453 12.8601 16.7553 12.6901C16.8753 12.5201 16.9453 12.3601 17.2953 12.2701H17.1153C17.0053 12.1901 17.2853 12.2101 17.3653 12.1601C17.2253 12.1601 17.1454 12.2101 17.0854 12.1601C17.1253 12.0801 17.1954 12.0001 17.2754 11.9201C16.9054 11.5601 16.7954 11.0801 16.4154 10.5501C16.2354 10.3201 15.7553 10.8701 15.7953 10.4501C15.8653 10.4001 15.9554 10.3701 16.0354 10.3401C15.5754 10.3001 15.6153 9.91009 15.2253 9.88009C15.2753 9.85009 15.3354 9.80009 15.3454 9.82009C15.4354 9.65009 15.1954 9.66009 15.0954 9.76009C15.0754 9.72009 15.1854 9.66009 15.2154 9.59009C15.2454 9.47009 14.9454 9.65009 15.0554 9.50009C15.0754 9.48009 15.1054 9.47009 15.1254 9.47009C15.0354 9.50009 15.0153 9.33009 14.8953 9.50009C14.8953 9.36009 14.6854 9.42009 14.7154 9.28009C14.5154 9.41009 14.6654 9.07009 14.4254 9.29009C14.6754 9.06009 14.4853 8.97009 14.3253 9.03009C14.4153 8.97009 14.3553 8.91009 14.4753 8.83009C14.4153 8.78009 14.3254 8.78009 14.2154 8.91009C14.4054 8.52009 13.7854 8.94009 14.0954 8.52009C13.8054 8.49009 13.5754 8.43009 13.3754 8.34009C13.6154 8.11009 13.5554 8.47009 13.8054 8.22009C13.5754 8.18009 13.2854 8.31009 13.2154 8.12009C13.2154 8.05009 13.3353 8.04009 13.3953 8.01009C13.1653 7.97009 13.1553 7.73009 12.9053 7.74009C12.9253 7.72009 12.9654 7.71009 12.9954 7.70009C12.9654 7.68009 12.9753 7.61009 12.8653 7.72009H12.9154C12.7954 7.91009 12.4953 7.95009 12.4053 8.03009C12.7553 7.76009 12.3653 7.83009 12.8253 7.50009C12.7853 7.50009 12.7153 7.54009 12.6453 7.61009C12.6453 7.57009 12.6754 7.52009 12.7854 7.46009C12.6454 7.43009 12.5554 7.58009 12.4854 7.50009C12.5354 7.45009 12.5753 7.44009 12.6453 7.39009C12.5053 7.45009 12.3654 7.52009 12.3454 7.41009C12.3854 7.38009 12.4153 7.33009 12.4353 7.35009C12.3053 7.25009 11.9754 7.43009 11.9454 7.21009C12.2054 7.02009 11.9754 7.09009 12.1754 6.89009H12.0554L11.9854 7.01009C11.9354 6.95009 11.7353 7.04009 11.7553 6.93009L11.8754 6.89009L11.7253 6.82009V6.96009C11.5553 7.00009 11.4654 7.22009 11.4454 7.08009C11.4854 7.08009 11.3853 7.02009 11.4753 6.87009C11.3853 6.90009 11.2853 6.94009 11.2953 6.85009C11.3453 6.78009 11.5254 6.64009 11.5554 6.59009C11.3654 6.73009 11.3754 6.50009 11.1654 6.64009C11.2154 6.61009 11.3254 6.51009 11.3454 6.48009L11.1853 6.59009C11.2053 6.52009 11.2154 6.50009 11.3054 6.42009C11.2454 6.31009 11.0754 6.70009 11.0954 6.49009C11.1154 6.49009 11.1254 6.46009 11.1654 6.46009C11.1254 6.31009 10.8954 6.36009 10.8754 6.21009C11.0454 5.98009 11.0054 6.24009 11.1354 6.04009C10.9754 5.95009 10.6354 6.02009 10.5554 5.85009V5.89009C10.2554 6.15009 10.6054 5.66009 10.4053 5.73009C10.4453 5.73009 10.5853 5.59009 10.5453 5.62009C10.5053 5.49009 10.3054 5.52009 10.0854 5.48009L10.1754 5.42009C10.1854 5.31009 10.0854 5.25009 10.0654 5.17009C9.97535 5.23009 9.95535 5.18009 9.87535 5.31009C10.1254 4.73009 9.33535 5.22009 9.53535 4.73009C9.55535 4.75009 9.64535 4.71009 9.62535 4.69009L9.43535 4.63009C9.32535 4.76009 9.37535 4.72009 9.30535 4.84009C9.21535 4.90009 9.12535 4.92009 9.09535 4.89009C9.23535 4.87009 9.29535 4.69009 9.33535 4.60009C9.30535 4.64009 9.25536 4.67009 9.21536 4.71009C9.36536 4.43009 8.95535 4.95009 9.01535 4.71009L9.08535 4.65009C9.01535 4.65009 8.90535 4.70009 8.88535 4.65009C9.01535 4.49009 8.98535 4.62009 9.10535 4.50009C9.04535 4.46009 8.73535 4.67009 8.83535 4.48009C8.89535 4.46009 8.92535 4.49009 8.98535 4.48009C9.10535 4.26009 9.05535 4.30009 9.04535 4.24009L9.03535 4.09009L9.01535 4.16009C8.58535 4.47009 8.81535 4.10009 8.49535 4.26009C8.80535 4.11009 8.64535 4.14009 8.80535 3.99009C8.82535 3.92009 8.84535 3.84009 8.89535 3.80009C8.72535 3.89009 8.92535 3.63009 8.68535 3.76009C8.73535 3.71009 8.64535 3.71009 8.78535 3.59009C8.69535 3.58009 8.70535 3.69009 8.63535 3.75009C8.37535 3.85009 8.65535 3.35009 8.30535 3.47009C8.10535 3.47009 7.91535 3.63009 7.73535 3.62009C7.78535 3.51009 7.94535 3.46009 7.94535 3.46009C7.97535 3.33009 7.91535 3.31009 7.81535 3.32009C7.86535 3.28009 7.89535 3.24009 7.94535 3.16009C7.89535 3.14009 7.73535 3.32009 7.75535 3.20009C7.82535 3.15009 7.92535 3.07009 8.00535 3.03009C7.91535 3.03009 7.77535 3.08009 7.67535 3.08009C7.75535 2.98009 7.83535 2.97009 7.91535 2.93009C7.82535 2.92009 7.69535 2.88009 7.53535 3.00009L7.51535 3.08009C7.51535 3.08009 7.62535 2.95009 7.66535 2.94009C7.82535 2.87009 7.68535 3.05009 7.63535 3.11009H7.56535C7.29535 3.45009 7.74535 3.19009 7.79535 3.28009L7.54535 3.47009L7.79535 3.36009C7.75535 3.43009 7.63535 3.57009 7.57535 3.57009C7.51535 3.73009 7.69535 3.53009 7.61535 3.70009C7.60535 3.72009 7.58535 3.73009 7.57535 3.74009L7.68535 3.72009C7.62535 3.76009 7.53535 3.88009 7.54535 3.82009C7.50535 4.03009 7.84536 3.79009 7.71536 3.99009H7.69535C7.88535 4.04009 7.86535 3.85009 8.14535 3.74009L7.80535 4.20009L7.97535 4.05009C7.97535 4.05009 7.99535 4.10009 7.92535 4.16009C8.08535 4.09009 7.98535 4.08009 8.11535 4.00009C8.02535 4.21009 8.34535 4.09009 8.09535 4.36009C8.23535 4.26009 8.13535 4.21009 8.28535 4.19009C8.02535 4.49009 8.40535 4.21009 8.32535 4.39009C8.16535 4.52009 8.19535 4.39009 8.11535 4.57009C8.38535 4.36009 8.16535 4.73009 8.25535 4.72009C8.44535 4.53009 8.43535 4.74009 8.57535 4.75009C8.50535 4.81009 8.61535 5.00009 8.61535 5.14009L8.58535 5.17009C8.79535 4.99009 8.82535 5.10009 8.92535 5.11009C8.80535 5.22009 8.75535 5.26009 8.67535 5.28009L8.72535 5.33009C8.79535 5.28009 8.84535 5.26009 8.90535 5.27009L8.74535 5.40009C8.81535 5.46009 9.04535 5.36009 9.03535 5.54009C9.17535 5.41009 9.34535 5.09009 9.52535 5.09009C9.45535 5.17009 9.33535 5.30009 9.27535 5.30009C9.29535 5.30009 9.36535 5.27009 9.34535 5.31009L9.18535 5.40009C9.16535 5.49009 9.30535 5.32009 9.32535 5.36009C9.21535 5.46009 9.27535 5.46009 9.18535 5.54009C9.16535 5.54009 9.20535 5.47009 9.14535 5.50009C9.16535 5.55009 9.14535 5.66009 9.07535 5.75009C9.13535 5.69009 9.21535 5.61009 9.25535 5.62009C9.32535 5.68009 9.15535 5.77009 9.13535 5.86009C9.22535 5.80009 9.18535 5.92009 9.34535 5.76009C9.36535 5.78009 9.29535 5.86009 9.25535 5.91009C9.35535 5.87009 9.43535 6.05009 9.56535 5.84009V5.82009C9.56535 5.82009 9.56535 5.82009 9.57535 5.82009C9.84535 5.78009 9.71535 6.14009 9.89535 6.18009L9.84535 6.23009C9.97535 6.23009 10.0253 6.34009 10.1853 6.28009C10.2053 6.30009 10.1354 6.42009 10.0654 6.48009C10.1554 6.49009 10.2154 6.44009 10.2054 6.60009C10.0654 6.64009 10.1454 6.70009 10.0854 6.62009C10.1054 6.73009 10.0354 6.83009 10.2454 6.76009C10.0854 6.87009 10.1254 6.98009 10.1954 6.97009L10.2454 6.83009C10.2954 6.85009 10.3154 6.89009 10.3354 6.93009L10.1453 7.09009C10.0653 7.44009 10.7554 6.97009 10.4954 7.43009C10.6554 7.34009 10.5053 7.27009 10.6853 7.16009C10.7253 7.25009 10.5354 7.56009 10.5554 7.58009C10.5454 7.76009 10.8954 7.40009 10.9154 7.56009C10.9654 7.49009 11.1254 7.31009 11.2454 7.31009C11.2854 7.39009 11.0554 7.65009 10.9654 7.66009C10.9454 7.66009 10.9653 7.62009 10.9753 7.60009C10.9353 7.60009 10.8753 7.60009 10.8354 7.70009L10.9053 7.65009C10.8753 7.74009 10.9654 7.82009 10.8354 7.91009C10.9454 7.90009 10.9554 7.83009 10.9554 7.76009C10.9454 7.93009 11.0754 7.89009 11.0954 8.03009C11.1154 7.98009 11.1754 7.90009 11.1954 7.91009C11.2354 8.11009 11.3653 7.84009 11.4753 7.90009C11.4253 8.04009 11.2253 8.11009 11.3953 8.11009C11.3753 8.22009 11.2354 8.29009 11.1654 8.32009C11.3654 8.27009 11.2254 8.54009 11.2454 8.60009H11.1553C11.2053 8.60009 11.2254 8.62009 11.2454 8.64009L11.3454 8.49009C11.3454 8.49009 11.3654 8.55009 11.3154 8.61009C11.4254 8.55009 11.5054 8.38009 11.6654 8.32009C11.6354 8.41009 11.8254 8.34009 11.6654 8.52009C11.6254 8.37009 11.5053 8.70009 11.3953 8.64009C11.4353 8.64009 11.4454 8.66009 11.4454 8.70009C11.4254 8.72009 11.4053 8.73009 11.3953 8.73009C11.3353 8.97009 11.6254 8.58009 11.7154 8.68009C11.6054 8.76009 11.5554 8.88009 11.5954 8.88009C11.5554 8.84009 11.7354 8.70009 11.8454 8.67009C11.8354 8.80009 11.9654 8.68009 11.9854 8.72009V8.65009C12.0854 8.57009 12.1054 8.61009 12.1754 8.62009C12.1054 8.70009 12.0854 8.63009 12.0654 8.68009C12.2754 8.56009 12.0054 8.96009 12.1754 8.91009C12.1454 9.00009 12.0054 9.09009 11.9854 9.16009C12.1854 9.11009 11.9353 9.37009 12.1153 9.35009C12.2153 9.20009 12.1853 9.23009 12.3653 9.16009L12.1453 9.12009L12.4154 9.02009C12.4154 9.02009 12.2553 9.02009 12.2553 8.97009C12.3953 8.91009 12.3654 8.93009 12.4454 8.81009C12.3054 9.05009 12.6654 8.81009 12.5954 8.99009L12.2754 9.30009C12.2254 9.53009 12.5954 9.30009 12.6354 9.50009L12.6553 9.41009C12.7953 9.30009 12.7453 9.47009 12.8354 9.45009C12.7253 9.55009 12.7154 9.61009 12.6654 9.69009C12.7454 9.61009 12.7454 9.78009 12.9654 9.59009L12.8854 9.78009C12.9254 9.93009 13.2954 9.59009 13.3454 9.72009C13.2054 9.81009 13.1754 9.92009 13.0254 9.94009C13.0554 9.97009 13.0654 10.0201 13.1354 9.94009C13.0854 10.0201 13.3653 9.88009 13.2953 10.0101C13.3553 9.98009 13.4654 9.87009 13.4954 9.91009C13.4754 9.94009 13.4454 9.96009 13.4454 9.96009C13.4954 9.91009 13.5653 9.94009 13.6553 9.80009C13.4253 10.2201 13.9454 10.0401 13.7454 10.4001C13.8454 10.4301 13.9654 10.4801 14.0354 10.5301C13.9954 10.5601 13.9854 10.5801 13.9854 10.5601C13.9754 10.7401 14.3353 10.3101 14.3253 10.5201C14.2053 10.7401 14.1853 10.5601 14.1453 10.6601C13.8153 11.0201 14.3054 10.7301 14.1754 10.9901H14.1354C14.0654 11.1601 14.3854 10.9901 14.4454 11.0901C14.4454 11.0901 14.4153 11.1201 14.3953 11.1401C14.6253 11.0201 14.7854 11.0701 14.9154 11.0901C14.7554 11.2001 14.8053 11.1301 14.6853 11.2801C14.7353 11.3001 14.8953 11.0501 15.0053 11.0801C14.9553 11.1801 14.9453 11.2901 14.7953 11.4401L14.7253 11.3901C14.5753 11.6201 14.8154 11.4601 14.7854 11.5101L14.6954 11.5901C14.7654 11.6001 15.0154 11.4401 15.0654 11.5201L15.1354 11.4701C15.4554 11.3801 15.0154 11.5801 15.2654 11.5301L14.9753 11.6601C15.0653 11.6501 15.3654 11.6401 15.4954 11.6901C15.2054 11.7101 15.0254 11.6901 14.8754 11.7201C14.8854 11.7401 14.9554 11.7701 15.1354 11.7401C15.0954 11.7401 14.9953 11.7401 15.0453 11.7301C15.3353 11.6901 15.5253 11.7201 15.5854 11.7801C15.1054 11.8301 15.2154 11.8701 15.1954 11.9101C15.1454 11.9301 15.0554 11.9501 14.8454 11.9401C15.0654 12.0201 14.6453 12.0201 14.6553 12.0501C15.1153 12.2201 14.6554 12.0701 15.0954 12.2801C15.0954 12.3201 15.0854 12.3201 15.0554 12.3101C14.9454 12.2901 14.8453 12.2601 14.7553 12.2201C14.6353 12.1501 14.6854 12.1501 14.5954 12.0901C14.5454 12.0901 14.4253 11.9801 14.3253 11.9101C14.4553 12.0101 14.4954 12.0701 14.4454 12.0301C14.4954 12.0801 14.5553 12.1201 14.6153 12.1601C14.6953 12.2501 14.6053 12.2101 14.5053 12.1701C14.4153 12.1301 14.3154 12.0801 14.3454 12.2201L14.2754 12.0801C14.2754 12.2001 14.0554 12.2901 14.2654 12.6101C14.2154 12.5801 14.1153 12.5101 14.1153 12.4601C13.9353 12.5601 14.0854 13.0501 13.8154 13.0001L13.7454 12.9101C13.7454 12.9101 13.8454 13.1001 13.7454 13.0601C13.7154 13.0301 13.6753 12.9701 13.6553 12.9801C13.6653 13.0201 13.7253 13.1901 13.6453 13.1801L13.5854 13.0601C13.3454 13.0901 13.5854 13.4901 13.5354 13.6501C13.3054 13.4201 13.1154 13.4501 13.0254 13.4601L12.9954 13.4301C12.8054 13.5601 12.9153 13.8901 12.8653 14.1301C12.5253 13.9701 12.4554 14.3301 12.1654 14.3401C12.2254 14.3601 12.3454 14.5301 12.3454 14.5701C12.2654 14.5601 12.4154 14.8301 12.2054 14.6101H12.2253C11.9853 14.4201 11.9754 14.5401 11.9154 14.5901L12.1853 14.8801C11.6353 14.6201 11.9554 15.4101 11.5154 15.1201C11.5554 15.2201 11.5153 15.2701 11.5453 15.3701L11.3953 15.2201C11.2653 15.2801 11.1953 15.3101 11.1153 15.4601L11.0354 15.3301C10.9554 15.3901 11.3854 15.8501 11.3354 15.9201L11.0954 15.7101C10.9854 15.8301 10.6653 15.7501 10.7553 16.0701C10.7253 16.0401 10.6654 15.9701 10.6754 15.9401C10.6154 15.9901 10.3054 16.0001 10.6354 16.2901C10.4354 16.0901 10.4954 16.3901 10.5154 16.5401L10.3754 16.3801C10.5154 16.6201 10.5654 16.6801 10.5354 16.8001C10.4954 16.8001 10.4054 16.7001 10.4654 16.7101C10.3254 16.6901 10.5554 16.9001 10.4053 16.8901L10.3354 16.7701C10.2654 16.8201 10.3153 16.8701 10.3953 17.0101C10.4153 17.1101 10.2454 17.0901 10.1054 16.9601C10.1754 17.0501 10.2554 17.1901 10.1754 17.1901C10.1154 17.1401 10.1054 17.1001 10.0954 17.0801C9.89535 17.0801 10.1154 17.4001 9.90535 17.3301C9.85535 17.2801 9.82535 17.2601 9.80535 17.2501C9.88535 17.1701 9.96536 17.1201 9.96536 17.1301C9.82536 16.9901 9.73535 17.0301 9.60535 16.7901C9.65535 16.9401 9.78535 17.2601 9.66535 17.2601C9.64535 17.2501 9.63535 17.2401 9.60535 17.2201V17.2001C9.60535 17.2001 9.56535 17.2301 9.57535 17.2601C9.53535 17.2601 9.50535 17.2601 9.48535 17.2701C9.36535 17.1601 9.34535 17.2801 9.31535 17.3101C9.46535 17.4601 9.40535 17.4701 9.56535 17.5601C9.54535 17.5601 9.55535 17.5401 9.56535 17.5101C9.56535 17.5101 9.56535 17.4901 9.56535 17.4801V17.5001C9.56535 17.5001 9.61535 17.4401 9.64535 17.4101C9.69535 17.5101 9.73535 17.6001 9.61535 17.5501C9.69535 17.6601 9.77535 17.7801 9.81535 17.8401C9.56535 17.6801 9.36535 17.6501 9.22535 17.5301C9.20535 17.7101 9.04535 17.8201 9.26535 18.1601C9.26535 18.2201 9.15535 18.1101 9.09535 18.0801C9.08535 18.0401 9.10535 18.0201 9.07535 17.9701C9.09535 18.1001 8.93535 18.1601 9.11535 18.3701C8.95535 18.3501 8.97535 18.1501 8.90535 18.2801L8.85535 18.2101C8.35535 18.0901 9.04535 19.0201 8.42535 18.8301C8.46535 18.8301 8.48535 18.8401 8.51535 18.8701C8.09535 18.9401 8.18535 19.5401 7.66535 19.4901C7.54535 19.5001 7.66536 19.6301 7.71536 19.7701L7.54535 19.6201L7.65535 19.8801C7.68535 20.1201 7.08536 19.6601 7.21536 20.0401L7.33535 20.1301C7.26535 20.1601 7.25535 20.3401 7.13535 20.2101C7.14535 20.2301 7.23535 20.3401 7.15535 20.3001L7.06535 20.2201L7.09535 20.4801C6.94535 20.5101 6.77535 20.1301 6.63535 20.2401C6.62535 20.3201 6.74535 20.6201 6.81535 20.6601C6.83535 20.6501 6.91535 20.6601 7.00535 20.7501V20.8401C7.24535 21.0901 7.46535 21.3801 7.74535 21.4501L7.66535 21.2301L7.80535 21.3301L7.75535 21.4001C7.90535 21.4801 7.82535 21.3601 7.78535 21.2601C7.85535 21.3201 7.90535 21.3501 7.94535 21.3601L7.78535 21.0501C7.89535 21.1401 7.94535 21.2701 8.04535 21.2801C7.96535 21.1401 7.79535 21.1001 7.78535 20.9701C7.93535 21.0501 8.01535 21.1501 7.95535 21.0101C8.02535 21.0701 8.05535 21.1201 8.06535 21.1601C8.02535 21.0501 8.13535 21.0301 8.01535 20.8801C8.19535 20.9801 8.10535 20.7201 8.33535 20.9601C8.29535 20.8901 8.21535 20.7101 8.24535 20.6701C8.46535 21.0101 8.38535 20.5601 8.67535 20.8801C8.46535 20.5801 8.72535 20.6001 8.67535 20.3801C8.69535 20.4001 8.72535 20.4501 8.70535 20.4501C8.77535 20.4301 8.86535 20.4901 8.93535 20.5101C8.73535 20.3001 8.75535 20.1801 8.66535 20.0101C8.92535 20.1501 8.87535 20.2901 9.08535 20.4601C8.91535 20.2901 9.01535 20.1901 8.85535 20.0701C9.02535 20.1501 8.95535 20.0901 9.14535 20.2401C8.89535 19.9701 9.14535 20.1601 9.01535 19.9601C9.20535 20.0301 9.27535 20.1901 9.26535 20.0401C9.37535 20.0901 9.40535 20.2401 9.40535 20.2401L9.35535 20.2501ZM10.5254 18.1701C10.5254 18.1701 10.5054 18.2101 10.4954 18.2101C10.4954 18.2101 10.5054 18.1901 10.5154 18.1701H10.5254ZM10.6654 18.0401C10.6654 18.0401 10.6254 18.0701 10.6054 18.0901C10.5454 18.0401 10.5054 17.9901 10.5154 17.9701C10.5454 18.0101 10.6054 18.0101 10.6654 18.0301V18.0401ZM9.34535 17.2901C9.34535 17.2901 9.38535 17.2701 9.41535 17.2901C9.41535 17.3001 9.40535 17.3201 9.39535 17.3501L9.41535 17.3701C9.41535 17.3701 9.36535 17.3101 9.34535 17.2901Z" fill="black" fill-opacity="0.8"/>
<path d="M9.49805 17.53C9.49805 17.53 9.49805 17.54 9.49805 17.55C9.51805 17.55 9.52804 17.56 9.54804 17.57L9.50804 17.52L9.49805 17.53Z" fill="black" fill-opacity="0.8"/>
<path d="M9.48633 5.84007C9.48633 5.84007 9.48632 5.83007 9.50632 5.82007V5.84007H9.48633Z" fill="black" fill-opacity="0.8"/>
<path d="M12.8271 16.44L12.7871 16.4L12.8171 16.45L12.8271 16.44Z" fill="black" fill-opacity="0.8"/>
<path d="M9.24805 4.58003C9.24805 4.58003 9.26805 4.55003 9.27805 4.53003C9.27805 4.54003 9.25805 4.56003 9.24805 4.58003Z" fill="black" fill-opacity="0.8"/>
<path d="M8.95508 4.22012V4.12012C8.95508 4.12012 8.95508 4.20012 8.95508 4.22012Z" fill="black" fill-opacity="0.8"/>
<path d="M8.77508 3.90002C8.77508 3.90002 8.72508 3.94002 8.70508 3.96002L8.77508 3.90002Z" fill="black" fill-opacity="0.8"/>
<path d="M12.916 7.69011C12.916 7.69011 12.916 7.69011 12.936 7.69011C12.986 7.69011 12.956 7.68011 12.916 7.69011Z" fill="black" fill-opacity="0.8"/>
<path d="M11.3848 6.85004C11.3848 6.85004 11.4648 6.82004 11.4948 6.82004C11.4948 6.79004 11.4748 6.77004 11.3848 6.85004Z" fill="black" fill-opacity="0.8"/>
<path d="M14.4182 8.82007L14.4082 8.83007H14.4182V8.82007Z" fill="black" fill-opacity="0.8"/>
<path d="M11.548 6.88007C11.548 6.83007 11.528 6.82007 11.498 6.82007C11.498 6.85007 11.508 6.88007 11.548 6.88007Z" fill="black" fill-opacity="0.8"/>
<path d="M7.76633 2.7501V2.7301C7.76633 2.7301 7.74633 2.7501 7.73633 2.7501H7.76633Z" fill="black" fill-opacity="0.8"/>
<path d="M7.73508 2.76001H7.70508C7.70508 2.76001 7.71508 2.77001 7.73508 2.76001Z" fill="black" fill-opacity="0.8"/>
<path d="M7.63477 2.7701H7.70477C7.70477 2.7701 7.68477 2.7301 7.63477 2.7701Z" fill="black" fill-opacity="0.8"/>
<path d="M8.02539 3.1501L8.08539 3.1001C8.08539 3.1001 8.05539 3.1301 8.02539 3.1501Z" fill="black" fill-opacity="0.8"/>
<path d="M8.14789 3.23009C8.14789 3.23009 8.20789 3.05009 8.13789 3.06009L8.08789 3.10009C8.18789 3.04009 8.02789 3.30009 8.14789 3.23009Z" fill="black" fill-opacity="0.8"/>
<path d="M7.89529 4.32006L7.85529 4.19006C7.81529 4.26006 7.75529 4.36006 7.70529 4.33006C7.63529 4.61006 7.81529 4.18006 7.89529 4.31006V4.32006Z" fill="black" fill-opacity="0.8"/>
<path d="M8.07507 4.6701C8.00507 4.6501 7.99508 4.7501 7.95508 4.7801C8.03508 4.7601 8.05507 4.7501 8.07507 4.6701Z" fill="black" fill-opacity="0.8"/>
<path d="M9.95836 6.55005L9.81836 6.68005C9.86836 6.70005 9.86836 6.63005 9.95836 6.55005Z" fill="black" fill-opacity="0.8"/>
<path d="M11.0177 6.21009L11.0677 6.09009L10.9277 6.20009L11.0177 6.21009Z" fill="black" fill-opacity="0.8"/>
<path d="M10.2685 7.39001H10.2285L10.3385 7.40001L10.2685 7.39001Z" fill="black" fill-opacity="0.8"/>
<path d="M13.4663 10.5001L13.6263 10.3201C13.5763 10.3201 13.3763 10.5101 13.4663 10.5001Z" fill="black" fill-opacity="0.8"/>
<path d="M14.8954 11.5801C14.7954 11.6501 14.7354 11.7001 14.8654 11.6601C14.8654 11.6401 14.9354 11.5801 14.8954 11.5801Z" fill="black" fill-opacity="0.8"/>
<path d="M11.8484 14.74L11.8284 14.66L11.8184 14.75L11.8484 14.74Z" fill="black" fill-opacity="0.8"/>
</svg>
