<svg width="24" height="24" viewBox="0 0 24 24" fill="none" xmlns="http://www.w3.org/2000/svg">
<path d="M12 6.50236C8.95978 6.50236 6.50621 8.95593 6.50621 11.9961C6.50621 15.0363 8.95978 17.4899 12 17.4899C15.0401 17.4899 17.4937 15.0363 17.4937 11.9961C17.4937 8.95593 15.0401 6.50236 12 6.50236ZM12 15.5666C10.0339 15.5666 8.42943 13.9622 8.42943 11.9961C8.42943 10.03 10.0339 8.42557 12 8.42557C13.966 8.42557 15.5705 10.03 15.5705 11.9961C15.5705 13.9622 13.966 15.5666 12 15.5666ZM17.7187 4.997C17.0089 4.997 16.4357 5.57022 16.4357 6.28004C16.4357 6.98986 17.0089 7.56307 17.7187 7.56307C18.4285 7.56307 19.0018 6.99254 19.0018 6.28004C19.002 6.11149 18.9689 5.94455 18.9045 5.78879C18.8401 5.63303 18.7456 5.49151 18.6264 5.37232C18.5072 5.25314 18.3657 5.15864 18.21 5.09424C18.0542 5.02983 17.8873 4.99679 17.7187 4.997ZM22.7089 11.9961C22.7089 10.5175 22.7223 9.05236 22.6393 7.57647C22.5562 5.86218 22.1651 4.34075 20.9116 3.08718C19.6553 1.83093 18.1366 1.44254 16.4223 1.3595C14.9437 1.27647 13.4785 1.28986 12.0026 1.28986C10.5241 1.28986 9.05889 1.27647 7.583 1.3595C5.86871 1.44254 4.34728 1.83361 3.09371 3.08718C1.83746 4.34343 1.44907 5.86218 1.36603 7.57647C1.283 9.05504 1.29639 10.5202 1.29639 11.9961C1.29639 13.472 1.283 14.9399 1.36603 16.4158C1.44907 18.13 1.84014 19.6515 3.09371 20.905C4.34996 22.1613 5.86871 22.5497 7.583 22.6327C9.06157 22.7158 10.5267 22.7024 12.0026 22.7024C13.4812 22.7024 14.9464 22.7158 16.4223 22.6327C18.1366 22.5497 19.658 22.1586 20.9116 20.905C22.1678 19.6488 22.5562 18.13 22.6393 16.4158C22.725 14.9399 22.7089 13.4747 22.7089 11.9961ZM20.3517 18.3122C20.1562 18.7997 19.9205 19.164 19.5428 19.539C19.1651 19.9166 18.8035 20.1524 18.316 20.3479C16.9071 20.9077 13.5616 20.7818 12 20.7818C10.4384 20.7818 7.09014 20.9077 5.68121 20.3506C5.19371 20.155 4.82943 19.9193 4.45443 19.5416C4.07675 19.164 3.84103 18.8024 3.6455 18.3149C3.08835 16.9033 3.21425 13.5577 3.21425 11.9961C3.21425 10.4345 3.08835 7.08629 3.6455 5.67736C3.84103 5.18986 4.07675 4.82557 4.45443 4.45057C4.8321 4.07557 5.19371 3.83718 5.68121 3.64165C7.09014 3.0845 10.4384 3.21039 12 3.21039C13.5616 3.21039 16.9098 3.0845 18.3187 3.64165C18.8062 3.83718 19.1705 4.0729 19.5455 4.45057C19.9232 4.82825 20.1589 5.18986 20.3544 5.67736C20.9116 7.08629 20.7857 10.4345 20.7857 11.9961C20.7857 13.5577 20.9116 16.9033 20.3517 18.3122Z" fill="black" fill-opacity="0.4"/>
</svg>
