<svg width="32" height="32" viewBox="0 0 32 32" fill="none" xmlns="http://www.w3.org/2000/svg">
<path d="M30.8678 15.7625C30.8144 15.6425 30.8144 15.5358 30.8144 15.4291L30.5744 15.5491C30.6144 15.4291 30.6144 15.3225 30.7211 15.3225C30.5611 15.1892 30.3211 15.4158 30.1078 15.1625C30.2278 15.0025 29.9744 14.6558 30.2944 14.6025C30.1878 15.1225 30.6144 14.5492 30.6678 14.9892C30.6278 14.9092 30.6278 14.8025 30.6678 14.6825C30.7078 14.6691 30.7344 14.6958 30.7478 14.7358C31.0278 14.2425 30.3878 14.5092 30.4011 13.9892C30.5745 14.0558 30.7345 13.8691 30.6945 13.7891C30.6945 14.0025 30.4011 13.8825 30.2678 13.6958C30.4011 13.3625 30.1611 13.3358 30.1744 13.1625L30.1078 13.3625C29.9345 13.2958 29.9478 13.1358 29.8944 12.8958C30.0278 12.8825 29.9878 13.1092 30.0544 13.0292C29.7478 12.7758 30.3744 12.4558 30.1611 12.0958C30.2811 11.9358 30.4944 12.0825 30.5744 11.9358C30.3478 11.5358 30.8144 11.4958 30.6278 11.0825C30.3878 11.2025 30.4411 11.2291 30.2144 10.9225L30.3878 11.6158L30.0411 11.1758C30.0411 11.3891 30.1878 11.6158 30.1478 11.7358C29.9478 11.5225 30.0144 11.5491 29.8144 11.6425C30.1744 11.3625 29.6011 11.0825 29.8411 10.7491H30.4278C30.6944 10.2691 30.1211 9.88248 30.2678 9.22915L30.1611 9.44249C29.9211 9.36249 30.1345 9.0425 30.0278 8.82916C30.2278 8.8425 30.2944 8.72246 30.4144 8.62913C30.3478 8.62913 30.3478 8.52247 30.3211 8.38914C30.2945 8.24247 30.2411 7.98916 30.0411 7.98916C30.1211 7.84249 30.2011 7.68247 30.2411 7.50914C30.1744 7.0958 29.8944 6.96249 29.6278 6.90916C29.3611 6.85583 29.1078 6.81581 28.9344 6.64248C29.2011 6.58914 29.0811 6.30912 29.4944 6.45579C29.3211 6.30912 29.2411 6.18913 29.1344 6.2958C29.1344 6.1358 28.5878 6.17581 28.5611 5.93581C28.4411 5.96248 28.3078 6.12249 28.1478 5.98916C28.1478 5.94916 28.2011 5.90916 28.2011 5.90916C28.1478 5.98916 27.8678 5.84246 27.8944 6.12246C27.7744 5.26912 26.5878 5.42915 26.3611 4.77582C25.9745 4.69582 25.5078 4.6025 25.1611 4.53583C25.2011 4.4825 25.1878 4.44248 25.2411 4.48248C24.8011 4.18915 24.8144 4.96249 24.3344 4.65582C24.1211 4.29582 24.6544 4.53581 24.5078 4.38914C24.5478 3.72247 23.8278 4.3758 23.4944 3.96246L23.5878 3.93581C23.3078 3.70915 22.8545 4.12247 22.4011 4.09581C22.4011 4.09581 22.4278 4.04246 22.4011 4.00246C22.0811 4.3358 21.5078 4.49582 21.0944 4.65582C21.1878 4.38916 21.2678 4.4958 21.1478 4.2558C20.9611 4.32247 21.2678 4.65579 20.8944 4.78912C20.7478 4.68246 20.4411 4.62916 20.3478 4.36249L20.7211 4.26915C20.4544 3.96248 20.2411 4.38913 20.0278 4.37579V4.2158C19.4545 4.44247 19.5611 4.80246 18.9878 5.00246L19.0944 5.08246C18.9344 5.57579 18.7478 4.98914 18.5611 5.38914L18.2944 5.06915C18.1344 5.26915 17.7611 5.76247 17.4944 6.05581C17.5078 5.66914 17.8544 5.32249 18.0411 5.02916C17.8411 5.13582 17.3611 5.4158 17.3744 5.66913C17.4278 5.58913 17.4811 5.44246 17.5878 5.45579C17.5078 5.85579 17.3078 6.18913 16.9478 6.41579C16.7345 6.09579 16.5611 6.17583 16.3878 6.28249C16.2144 6.41583 16.0411 6.48246 15.9744 6.12246C15.8678 6.26912 15.7478 6.16247 15.6811 6.05581C15.5344 5.85581 15.1478 5.42915 14.6545 5.14915C14.6411 5.82915 14.4011 5.02913 14.1478 5.58913C13.9611 5.52247 13.8944 5.48249 13.8811 5.44249C13.7478 5.22915 13.6144 5.02916 13.4544 4.82916C13.3744 4.6025 13.7078 4.78916 13.7478 4.65582C13.3078 4.41582 13.6678 4.33581 13.4144 4.05581C13.3878 4.29581 13.1344 4.26914 12.8944 4.09581C12.9878 4.22914 13.0811 4.36247 13.1611 4.50914C12.4144 4.5758 12.7744 3.8158 12.0011 3.92247C12.0944 3.86913 12.1744 3.82914 12.2678 3.80247C11.8944 3.80247 10.9344 3.48249 10.5344 3.94916C10.4811 3.86916 10.4144 3.6958 10.5744 3.66913C9.69442 3.48246 8.68112 4.09581 8.02779 3.89581L8.06779 3.73582C7.90779 3.80249 7.82779 4.0558 7.61446 3.92247C7.61446 3.8558 7.65442 3.76247 7.57442 3.76247C7.49442 3.81581 7.21446 4.09581 6.98779 4.05581L7.12109 3.85582C6.25442 3.85582 5.98777 4.5758 5.42777 4.92247C5.26777 4.50913 4.60112 4.62913 4.28112 4.74913V4.68248C3.33446 5.10914 3.06777 5.8558 2.46777 6.58913C2.25444 6.64247 1.96111 6.76248 1.76111 7.01581C1.54777 7.26914 1.41443 7.62914 1.41443 8.01581C1.40109 8.49581 1.40109 8.6025 1.37443 8.86916C1.36109 9.09583 1.3211 9.32248 1.25443 9.52248C1.33443 9.40248 1.60111 9.53581 1.64111 9.68248C1.54778 9.86914 1.94777 10.2025 1.54777 10.1625V10.0958C1.1611 10.2425 1.26777 10.6158 1.25443 10.9225L1.78776 10.9758C1.01442 11.7625 2.06777 13.0158 1.38777 13.4425C1.52111 13.6292 1.52112 13.8691 1.65446 14.0558H1.37443C1.30776 14.5625 1.26776 14.8291 1.33443 15.4691L1.13444 15.3358C1.1211 15.6958 1.94776 15.7891 1.9611 16.1358L1.53442 16.2425C1.53442 16.8825 1.17443 17.5225 1.54777 18.1492C1.4811 18.1492 1.36111 18.1225 1.34778 18.0158C1.34778 18.3091 1.06778 19.1758 1.64111 19.0692C1.26778 19.0692 1.60112 19.7225 1.77445 20.0692L1.49442 20.0158C1.85442 20.3091 1.94776 20.3091 2.04109 20.7225C2.01443 20.7891 1.90777 20.8025 1.8811 20.7491C1.8411 20.9758 2.13443 20.9625 2.0011 21.3091L1.82776 21.1625C1.80109 21.4958 1.90778 21.4691 2.10778 21.6425C2.21445 21.8425 2.04109 22.2691 1.78776 22.3091C1.94776 22.3491 2.14779 22.5358 2.06779 22.7225C1.97445 22.7491 1.90777 22.6825 1.8811 22.6425C1.69443 23.1891 2.20111 23.4558 1.93445 23.8425C1.84111 23.8425 1.80112 23.8692 1.77445 23.9092C1.77445 23.4692 1.80112 23.1225 1.81445 23.1492C1.56112 23.1492 1.50776 23.4958 1.16109 23.2158C1.36109 23.4958 1.77446 23.9758 1.65446 24.3225C1.62779 24.3358 1.60111 24.3492 1.56111 24.3625L1.53442 24.3225C1.50775 24.4025 1.53442 24.4692 1.57442 24.5358C1.53442 24.6425 1.49442 24.7092 1.49442 24.8158C1.38776 24.8425 1.36112 24.9358 1.36112 25.0558C1.36112 25.2425 1.36112 25.4558 1.36112 25.5891C1.64112 25.5358 1.60109 25.8958 1.82776 25.5091C1.81442 25.5491 1.78776 25.4692 1.78776 25.2825C1.78776 25.2425 1.78777 25.2025 1.76111 25.1758H1.78776C1.78776 25.0691 1.78778 24.9092 1.77445 24.7358C1.92112 24.8958 2.0411 24.9758 1.8811 25.2558C2.06777 25.3758 2.2411 25.4825 2.33443 25.5225C1.94776 25.8691 1.72111 26.7225 1.52111 26.9758C1.68111 27.3358 1.80111 27.6425 2.05444 27.8825C2.32111 28.1358 2.72111 28.2158 3.01444 28.0025C3.21444 27.9758 3.16109 28.1758 3.20109 28.2558C3.08109 28.3091 2.94778 28.2692 2.85445 28.3225C3.06778 28.3225 3.36109 28.3225 3.57442 28.2025C3.80109 28.0692 4.00109 27.8825 4.04109 27.6558C4.44109 27.6425 3.78776 28.1491 4.37443 27.8025L4.29443 27.9758C4.4011 28.0025 4.53443 27.9758 4.66776 27.9092C4.97443 27.7758 5.2411 27.5492 5.46777 27.3225C5.58777 27.1758 5.70776 27.0025 5.82776 26.8425C6.08109 26.5225 6.42776 26.2425 7.0011 26.4425C6.92109 26.4158 6.8811 26.4158 6.8411 26.3491C7.46777 26.3091 8.06779 26.1492 8.69445 26.0292C9.32112 25.9358 9.97442 25.9358 10.5344 26.2825C10.8544 26.4425 10.9211 26.2291 11.1744 26.0958V26.4025C11.3211 26.3092 11.4678 26.2425 11.6145 26.1625C12.2145 26.0692 12.2011 27.1225 12.9478 26.9625V26.7491C13.1611 26.8691 13.6811 27.0025 13.5211 27.1891C13.5611 27.1758 13.6944 27.0425 13.7211 27.1891L13.6411 27.3225C13.8544 27.3358 14.0544 27.3758 14.2678 27.4158C14.5611 27.7758 13.8278 27.8691 14.3344 28.2958C14.5744 28.4025 15.1878 28.3891 15.1878 28.2558C15.1078 28.1891 15.0411 28.0158 15.1344 27.8825L15.3744 27.9625C15.5078 27.8291 15.6411 27.6958 15.7611 27.5625C15.7611 27.5891 15.7478 27.6291 15.7611 27.6291C15.7878 27.6025 15.8011 27.5625 15.8144 27.5358C15.8278 27.5092 15.8411 27.4958 15.8544 27.4691C15.8811 27.4291 15.9078 27.4025 15.9211 27.3625C15.9078 27.3892 15.8811 27.4158 15.8544 27.4291C15.8544 27.4291 15.8411 27.4425 15.8278 27.4558C15.8811 27.3491 15.9211 27.2425 15.9211 27.1092H16.0144L15.9211 27.0958C15.9211 27.0691 15.9211 27.0558 15.9211 27.0292C15.9878 27.0292 16.0544 27.0291 16.0811 27.0558C16.2811 27.0025 15.9344 27.0025 16.1611 26.9625C16.2011 26.9625 16.2144 26.9625 16.2278 26.9625L16.1078 26.9092C16.1078 26.9092 16.2678 26.9092 16.3211 26.9092H16.2944C16.2944 26.9092 16.3078 26.9491 16.3211 26.9625L16.3478 26.9092C16.3478 26.9092 16.3611 26.9091 16.3478 26.9225C16.5878 26.8291 16.0411 26.7758 16.3478 26.7358H16.3744C16.2278 26.6158 16.0678 26.7358 15.7078 26.6291L16.4678 26.5625H16.1611C16.1611 26.5625 16.2011 26.5091 16.3211 26.5091C16.1078 26.4558 16.1878 26.5091 15.9878 26.4825C16.2678 26.4158 15.8544 26.3091 16.3478 26.2958C16.1211 26.2691 16.1744 26.3625 16.0011 26.2958C16.5211 26.2825 15.9078 26.2158 16.1478 26.1625C16.4144 26.1758 16.2811 26.2425 16.5211 26.1758C16.0678 26.1358 16.6144 26.0558 16.5211 26.0158C16.4144 26.0158 16.3611 26.0158 16.3344 25.9892C16.4411 25.9892 16.5078 26.0025 16.5211 26.0158C16.5744 26.0158 16.6411 26.0158 16.7211 26.0158C16.7211 26.0025 16.4544 26.0025 16.3344 25.9892C16.2678 25.9492 16.3344 25.8825 16.2544 25.8292C16.3744 25.8292 16.4544 25.6691 16.5878 25.5891H16.6545C16.2811 25.5891 16.3611 25.4958 16.2811 25.4425C16.5078 25.4425 16.5878 25.4425 16.6811 25.4825V25.4291C16.5611 25.4291 16.4944 25.4025 16.4544 25.3625H16.7345C16.7345 25.3625 16.4144 25.2291 16.6011 25.1358C16.3478 25.1358 15.8944 25.2158 15.7211 25.1092C15.8544 25.1092 16.0944 25.1091 16.1478 25.1225C16.1344 25.1225 16.0278 25.0958 16.0944 25.0692L16.3211 25.1092C16.4278 25.0692 16.1211 25.0825 16.1478 25.0558C16.3478 25.0558 16.2944 25.0292 16.4411 25.0292C16.4544 25.0292 16.3611 25.0558 16.4411 25.0692C16.4811 25.0292 16.5878 24.9891 16.7478 24.9625C16.6411 24.9625 16.4811 24.9625 16.4544 24.9358C16.4411 24.8691 16.6944 24.9092 16.7878 24.8692C16.6544 24.8558 16.7878 24.8025 16.4944 24.8025C16.4944 24.7758 16.6278 24.7758 16.7078 24.7625C16.5744 24.7225 16.6678 24.5891 16.3611 24.6291H16.3344C16.0411 24.5091 16.5078 24.3758 16.3744 24.2558H16.4678C16.3611 24.1891 16.4011 24.0958 16.1878 24.0425C16.1878 24.0158 16.3744 23.9891 16.4811 24.0025C16.4011 23.9491 16.2944 23.9358 16.4544 23.8558C16.6278 23.9091 16.6011 23.8425 16.5744 23.9092C16.6544 23.8425 16.8144 23.8158 16.5478 23.7358C16.8011 23.7625 16.8678 23.6825 16.7878 23.6425L16.6011 23.6958C16.6011 23.6958 16.5878 23.6291 16.6011 23.5891H16.9344C17.3344 23.4558 16.2411 23.3358 16.9344 23.2291C16.7078 23.1891 16.7744 23.3091 16.4944 23.2691C16.5344 23.2025 17.0144 23.1358 17.0144 23.1092C17.2011 23.0158 16.5345 23.0158 16.6545 22.9225C16.5345 22.9225 16.2144 22.9492 16.1078 22.8692C16.1478 22.8025 16.6011 22.7892 16.6945 22.8292C16.6945 22.8425 16.6678 22.8558 16.6278 22.8558C16.6678 22.8825 16.7211 22.9091 16.8544 22.8825H16.7345C16.8545 22.8425 16.8411 22.7491 17.0411 22.7625C16.9344 22.7091 16.8411 22.7358 16.7878 22.7758C16.9611 22.6825 16.7878 22.6425 16.9078 22.5491C16.8411 22.5625 16.7078 22.5758 16.7078 22.5491C16.8544 22.4158 16.4811 22.4958 16.4278 22.4025C16.6144 22.3492 16.8544 22.4158 16.7078 22.3358C16.8278 22.2825 17.0278 22.3358 17.1211 22.3358C16.8944 22.2558 17.2678 22.1758 17.3078 22.1358L17.4011 22.1758C17.4011 22.1758 17.3478 22.1225 17.3478 22.1092L17.1078 22.1358C17.1078 22.1358 17.1478 22.0825 17.2544 22.0958C17.0944 22.0691 16.8544 22.1225 16.6411 22.0692C16.7611 22.0292 16.5078 21.9625 16.8278 21.9492C16.7211 22.0558 17.1478 21.9492 17.2011 22.0292C17.1611 22.0158 17.1611 21.9891 17.2011 21.9625C17.2411 21.9625 17.2678 21.9625 17.2811 21.9625C17.5611 21.8558 16.9211 21.9092 16.9344 21.8158C17.1078 21.8292 17.2678 21.7892 17.2278 21.7758C17.2278 21.8158 16.9344 21.8025 16.8011 21.7625C16.9344 21.6958 16.6944 21.6825 16.7078 21.6558L16.6411 21.6958C16.4678 21.6825 16.4811 21.6425 16.4278 21.6025C16.5611 21.6025 16.5211 21.6425 16.5878 21.6291C16.2811 21.5758 16.9078 21.5092 16.6945 21.4425C16.8145 21.4025 17.0278 21.4425 17.1078 21.4158C16.8811 21.3358 17.3478 21.3225 17.1611 21.2425C16.9211 21.2692 16.9744 21.2691 16.7478 21.2158L16.9211 21.3625L16.5744 21.2691C16.5744 21.2691 16.7211 21.3625 16.6811 21.3891C16.4811 21.3491 16.5478 21.3491 16.3478 21.3758C16.7078 21.3225 16.1344 21.2558 16.3744 21.1891H16.9611C17.2278 21.0958 16.6544 21.0158 16.8011 20.8825L16.6945 20.9225C16.4545 20.9091 16.6678 20.8425 16.5611 20.8025C16.7611 20.8025 16.8278 20.7758 16.9478 20.7625C16.8011 20.7625 16.9611 20.6692 16.5611 20.6558L16.8278 20.6025C16.9344 20.4958 16.2678 20.4825 16.3344 20.3758C16.5478 20.4025 16.6944 20.3625 16.8411 20.4291C16.8411 20.3891 16.8811 20.3625 16.7478 20.3625C16.8678 20.3358 16.4811 20.2692 16.6678 20.2425C16.5744 20.2292 16.3744 20.2291 16.3878 20.1891C16.4278 20.1891 16.4811 20.1891 16.4811 20.1891C16.3878 20.1891 16.3478 20.1225 16.1344 20.1625C16.7478 20.0558 16.0945 19.8692 16.6145 19.7758C16.5478 19.6958 16.4811 19.6158 16.4678 19.5491C16.5211 19.5491 16.5611 19.5491 16.5478 19.5491C16.7344 19.4558 15.9878 19.4958 16.1878 19.3891C16.5078 19.3358 16.3611 19.4425 16.4811 19.4158C17.1344 19.4025 16.3878 19.2825 16.7745 19.2158H16.8144C17.0411 19.1758 16.5745 19.0958 16.6145 19.0158C16.6145 19.0158 16.6678 19.0158 16.7078 19.0158C16.3744 18.9491 16.2678 18.8425 16.1744 18.7491C16.4278 18.7758 16.3078 18.7892 16.5611 18.7758C16.5211 18.7358 16.1478 18.7758 16.0678 18.7091C16.2011 18.6825 16.3344 18.6292 16.6011 18.6158V18.6825C16.9744 18.6425 16.6011 18.5891 16.6678 18.5491H16.8278C16.7744 18.4425 16.3878 18.4425 16.4144 18.3225H16.2944C15.9078 18.2692 16.5078 18.2825 16.2278 18.2158H16.6278C16.5344 18.1491 16.2411 18.0425 16.1744 17.9625C16.4678 18.0025 16.6144 18.0958 16.7878 18.1492C16.7878 18.1092 16.7478 18.0558 16.6411 18.0158C16.6544 18.0158 16.6678 18.0291 16.6411 18.0425C16.3344 17.9891 16.1744 17.9225 16.1878 17.8292C16.9478 17.8425 16.3744 17.6025 16.9744 17.5491C16.6944 17.4025 17.0944 17.2558 17.0544 17.0692C16.4544 17.1358 17.0411 17.0158 16.4278 17.0292C16.3878 16.9892 16.4011 16.9758 16.4278 16.9758L16.7878 16.8558C16.9611 16.8291 16.9211 16.8958 17.0544 16.8958C17.1078 16.8025 17.3078 16.8558 17.4811 16.8025C17.2678 16.8025 17.1744 16.7758 17.2544 16.7225L16.9744 16.7891C16.6544 16.6691 17.4811 16.6825 17.1611 16.5491L17.3478 16.5891C17.2278 16.5225 17.3478 16.3492 16.8544 16.2825C16.9211 16.2825 17.0944 16.2558 17.1344 16.2825C17.2144 16.1225 16.6144 15.9358 16.9078 15.8158H17.0544C17.0544 15.8158 16.7744 15.7758 16.9211 15.7358C16.9878 15.7358 17.0678 15.7358 17.0811 15.7358C17.0278 15.7225 16.8144 15.6558 16.9078 15.6158L17.0811 15.6425C17.2811 15.4958 16.6678 15.4158 16.5744 15.2825C17.0144 15.2825 17.1611 15.1625 17.2278 15.1092H17.2944C17.3478 14.9358 16.9344 14.8158 16.7611 14.6558C17.2411 14.5492 16.9611 14.3092 17.2278 14.1492C17.1478 14.1758 16.8811 14.1491 16.8411 14.1225C16.9344 14.0825 16.5344 14.0158 16.9344 14.0292C17.3344 14.0158 17.2278 13.9358 17.2411 13.8692H16.7078C17.4811 13.6958 16.4278 13.4425 17.1078 13.3491C16.9745 13.3091 16.9744 13.2691 16.8411 13.2291H17.1211C17.1878 13.1225 17.2278 13.0691 17.1611 12.9358L17.3611 12.9625C17.3745 12.8825 16.5478 12.8691 16.5344 12.8025L16.9611 12.7758C16.9611 12.6425 17.3211 12.5091 16.9478 12.3891C17.0145 12.3891 17.1344 12.3891 17.1478 12.4158C17.1478 12.3491 17.4278 12.1758 16.8544 12.2025C17.2278 12.2025 16.8944 12.0691 16.7211 12.0025H17.0011C16.6411 11.9491 16.5478 11.9492 16.4544 11.8692C16.4811 11.8558 16.5878 11.8558 16.6145 11.8692C16.6545 11.8292 16.3611 11.8291 16.4944 11.7491L16.6678 11.7758C16.6944 11.7092 16.5878 11.7091 16.3878 11.6825C16.2811 11.6425 16.4544 11.5491 16.7078 11.5491C16.5478 11.5491 16.3478 11.5091 16.4278 11.4691C16.5211 11.4691 16.5878 11.4692 16.6145 11.4825C16.8011 11.3758 16.2944 11.3092 16.5611 11.2425C16.6544 11.2425 16.6944 11.2425 16.7211 11.2425C16.7211 11.3358 16.6944 11.4025 16.6811 11.4025C16.9344 11.4025 16.9878 11.3358 17.3344 11.3891C17.1344 11.3358 16.7211 11.2292 16.8411 11.1625C16.8678 11.1625 16.8944 11.1625 16.9344 11.1625H16.9611C16.9611 11.1625 16.9611 11.1358 16.9211 11.1225C16.9611 11.0958 17.0011 11.0825 17.0011 11.0692C17.2144 11.0692 17.1211 10.9892 17.1211 10.9492C16.8411 10.9492 16.8811 10.9092 16.6545 10.9492C16.6678 10.9492 16.6945 10.9491 16.6945 10.9758C16.6945 10.9758 16.6944 10.9758 16.7211 10.9892C16.7211 10.9892 16.7078 10.9892 16.6945 10.9892C16.6945 11.0158 16.7078 11.0425 16.7078 11.0825C16.5611 11.0558 16.4411 11.0292 16.6011 10.9892C16.4144 10.9758 16.2411 10.9491 16.1478 10.9358C16.5344 10.8825 16.7478 10.7892 16.9878 10.7758C16.8278 10.6692 16.8811 10.5225 16.3611 10.4425C16.2945 10.4158 16.5078 10.4025 16.6011 10.3891C16.6544 10.4025 16.6411 10.4292 16.7211 10.4425C16.5878 10.3758 16.6678 10.2558 16.2944 10.2425C16.4544 10.1625 16.6278 10.2825 16.5744 10.1758H16.6811C17.2678 9.9758 15.7344 9.84248 16.4944 9.60248C16.4544 9.61581 16.4278 9.62913 16.3611 9.62913C16.6945 9.36246 16.0544 9.06914 16.5744 8.80247C16.6811 8.72247 16.4411 8.72246 16.2678 8.66913H16.5744L16.2278 8.57583C16.2011 8.56249 16.1878 8.54916 16.1878 8.53583C16.5211 8.45583 16.8278 8.29581 17.0544 8.09581L17.7345 7.64248L18.1744 7.42914C18.7744 7.16247 19.4144 7.02916 20.0144 6.90916C20.4544 6.82916 19.9878 5.9225 20.6811 6.2025L20.6011 6.56248C21.4411 5.94915 22.4678 6.28247 23.4011 6.05581C23.3345 6.12247 23.3211 6.21583 23.2411 6.2025C23.4011 6.46916 23.9478 6.30912 23.9878 6.12246C24.1211 6.17579 23.9878 6.30913 24.0544 6.41579C24.2011 6.60246 24.6011 6.22915 24.6411 6.48248C24.6411 6.52248 24.5744 6.5358 24.5344 6.54913C24.6811 6.46913 25.0811 6.76246 25.0544 6.45579C25.3478 6.66912 25.7211 6.58914 25.9211 6.84247C26.2278 6.64247 26.3744 7.25581 26.6411 6.89581C26.4144 7.26915 26.9611 7.52248 27.2811 7.48248C27.1345 7.54915 27.3611 7.70914 27.1744 7.80247C27.3611 7.94914 27.6011 8.02916 27.7078 7.82916C27.7744 8.22916 27.8411 8.1358 27.9611 8.1358C28.0944 8.1358 28.1878 8.22913 27.8278 8.3358C27.8544 8.3358 27.8811 8.36247 27.9211 8.38914C27.9478 8.45581 27.9744 8.58914 28.0011 8.68248C28.0544 8.89581 28.0944 9.0958 28.1478 9.2958C28.2278 9.6958 28.2944 10.0958 28.3478 10.4825C27.8944 10.4558 28.3078 9.62916 27.8278 9.65582C28.0144 10.3892 28.4011 10.8158 28.2944 11.5358C28.2278 11.7225 28.0945 11.4292 28.0278 11.3625C28.2145 12.0958 27.9878 12.7758 28.2278 13.4291C28.1878 13.4291 28.1345 13.3625 28.1078 13.2958C28.1211 13.4291 28.0411 13.5892 28.2411 13.5758L28.1878 13.4558C28.4811 13.2558 28.8144 13.9625 28.9611 13.9892C28.3744 13.7758 28.8145 14.6292 28.0678 14.2825C28.1078 14.3625 28.2011 14.4691 28.3344 14.4558C28.2944 14.5758 28.2144 14.6158 28.0544 14.4958C28.1611 14.9625 28.3878 14.7891 28.3744 15.2158C28.2811 15.2158 28.2411 15.1358 28.1211 15.0825C28.3211 15.2958 28.5078 15.5091 28.4278 15.8558C28.3744 15.8291 28.2944 15.8692 28.2944 15.7758C28.3211 16.3758 28.8144 16.8025 28.6278 17.4691C28.2011 17.2691 28.4811 17.6958 28.1078 17.7358L28.2144 18.0958L28.4011 17.9492C28.4011 18.2558 28.6678 18.5358 28.5478 18.8025L28.3878 18.5758L28.4544 19.1625L28.6011 18.8292C28.7878 19.1492 29.0678 18.7891 28.9744 19.2158C28.9344 19.1358 28.9744 19.5225 28.7478 19.6958C28.8678 19.8558 28.9878 20.0025 28.8944 20.2425C28.7744 20.3092 28.4811 20.1892 28.4011 20.2425C28.7078 20.3892 28.4811 20.9758 28.8144 21.1625C28.7344 21.0958 28.5344 21.0958 28.4944 21.1092L28.7478 21.2425C28.6678 21.3892 28.6278 21.4025 28.4678 21.3891C28.4278 21.8291 28.9478 21.2558 28.7345 21.7625C28.7078 21.7225 28.6811 21.7358 28.6411 21.6558C28.5344 22.1758 28.8011 22.6558 28.6811 23.1358C28.3078 23.2825 28.5878 22.7225 28.2678 22.8825C28.3344 23.5758 28.7211 24.3091 28.6278 24.9758L28.6678 24.8558C28.9344 24.8958 28.8678 25.0291 28.7611 25.1758C28.6544 25.2958 28.5211 25.3758 28.6545 25.5358C28.6145 25.4692 28.3611 25.3891 28.4144 25.4158C28.2944 25.6291 28.6144 25.9625 28.6411 26.6825L28.5344 26.4558C28.3744 26.4825 28.1478 26.6825 27.9478 26.5358C27.9611 26.7225 27.8411 26.6425 27.9878 26.9625C27.5745 26.2425 27.5211 26.2692 27.2144 26.2425C26.9878 26.2425 26.4678 26.1225 26.2411 25.6691C26.3344 25.7091 26.5078 25.6691 26.4411 25.6291C26.2011 25.5625 25.9611 25.5225 25.7211 25.4691C25.6944 25.7091 25.7611 25.6291 25.8278 25.8558C25.6944 25.9491 25.4811 25.9758 25.3211 25.9225C25.6678 25.8825 25.4411 25.5625 25.3478 25.4025C25.3478 25.4825 25.2811 25.5358 25.2678 25.6158C25.0278 25.1225 25.0811 26.0425 24.6811 25.6425L24.7345 25.5358C24.5345 25.5492 24.3344 25.6825 24.1478 25.6025C24.1211 25.3225 24.3611 25.5225 24.4278 25.3091C24.1344 25.2558 23.8011 25.6958 23.5878 25.4158C23.7211 25.3625 23.8811 25.3758 24.0144 25.3225C23.7878 24.9758 23.7344 25.0558 23.5344 24.9758H23.5611C23.4011 24.9225 23.2411 24.8425 23.0811 24.8025L23.2011 24.8958C22.8011 25.5758 22.4545 24.9758 21.9878 25.4691C22.4278 25.0158 22.0545 25.2158 22.0678 24.9092C21.9345 24.8292 21.7344 24.7492 21.7878 24.6558C21.5744 24.9092 21.3611 24.5091 21.0811 24.8958C21.0544 24.8025 20.8278 24.9225 20.8411 24.6691C20.5478 24.8025 20.9478 24.8158 20.9344 24.9492C20.5478 25.3492 19.7344 24.7758 19.2278 25.4558C18.7478 25.8425 18.7878 26.1891 18.4144 26.5491C18.1878 26.4825 18.3744 26.1758 18.3744 26.1758C18.0544 26.1758 17.8678 26.3092 17.7078 26.5358C17.7078 26.4292 17.6278 26.4025 17.4944 26.3491C17.3211 26.4958 17.5611 26.7091 17.2411 26.7625C17.2144 26.6425 17.1744 26.4558 17.2011 26.3091C17.0278 26.5358 16.9345 26.8425 16.7745 27.0558C16.6145 26.9625 16.7478 26.7625 16.7611 26.6158C16.5478 26.8558 16.2544 27.2025 16.3478 27.4691L16.5478 27.4291C16.4811 27.5091 16.3611 27.2825 16.3878 27.2025C16.4411 26.8825 16.7211 27.0558 16.8011 27.1225L16.6945 27.2825C17.2011 27.6292 17.2144 26.7625 17.5744 26.5891L17.6678 27.0158L17.8011 26.5225C17.9211 26.5758 18.0811 26.7491 17.9744 26.8958C18.2944 26.9491 18.0945 26.6425 18.4011 26.7358C18.4411 26.7625 18.4411 26.7758 18.4278 26.8025L18.5878 26.5891C18.5878 26.6825 18.7611 26.8291 18.5878 26.8425C19.0678 26.8558 19.0944 26.2558 19.3744 26.4958L19.3478 26.5358C19.8678 26.1892 19.2811 26.2158 19.6145 25.7225C19.8011 25.9358 19.9744 26.1358 20.1344 26.3491L20.1078 26.0425C20.1078 26.0425 20.2944 26.0158 20.3078 26.1492C20.4811 25.8825 20.2278 26.0291 20.3078 25.8025C20.6678 26.0025 21.1344 25.4958 21.2678 25.9892C21.3478 25.7492 20.9478 25.8425 21.2678 25.6425C21.4278 26.1625 21.6411 25.4825 21.9478 25.7225C21.8811 25.9891 21.6144 25.8691 21.9078 26.0958C22.0544 25.6425 22.4411 26.1625 22.6545 26.0958C22.6545 25.9891 22.7211 25.9358 22.7878 25.9092C22.7478 26.0158 22.7078 26.0691 22.6545 26.0958C22.6545 26.1491 22.6544 26.2158 22.6811 26.2958C22.7344 26.3091 22.7744 26.0292 22.8011 25.9092C22.9744 25.8425 23.2811 25.9225 23.5611 25.8958C23.5211 26.0025 24.2544 26.2025 24.5611 26.4291L24.5344 26.4825C24.6944 26.1492 25.0411 26.3091 25.3211 26.3358C25.2411 26.5358 25.1611 26.6025 25.0011 26.6558C25.0811 26.6825 25.1611 26.6958 25.2278 26.7358C25.3211 26.6425 25.4144 26.6158 25.5878 26.6425L25.4278 26.8692C25.7478 26.9625 26.1478 26.8291 26.4811 27.2158C26.5878 26.9758 26.5078 26.4158 26.9611 26.4691C26.9211 26.6025 26.8544 26.8425 26.7078 26.8158C26.7611 26.8158 26.8945 26.7891 26.9478 26.8958C26.8678 26.9358 26.7744 26.9758 26.6678 27.0025C26.8544 27.2425 26.8544 26.8825 27.0011 27.0025C26.9478 27.2025 27.0945 27.2291 27.0278 27.3758C26.9745 27.3758 26.8944 27.1891 26.8011 27.2291C26.9878 27.3891 27.2278 27.6958 27.3078 27.9225C27.3078 27.7891 27.3344 27.6158 27.4678 27.6558C27.8278 27.8292 27.6011 27.9891 27.8411 28.2158C27.9211 28.1091 28.2144 28.3891 28.1344 28.0558C28.2278 28.0958 28.2945 28.2425 28.3611 28.3358C28.4411 28.2825 28.7078 28.2825 28.8811 28.1758C29.0678 28.0691 29.1478 27.9358 28.9611 27.8692H28.9078L28.9344 27.8558C29.1878 27.5625 29.3345 27.2692 29.4011 26.9892C29.4945 26.7225 29.6144 26.3758 29.5478 25.9625L29.6411 26.0025C29.5878 25.7491 29.5744 25.4958 29.5344 25.2558C29.5078 25.0425 29.4678 24.8958 29.3611 24.7625C29.3611 24.6558 29.5478 24.5091 29.6545 24.5625C29.5745 24.2958 29.4678 24.2558 29.6278 23.8692C29.8011 24.1492 29.7744 23.7758 29.7478 24.1492C29.8278 23.7892 29.9878 23.7091 29.7211 23.3358C29.9744 23.4691 30.0411 23.0691 29.9611 22.8958L29.7745 23.1492C29.7345 22.9625 29.7611 22.7891 29.7745 22.6291L30.1078 22.7225C30.5078 22.0025 29.4144 21.4158 30.1078 20.8692C29.8811 20.6825 29.9478 21.2691 29.6678 21.0958C29.7078 20.7625 30.1878 20.4158 30.1878 20.3091C30.3744 19.8558 29.7078 19.8825 29.8278 19.4025C29.7078 19.4692 29.3878 19.5225 29.2811 19.1625C29.3211 18.8292 29.7744 18.7491 29.8678 18.9625C29.8678 19.0425 29.8411 19.0825 29.8011 19.0825C29.8411 19.1891 29.8945 19.3358 30.0278 19.2025L29.9078 19.1625C30.0278 19.0025 30.0144 18.5358 30.2144 18.6425C30.1078 18.3891 30.0144 18.5358 29.9611 18.7225C30.1344 18.2958 29.9611 18.0558 30.0811 17.6158C30.0144 17.6825 29.8811 17.7491 29.8811 17.6825C30.0278 17.0425 29.6544 17.4025 29.6011 16.9625C29.7878 16.7091 30.0278 17.0558 29.8811 16.6158C30.0011 16.3492 30.2011 16.5625 30.2944 16.6691C30.0678 16.2691 30.4411 15.9225 30.4811 15.6958L30.5744 15.9092L30.8678 15.7625ZM1.50777 24.9892C1.46777 24.8692 1.52109 24.8292 1.57442 24.8158C1.57442 24.8692 1.58779 24.9358 1.61446 25.0158H1.65446C1.65446 25.0158 1.54777 25.0158 1.50777 24.9892ZM17.2411 10.9225C17.2411 10.9225 17.2278 10.9491 17.1744 10.9625C17.1744 10.9625 17.1611 10.9358 17.1344 10.9225C17.1344 10.9225 17.1078 10.9225 17.0944 10.9225C17.1478 10.9225 17.2011 10.9225 17.2411 10.9225ZM3.44112 23.7491C3.34778 23.7758 3.2411 23.7491 3.25443 23.6691C3.3211 23.7091 3.37442 23.5358 3.45442 23.4291C3.45442 23.5225 3.45442 23.6291 3.45442 23.7491H3.44112ZM3.45442 24.1758C3.45442 24.2558 3.45444 24.3225 3.46777 24.3625C3.46777 24.3225 3.46778 24.2691 3.44112 24.1758H3.45442ZM15.4811 26.6825C15.4811 26.6825 15.4811 26.6692 15.4811 26.6558C15.5078 26.6558 15.5344 26.6691 15.5611 26.6825H15.4811ZM15.3744 26.4158C15.3744 26.4158 15.3745 26.4158 15.3611 26.4158C15.3745 26.3625 15.3611 26.3358 15.3611 26.2958C15.4945 26.3358 15.4411 26.3758 15.3744 26.4158ZM16.0011 26.8558V26.8292C16.0278 26.8292 16.0678 26.8425 16.0944 26.8558C16.0678 26.8558 16.0411 26.8558 16.0144 26.8558H16.0011ZM15.8411 22.8692C15.8411 22.8692 15.8411 22.9358 15.6145 22.9625C15.7345 22.9891 15.8544 23.0292 15.7611 23.0692C15.6411 23.0692 15.3478 23.0692 15.2678 23.0692C15.5744 23.0958 15.3478 23.2158 15.6811 23.2558C15.6011 23.2558 15.4011 23.2425 15.3611 23.2558L15.6145 23.2825C15.5345 23.3092 15.4944 23.3225 15.3344 23.3091C15.2944 23.4025 15.8144 23.2825 15.6011 23.3891C15.5744 23.3891 15.5478 23.3892 15.5078 23.3625C15.4011 23.4692 15.6678 23.5625 15.5478 23.6691C15.1744 23.6958 15.4544 23.5892 15.1344 23.6158C15.2011 23.7625 15.5878 23.9091 15.4944 24.0425L15.5344 24.0158C16.0678 24.0291 15.2678 24.1225 15.5344 24.1891C15.4944 24.1758 15.2411 24.1625 15.2944 24.1758C15.2144 24.2691 15.4278 24.3625 15.5878 24.5091H15.4544C15.3344 24.5491 15.3878 24.6425 15.3211 24.6958C15.4545 24.7092 15.4411 24.7491 15.6278 24.7225C14.8544 24.9091 16.0411 25.0692 15.4011 25.2425C15.4011 25.2292 15.2811 25.2025 15.2811 25.2158L15.4011 25.3491C15.6278 25.3491 15.5344 25.3358 15.7211 25.2958C15.8544 25.3091 15.9611 25.3491 15.9611 25.3891C15.8144 25.3225 15.5878 25.3891 15.4544 25.4158C15.5211 25.4158 15.6011 25.4158 15.6811 25.4158C15.2678 25.4825 16.1478 25.4158 15.8678 25.5225H15.7478C15.7478 25.5225 15.9744 25.5891 15.9344 25.6291C15.6678 25.6425 15.8144 25.5891 15.5878 25.5891C15.6011 25.6425 16.0944 25.6958 15.8278 25.7491C15.7478 25.7225 15.7478 25.6958 15.6811 25.6691C15.3611 25.7225 15.4411 25.7358 15.4011 25.7758L15.2544 25.8692L15.3344 25.8425C16.0278 25.9091 15.4678 25.9891 15.9211 26.0825C15.4944 25.9891 15.6678 26.0691 15.3744 26.0558C15.2944 26.0825 15.2011 26.1225 15.1078 26.1092C15.1344 26.1092 15.1211 26.1092 15.1344 26.1092L14.6945 26.1891C14.7478 26.0025 15.0678 26.0025 14.8678 25.7491C14.5744 25.8158 14.8144 26.1891 14.4544 26.1358C14.3878 25.8425 14.5211 25.7358 14.2278 25.7625C14.2544 25.6425 14.3344 25.6025 14.4544 25.6025C14.1878 25.6025 13.8944 25.3625 13.6811 25.5358C13.6011 25.1892 12.9744 25.2825 13.1611 24.8958C13.0544 24.9625 12.6678 25.0691 12.4678 25.0158C13.0011 24.6291 11.7478 24.7625 11.9878 24.2558C11.5878 24.6425 10.9345 24.2292 10.4011 24.4425C10.4278 24.4025 10.4944 24.3358 10.5344 24.3625C10.2678 24.2958 10.2011 24.1358 10.0144 24.0425C9.94777 24.4291 9.5211 24.4958 9.29443 24.7358C8.9611 24.3625 9.49445 24.2692 9.40112 23.9092C9.40112 24.2158 8.80111 24.2425 8.93444 24.5091C8.66778 24.2825 8.70777 24.4025 8.54777 24.0825C8.54777 24.5625 8.30776 24.1891 8.12109 24.5225C7.72109 24.3358 7.96111 24.0692 7.56111 24.2825C7.33445 24.1758 7.68111 23.9225 7.68111 23.9358C7.24111 24.0025 7.54776 24.3358 7.49442 24.5491C7.02776 24.7491 7.21443 24.3358 7.0011 24.1891C6.69443 24.3491 6.5611 24.7625 6.33443 24.8158C6.29443 24.7625 6.25446 24.7491 6.28112 24.6691C6.05446 25.0425 5.33445 25.0158 5.14778 25.5358C5.10778 25.5225 5.08112 25.4958 5.06779 25.4691C5.20112 25.6025 5.29443 25.7758 5.33443 25.8958C5.17443 25.9758 5.14778 26.2425 4.97444 26.0692C5.08111 26.0292 5.04111 25.9358 5.05444 25.8425L4.93444 26.0158C4.61444 25.7891 5.10779 25.7891 4.98779 25.5625C4.65446 25.8425 4.65442 26.1625 4.45442 26.2158H4.42777C4.41444 26.1491 4.42777 26.0958 4.42777 26.0425C4.46777 25.8691 4.64109 25.8825 4.45442 25.7091C4.52109 25.7225 4.58776 25.7358 4.66776 25.7358C4.4811 25.5358 4.52109 25.5225 4.53442 25.5225C4.57442 25.5091 4.62779 25.4825 4.40112 25.2691C4.33445 25.2425 4.34779 25.2958 4.32112 25.3625C4.32112 25.4158 4.28109 25.4825 4.24109 25.4558C4.18775 25.7091 4.22776 25.8025 4.16109 26.0692C3.97442 26.4158 3.94777 26.1625 4.01444 25.8558C4.06778 25.5625 4.20112 25.2958 3.98779 25.5891C3.80112 25.8958 3.32109 26.4425 3.49442 25.9492C3.62776 25.8292 3.7611 25.6958 3.8811 25.5491C3.89443 25.4025 3.32109 26.0025 3.57442 25.5358C3.72109 25.4825 3.70776 25.5892 3.74776 25.5358C4.05443 25.1892 3.53442 25.6292 3.53442 25.4825L3.8811 25.2825C3.8811 25.2825 3.77443 25.1758 3.70776 25.0425C3.62776 24.7491 3.56111 24.4425 3.52111 24.1358C3.62778 24.1758 3.73442 24.2691 3.82776 24.1358C3.65442 23.3625 3.86779 22.4825 4.06779 21.7358L3.77445 21.4558C3.77445 21.4558 3.90776 21.3358 3.9611 21.4025C4.06776 21.1092 3.77446 21.3892 3.65446 21.2425C3.62779 21.0825 3.82775 21.0291 3.90775 21.1225C3.65442 20.6158 3.37444 19.6558 3.68111 19.1225L3.77445 19.2291C3.89445 18.8025 3.17445 18.7492 3.44112 18.3625L3.49442 18.4425C3.62776 17.5225 3.34777 16.5225 3.8011 15.8158C3.37444 15.6825 3.98779 14.9091 3.40112 14.8558C3.69445 14.3358 3.8011 14.4825 4.0011 13.7491C4.02776 13.5491 3.62775 13.4558 3.57442 13.2158H3.8811L3.56111 12.8825L3.93444 12.7091L3.85445 12.4825C3.84111 12.5758 3.7211 12.6692 3.62776 12.6558C3.49443 12.2958 3.8411 11.7892 4.0011 11.7758L3.73445 10.9358C3.85445 10.9491 3.89444 11.0958 3.97444 11.2025C3.65444 10.7492 4.29444 11.1225 4.01444 10.7091C3.94777 10.7625 3.82778 10.6825 3.77445 10.6691C3.96112 10.4691 3.9611 10.0025 3.8811 9.65582L4.09444 9.72247C4.1211 9.41581 4.09445 9.08246 4.06779 8.74913L4.02779 8.28249C4.02779 8.28249 4.00111 8.21582 4.01444 8.18915C3.90777 8.18915 3.53445 8.1358 3.52111 8.00246C3.62778 8.02913 3.73445 8.05581 3.85445 8.09581C3.68111 7.96247 3.69444 8.13583 3.50777 7.90916C3.61444 7.80249 3.8811 8.04246 3.9611 8.12246C3.93443 8.08246 3.92109 8.04246 3.90775 8.00246C3.98775 8.06913 4.02776 8.0958 4.12109 8.1758C4.04109 8.10914 4.12111 8.1358 4.18778 8.1758C4.26778 8.20247 4.42779 8.12249 4.36112 7.94916L4.44112 8.01581C4.89445 7.64248 5.06777 7.41582 5.46777 7.14915C5.33444 6.89582 5.53445 6.86913 5.56111 6.58913C5.94778 6.50913 6.4011 6.52246 6.8011 6.37579C7.05444 6.14913 6.81442 6.12247 6.90775 5.92247C7.00109 6.14913 7.42776 6.0158 7.25443 6.2558C7.7611 6.0958 7.89443 6.04247 8.54777 5.76247C8.46777 5.66914 8.37445 5.62916 8.40112 5.53583C8.52112 5.46916 8.69445 5.61582 8.69445 5.73582L8.66776 5.76247C9.04109 5.54914 9.50775 5.72247 9.90775 5.92247C10.3078 6.12247 10.6544 6.30912 11.0011 6.12246H10.9611C11.1744 6.09579 11.4144 6.04248 11.6411 6.01581C11.9078 6.14914 11.4278 6.14916 11.5878 6.36249C12.3611 6.16249 12.5478 6.76247 13.1611 6.76247C13.1611 7.10914 13.3744 7.26914 13.6278 7.42914C13.7478 7.50914 13.8944 7.57581 14.0411 7.64248C14.2278 7.76248 14.4411 7.92249 14.6011 8.06915C14.6811 8.12249 14.7478 8.18913 14.8278 8.2558C14.8011 8.2558 14.8011 8.2558 14.7745 8.2558C14.7878 8.2558 14.8278 8.2558 14.8544 8.2558C14.8944 8.28247 14.9211 8.30913 14.9611 8.3358C14.7744 8.3358 15.0144 8.48247 14.5478 8.46914C15.0278 8.52247 14.7611 8.65579 15.0278 8.74913C14.9878 8.74913 14.9078 8.73581 14.9344 8.72247C14.8944 8.77581 14.7478 8.78915 14.6678 8.81582C15.0544 8.81582 15.1478 8.89583 15.3878 8.94916C15.0144 9.01583 14.9344 8.90915 14.5611 8.93581C14.8811 8.93581 14.8811 9.04249 15.1478 9.02916C14.9078 9.08249 15.0278 9.06914 14.7078 9.09581C15.2011 9.09581 14.7878 9.1358 15.0944 9.1758C14.8544 9.24247 14.6411 9.18915 14.7878 9.26915C14.6411 9.30915 14.4678 9.24249 14.4678 9.24249C14.4678 9.32249 14.8278 9.28246 15.0411 9.2958C15.1478 9.38913 14.7744 9.33579 14.5744 9.37579C14.6678 9.42913 15.0144 9.48248 15.0011 9.52248C14.9344 9.52248 14.9211 9.52248 14.8411 9.52248C15.1344 9.58915 14.8544 9.70915 15.2278 9.77582C15.2011 9.77582 15.1611 9.77582 15.1344 9.77582C15.3211 9.77582 15.5078 9.77582 15.6411 9.77582C15.6411 9.81582 15.8811 9.84248 15.6411 9.85582C15.6411 9.82915 15.5478 9.82916 15.4811 9.82916L15.5878 9.86916C15.2411 9.89583 15.4678 9.81582 15.2144 9.81582C15.3211 9.88248 15.6144 9.96249 15.5211 10.0292C15.1878 10.0292 15.4011 9.90914 15.1078 9.97581L15.2411 9.89581C14.7078 9.96248 15.2811 9.84248 14.7078 9.89581C14.6144 10.0025 14.8811 10.0158 14.7878 10.1225C14.9744 10.1491 15.0678 10.1225 15.2544 10.1358C15.5878 10.2958 14.4011 10.2558 14.8544 10.3758C15.0811 10.4025 15.5078 10.4158 15.2811 10.4958L14.8944 10.4691C14.8544 10.5758 15.4411 10.5358 15.1878 10.6425C15.0411 10.6291 15.0544 10.5625 15.0144 10.5758C14.7078 10.6425 15.2278 10.6291 15.2278 10.6825H14.8811C14.9344 10.8025 15.1744 10.9358 15.2411 11.0558C15.1344 11.0558 15.0278 11.0291 14.9344 11.0558C15.1078 11.2158 14.8945 11.3891 14.6945 11.5491L14.9878 11.6025C14.9878 11.6025 14.8544 11.6291 14.8011 11.6025C14.6944 11.6558 14.9878 11.6025 15.1078 11.6291C15.1344 11.6691 14.9344 11.6692 14.8544 11.6558C15.1078 11.7625 15.3878 11.9492 15.0811 12.0692L14.9878 12.0425C14.8678 12.1225 15.5878 12.1358 15.3211 12.2158H15.2678C15.1344 12.3891 15.4144 12.5892 14.9611 12.7358C15.3878 12.7625 14.7745 12.9225 15.3611 12.9358C15.0678 13.0425 14.9611 13.0158 14.7611 13.1625C14.7344 13.2025 15.1344 13.2158 15.1878 13.2691H14.8811L15.2011 13.3358L14.8278 13.3758L14.9078 13.4158C14.9078 13.4158 15.0411 13.3758 15.1344 13.3758C15.2678 13.4425 14.9211 13.5491 14.7611 13.5491L15.0278 13.7225C14.9078 13.7225 14.8678 13.6958 14.7878 13.6691C15.1078 13.7625 14.4678 13.6825 14.7478 13.7758C14.8144 13.7758 14.9345 13.7758 14.9878 13.7758C14.8011 13.8158 14.8011 13.9092 14.8811 13.9892H14.6678C14.6144 14.1092 14.7744 14.2425 14.7611 14.3891C14.8544 14.3358 15.2278 14.3491 15.2678 14.3891H14.9478C15.1478 14.4291 15.0678 14.3625 15.3211 14.4158C15.2811 14.4691 14.9478 14.4558 14.8411 14.4158L14.9478 14.4825C14.8545 14.4825 14.8011 14.4825 14.6811 14.4691C14.8811 14.4958 14.3478 14.5758 14.7078 14.6158H14.6145C14.6145 14.7625 14.7211 14.8292 14.7345 14.9492C15.0145 14.9492 14.9478 15.0025 15.1744 15.0292C15.0811 15.1092 14.8678 15.2158 14.8811 15.3091C15.0144 15.3758 15.1211 15.3358 15.2811 15.3625C15.0278 15.3625 15.0544 15.4691 14.8678 15.4158C14.9078 15.5358 14.9211 15.5758 15.1211 15.7358C15.2278 15.7225 15.2678 15.6958 15.3611 15.7091C15.4011 15.7358 15.2544 15.7758 15.1344 15.7758H15.1078C15.4944 15.9492 14.3611 16.1758 14.8944 16.3225H14.8678L15.1478 16.4558C15.1078 16.5225 14.9611 16.4158 14.8011 16.4558C15.2278 16.6158 14.7345 16.7092 15.0278 16.8292C14.2678 16.9358 15.0811 17.1892 14.6011 17.3225H14.7745C14.9478 17.3492 14.6678 17.3625 14.6278 17.3891C14.7611 17.3891 14.7878 17.3491 14.8811 17.3758C15.0944 17.6691 14.6144 17.9891 14.4544 18.2958C14.4011 18.4025 15.3745 18.3625 14.9478 18.4958L14.6145 18.4558C15.0145 18.6825 14.6011 18.9091 14.9344 19.1358C14.8544 19.1358 14.7611 19.1225 14.7611 19.0958C14.5211 19.1358 14.7611 19.2691 14.9478 19.2691C14.9211 19.3091 14.7744 19.2691 14.6678 19.2958C14.5211 19.3358 14.9745 19.4158 14.7345 19.4425C14.6945 19.4425 14.6544 19.4425 14.6411 19.4158C14.7611 19.4425 14.6144 19.5625 14.8944 19.5225C14.7611 19.6025 15.0144 19.6825 14.8544 19.7491C15.1611 19.7891 14.7078 19.8958 15.1478 19.9092C14.6944 19.9092 14.7878 20.0558 15.0011 20.1092C14.8678 20.0958 14.8544 20.1491 14.6678 20.1358C14.6678 20.1891 14.7611 20.2558 14.9878 20.2425C14.4411 20.3492 15.4278 20.4558 14.7345 20.5225C14.9745 20.6958 15.1478 20.8558 15.2544 21.0158C14.8011 21.0158 15.2145 20.8425 14.7345 20.8425C14.9211 20.9891 15.3078 21.0825 15.2011 21.2291C15.1344 21.2691 15.0011 21.2025 14.9344 21.1891C15.1211 21.3358 14.8944 21.4825 15.1344 21.6158C15.0944 21.6158 15.0411 21.6025 15.0144 21.5891C15.0278 21.6158 14.9478 21.6558 15.1478 21.6425L15.0944 21.6158C15.3878 21.5758 15.7211 21.7225 15.8678 21.7225C15.2811 21.6825 15.7211 21.8558 14.9744 21.7891C15.0144 21.8025 15.1078 21.8292 15.2411 21.8292C15.2011 21.8558 15.1211 21.8692 14.9611 21.8292C15.0678 21.9225 15.2945 21.8958 15.2811 21.9758C15.1878 21.9758 15.1478 21.9625 15.0278 21.9492C15.2278 21.9892 15.4144 22.0425 15.3344 22.1092C15.2811 22.1092 15.2011 22.1091 15.2011 22.0958C15.2278 22.2158 15.7211 22.3092 15.5344 22.4425C15.1078 22.4025 15.3878 22.4825 15.0144 22.4958L15.1211 22.5625L15.3078 22.5358C15.3078 22.5358 15.5744 22.6558 15.4544 22.7091L15.2944 22.6558L15.3611 22.7758L15.5078 22.7091C15.6944 22.7758 15.9744 22.7091 15.8811 22.7891L15.8411 22.8692ZM15.5078 11.1891C15.5078 11.1891 15.3878 11.2158 15.3078 11.2425C15.3078 11.2292 15.3078 11.2025 15.3078 11.1758C15.4011 11.1758 15.5078 11.1758 15.4944 11.1891H15.5078ZM15.2944 11.0825C15.2944 11.0825 15.2945 11.0558 15.2811 11.0425C15.2811 11.0425 15.2811 11.0558 15.3078 11.0825H15.2944Z" fill="black" fill-opacity="0.8"/>
</svg>
