<svg width="660" height="405" viewBox="0 0 660 405" fill="none" xmlns="http://www.w3.org/2000/svg">
<mask id="mask0_4_1790" style="mask-type:alpha" maskUnits="userSpaceOnUse" x="128" y="30" width="532" height="375">
<g clip-path="url(#paint0_diamond_4_1790_clip_path)" data-figma-skip-parse="true"><g transform="matrix(0.3455 0.375 0.531827 -0.484089 314.5 30)"><rect x="0" y="0" width="1002.77" height="546.024" fill="url(#paint0_diamond_4_1790)" opacity="1" shape-rendering="crispEdges"/><rect x="0" y="0" width="1002.77" height="546.024" transform="scale(1 -1)" fill="url(#paint0_diamond_4_1790)" opacity="1" shape-rendering="crispEdges"/><rect x="0" y="0" width="1002.77" height="546.024" transform="scale(-1 1)" fill="url(#paint0_diamond_4_1790)" opacity="1" shape-rendering="crispEdges"/><rect x="0" y="0" width="1002.77" height="546.024" transform="scale(-1)" fill="url(#paint0_diamond_4_1790)" opacity="1" shape-rendering="crispEdges"/></g></g><path d="M660 30H128V405H660V30Z" data-figma-gradient-fill="{&#34;type&#34;:&#34;GRADIENT_DIAMOND&#34;,&#34;stops&#34;:[{&#34;color&#34;:{&#34;r&#34;:0.0,&#34;g&#34;:0.0,&#34;b&#34;:0.0,&#34;a&#34;:1.0},&#34;position&#34;:0.66623175144195557},{&#34;color&#34;:{&#34;r&#34;:0.0,&#34;g&#34;:0.0,&#34;b&#34;:0.0,&#34;a&#34;:0.0},&#34;position&#34;:0.84777897596359253}],&#34;stopsVar&#34;:[{&#34;color&#34;:{&#34;r&#34;:0.0,&#34;g&#34;:0.0,&#34;b&#34;:0.0,&#34;a&#34;:1.0},&#34;position&#34;:0.66623175144195557},{&#34;color&#34;:{&#34;r&#34;:0.0,&#34;g&#34;:0.0,&#34;b&#34;:0.0,&#34;a&#34;:0.0},&#34;position&#34;:0.84777897596359253}],&#34;transform&#34;:{&#34;m00&#34;:691.00006103515625,&#34;m01&#34;:1063.6541748046875,&#34;m02&#34;:-562.82714843750,&#34;m10&#34;:749.99993896484375,&#34;m11&#34;:-968.17761230468750,&#34;m12&#34;:139.08882141113281},&#34;opacity&#34;:1.0,&#34;blendMode&#34;:&#34;NORMAL&#34;,&#34;visible&#34;:true}"/>
</mask>
<g mask="url(#mask0_4_1790)">
<g clip-path="url(#clip0_4_1790)">
<mask id="path-2-inside-1_4_1790" fill="white">
<path d="M132 56C132 42.7452 142.745 32 156 32H687C700.255 32 711 42.7452 711 56V501.5C711 514.755 700.255 525.5 687 525.5H156C142.745 525.5 132 514.755 132 501.5V56Z"/>
</mask>
<path d="M132 56C132 42.7452 142.745 32 156 32H687C700.255 32 711 42.7452 711 56V501.5C711 514.755 700.255 525.5 687 525.5H156C142.745 525.5 132 514.755 132 501.5V56Z" fill="white"/>
<path d="M132 56C132 42.7452 142.745 32 156 32H687C700.255 32 711 42.7452 711 56V501.5C711 514.755 700.255 525.5 687 525.5H156C142.745 525.5 132 514.755 132 501.5V56Z" fill="url(#paint1_linear_4_1790)" fill-opacity="0.32" style="mix-blend-mode:luminosity"/>
<mask id="path-4-inside-2_4_1790" fill="white">
<path d="M174 106C174 88.3269 188.327 74 206 74C223.673 74 238 88.3269 238 106C238 123.673 223.673 138 206 138C188.327 138 174 123.673 174 106Z"/>
</mask>
<path d="M174 106C174 88.3269 188.327 74 206 74C223.673 74 238 88.3269 238 106C238 123.673 223.673 138 206 138C188.327 138 174 123.673 174 106Z" fill="#EEEEEE"/>
<path d="M206 138V136C189.431 136 176 122.569 176 106H174H172C172 124.778 187.222 140 206 140V138ZM238 106H236C236 122.569 222.569 136 206 136V138V140C224.778 140 240 124.778 240 106H238ZM206 74V76C222.569 76 236 89.4315 236 106H238H240C240 87.2223 224.778 72 206 72V74ZM206 74V72C187.222 72 172 87.2223 172 106H174H176C176 89.4315 189.431 76 206 76V74Z" fill="black" fill-opacity="0.8" mask="url(#path-4-inside-2_4_1790)"/>
<path fill-rule="evenodd" clip-rule="evenodd" d="M221.539 129.994C221.758 129.994 221.968 129.909 222.125 129.756C222.282 129.604 222.373 129.396 222.379 129.178C222.535 126.845 222.357 124.501 221.851 122.218C221.636 121.23 221.347 120.259 220.987 119.314C220.629 118.369 220.195 117.454 219.691 116.578C218.551 114.64 216.973 112.996 215.083 111.778C216.269 110.729 217.211 109.433 217.846 107.983C218.48 106.532 218.79 104.961 218.755 103.378C218.922 101.313 218.736 99.2355 218.203 97.2338C217.749 95.8821 217.031 94.634 216.091 93.5618C216.015 93.4827 215.924 93.4198 215.823 93.3768C215.722 93.3338 215.613 93.3116 215.503 93.3116C215.393 93.3116 215.285 93.3338 215.184 93.3768C215.083 93.4198 214.991 93.4827 214.915 93.5618C214.744 93.7025 214.636 93.9049 214.613 94.1251C214.591 94.3454 214.656 94.5655 214.795 94.7378C215.754 95.8871 216.392 97.27 216.643 98.7458C216.837 100.3 216.837 101.872 216.643 103.426C216.621 105.335 215.973 107.184 214.798 108.688C213.623 110.193 211.986 111.27 210.139 111.754C208.27 112.258 206.311 112.334 204.408 111.976C202.505 111.619 200.707 110.837 199.147 109.69C198.078 108.818 197.306 107.636 196.939 106.306C196.474 104.916 196.319 103.442 196.483 101.986C196.693 99.8819 197.4 97.8581 198.547 96.0818C199.674 94.3542 201.373 93.0794 203.347 92.4818C204.858 92.0243 206.425 91.774 208.003 91.7378C209.557 91.7058 211.1 91.9916 212.539 92.5778C212.714 92.6574 212.914 92.6642 213.094 92.5966C213.274 92.5291 213.42 92.3929 213.499 92.2178C213.579 92.0428 213.586 91.8433 213.518 91.6633C213.45 91.4832 213.314 91.3374 213.139 91.2578C211.542 90.4908 209.799 90.0735 208.027 90.0338C206.283 89.9962 204.541 90.1817 202.843 90.5858C200.397 91.2202 198.244 92.678 196.747 94.7138C195.273 96.7451 194.302 99.0978 193.915 101.578C193.634 103.443 193.782 105.347 194.347 107.146C194.879 109.048 196.006 110.731 197.563 111.946L198.091 112.282C195.879 113.306 193.951 114.855 192.475 116.794C191.483 118.095 190.72 119.556 190.219 121.114C189.738 122.67 189.471 124.285 189.427 125.914C189.29 127.093 189.226 128.279 189.235 129.466C189.238 130.096 189.377 130.718 189.643 131.29C189.74 131.461 189.898 131.588 190.085 131.646C190.273 131.704 190.475 131.688 190.651 131.602C190.738 131.556 190.815 131.494 190.878 131.419C190.941 131.343 190.988 131.256 191.017 131.163C191.046 131.069 191.056 130.971 191.047 130.873C191.038 130.775 191.009 130.68 190.963 130.594C190.83 130.091 190.83 129.561 190.963 129.058C191.131 127.978 191.491 126.826 191.635 126.178C191.89 124.787 192.292 123.427 192.835 122.122C193.323 120.833 193.951 119.602 194.707 118.45C196.079 116.369 197.931 114.649 200.107 113.434C203.525 114.984 207.392 115.232 210.979 114.13C212.003 113.793 212.979 113.326 213.883 112.738C215.596 114.421 216.901 116.473 217.699 118.738C218.275 120.058 218.803 121.426 219.259 122.794C220.009 124.863 220.508 127.014 220.747 129.202C220.759 129.408 220.846 129.603 220.992 129.749C221.138 129.895 221.333 129.982 221.539 129.994Z" fill="black" fill-opacity="0.8"/>
<path d="M280.614 118.306C278.665 118.306 276.999 118.011 275.616 117.422C274.256 116.833 273.157 116.028 272.318 115.008C271.479 113.965 270.867 112.787 270.482 111.472C270.119 110.157 269.938 108.786 269.938 107.358C269.938 105.59 270.176 103.992 270.652 102.564C271.151 101.136 271.751 99.912 272.454 98.892C273.179 97.872 273.916 97.09 274.664 96.546C275.412 96.002 276.047 95.73 276.568 95.73C276.908 95.73 277.225 95.8207 277.52 96.002C277.815 96.1607 278.053 96.3647 278.234 96.614C278.415 96.8633 278.506 97.1353 278.506 97.43C278.506 97.7927 278.381 98.0987 278.132 98.348C277.905 98.5747 277.486 98.9033 276.874 99.334C276.194 99.8327 275.605 100.524 275.106 101.408C274.63 102.292 274.267 103.255 274.018 104.298C273.769 105.318 273.644 106.338 273.644 107.358C273.644 108.605 273.871 109.783 274.324 110.894C274.777 111.982 275.514 112.877 276.534 113.58C277.554 114.26 278.914 114.6 280.614 114.6C281.997 114.6 283.187 114.249 284.184 113.546C285.204 112.843 285.986 111.937 286.53 110.826C287.074 109.715 287.346 108.537 287.346 107.29C287.346 106.111 287.21 104.955 286.938 103.822C286.666 102.689 286.269 101.669 285.748 100.762C285.249 99.8327 284.626 99.096 283.878 98.552C283.153 98.008 282.337 97.736 281.43 97.736C280.569 97.736 279.741 98.042 278.948 98.654C278.155 99.266 277.475 100.127 276.908 101.238C276.636 101.759 276.353 102.122 276.058 102.326C275.786 102.53 275.457 102.632 275.072 102.632C274.777 102.632 274.528 102.575 274.324 102.462C274.12 102.326 273.961 102.145 273.848 101.918C273.757 101.691 273.712 101.408 273.712 101.068C273.712 100.297 273.939 99.4927 274.392 98.654C274.868 97.8153 275.491 97.0447 276.262 96.342C277.055 95.6167 277.939 95.0273 278.914 94.574C279.889 94.1207 280.897 93.894 281.94 93.894C283.187 93.894 284.354 94.2227 285.442 94.88C286.553 95.5147 287.527 96.4213 288.366 97.6C289.205 98.7787 289.862 100.161 290.338 101.748C290.837 103.312 291.086 105.023 291.086 106.882C291.086 108.401 290.848 109.851 290.372 111.234C289.896 112.594 289.205 113.807 288.298 114.872C287.391 115.937 286.292 116.776 285 117.388C283.731 118 282.269 118.306 280.614 118.306ZM288.74 121.74C288.309 121.74 287.913 121.649 287.55 121.468C287.187 121.287 286.723 120.901 286.156 120.312C285.612 119.7 285.068 118.929 284.524 118C283.98 117.093 283.447 116.141 282.926 115.144C282.405 114.124 281.895 113.149 281.396 112.22C280.897 111.268 280.421 110.463 279.968 109.806C279.356 108.967 279.141 108.253 279.322 107.664C279.526 107.052 280.013 106.746 280.784 106.746C281.419 106.746 281.929 106.905 282.314 107.222C282.722 107.539 283.187 108.095 283.708 108.888C283.935 109.228 284.229 109.749 284.592 110.452C284.955 111.132 285.363 111.914 285.816 112.798C286.292 113.659 286.813 114.555 287.38 115.484C287.969 116.413 288.615 117.286 289.318 118.102C289.839 118.714 290.134 119.292 290.202 119.836C290.293 120.403 290.202 120.856 289.93 121.196C289.681 121.559 289.284 121.74 288.74 121.74ZM303.508 118.34C302.035 118.34 300.754 118.034 299.666 117.422C298.601 116.81 297.717 116.005 297.014 115.008C296.334 113.988 295.824 112.855 295.484 111.608C295.144 110.361 294.974 109.115 294.974 107.868C294.974 106.78 295.053 105.783 295.212 104.876C295.393 103.947 295.654 103.051 295.994 102.19C296.13 101.827 296.323 101.544 296.572 101.34C296.821 101.136 297.161 101.034 297.592 101.034C298.136 101.034 298.589 101.215 298.952 101.578C299.315 101.941 299.496 102.417 299.496 103.006C299.496 103.369 299.451 103.709 299.36 104.026C299.292 104.321 299.201 104.649 299.088 105.012C298.997 105.375 298.907 105.794 298.816 106.27C298.748 106.723 298.714 107.29 298.714 107.97C298.714 108.99 298.816 109.919 299.02 110.758C299.247 111.597 299.564 112.322 299.972 112.934C300.403 113.523 300.913 113.977 301.502 114.294C302.091 114.611 302.749 114.77 303.474 114.77C304.358 114.77 305.106 114.441 305.718 113.784C306.33 113.104 306.795 112.129 307.112 110.86C307.429 109.591 307.588 108.083 307.588 106.338C307.588 105.749 307.565 105.25 307.52 104.842C307.497 104.434 307.463 104.071 307.418 103.754C307.395 103.414 307.384 103.063 307.384 102.7C307.384 102.156 307.486 101.737 307.69 101.442C307.894 101.147 308.257 101 308.778 101C309.299 101 309.741 101.159 310.104 101.476C310.467 101.771 310.739 102.281 310.92 103.006C311.124 103.709 311.226 104.683 311.226 105.93C311.226 108.718 310.909 111.03 310.274 112.866C309.639 114.679 308.744 116.051 307.588 116.98C306.432 117.887 305.072 118.34 303.508 118.34ZM318.021 118.374C317.522 118.374 317.125 118.261 316.831 118.034C316.536 117.807 316.309 117.49 316.151 117.082C316.015 116.651 315.947 116.153 315.947 115.586C315.947 113.909 315.935 112.492 315.913 111.336C315.913 110.157 315.901 109.137 315.879 108.276C315.879 107.415 315.867 106.61 315.845 105.862C315.845 105.114 315.845 104.321 315.845 103.482C315.845 102.983 315.924 102.541 316.083 102.156C316.241 101.748 316.479 101.431 316.797 101.204C317.137 100.977 317.567 100.864 318.089 100.864C318.701 100.864 319.188 101.068 319.551 101.476C319.913 101.861 320.106 102.462 320.129 103.278C320.129 103.754 320.117 104.434 320.095 105.318C320.095 106.202 320.072 107.177 320.027 108.242C320.004 109.285 319.97 110.35 319.925 111.438C319.902 112.503 319.879 113.478 319.857 114.362C319.834 115.246 319.823 115.96 319.823 116.504C319.823 117.025 319.675 117.467 319.381 117.83C319.086 118.193 318.633 118.374 318.021 118.374ZM318.327 98.178C317.397 98.178 316.627 97.9173 316.015 97.396C315.403 96.852 315.097 96.206 315.097 95.458C315.097 94.7327 315.346 94.1547 315.845 93.724C316.343 93.2933 316.978 93.078 317.749 93.078C318.383 93.078 318.927 93.2253 319.381 93.52C319.834 93.8147 320.174 94.1887 320.401 94.642C320.65 95.0953 320.775 95.5487 320.775 96.002C320.775 96.5233 320.582 97.022 320.197 97.498C319.834 97.9513 319.211 98.178 318.327 98.178ZM329.532 118.34C328.172 118.34 327.107 118.159 326.336 117.796C325.566 117.411 325.022 116.935 324.704 116.368C324.41 115.779 324.262 115.178 324.262 114.566C324.262 113.863 324.41 113.285 324.704 112.832C324.999 112.379 325.43 112.061 325.996 111.88C328.24 110.996 330.11 110.135 331.606 109.296C333.102 108.435 334.236 107.585 335.006 106.746C335.777 105.885 336.185 105.035 336.23 104.196L337.148 105.828C336.831 105.465 336.491 105.182 336.128 104.978C335.766 104.774 335.335 104.627 334.836 104.536C334.338 104.445 333.726 104.4 333 104.4C331.799 104.4 330.745 104.491 329.838 104.672C328.932 104.831 328.161 105.001 327.526 105.182C326.914 105.341 326.393 105.42 325.962 105.42C325.713 105.42 325.464 105.318 325.214 105.114C324.965 104.887 324.761 104.604 324.602 104.264C324.444 103.924 324.364 103.573 324.364 103.21C324.364 102.802 324.444 102.485 324.602 102.258C324.784 102.009 325.101 101.827 325.554 101.714C326.71 101.442 327.946 101.215 329.26 101.034C330.575 100.853 331.822 100.762 333 100.762C334.292 100.762 335.369 100.887 336.23 101.136C337.092 101.363 337.783 101.68 338.304 102.088C338.826 102.473 339.188 102.915 339.392 103.414C339.619 103.913 339.732 104.423 339.732 104.944C339.732 105.579 339.528 106.27 339.12 107.018C338.712 107.766 338.032 108.559 337.08 109.398C336.128 110.214 334.859 111.053 333.272 111.914C331.708 112.775 329.759 113.625 327.424 114.464L328.342 113.648C328.456 114.079 328.648 114.373 328.92 114.532C329.215 114.668 329.623 114.736 330.144 114.736C330.96 114.736 331.788 114.702 332.626 114.634C333.488 114.543 334.372 114.464 335.278 114.396C336.185 114.305 337.103 114.26 338.032 114.26C338.939 114.26 339.653 114.487 340.174 114.94C340.718 115.371 340.99 115.915 340.99 116.572C340.99 116.98 340.854 117.32 340.582 117.592C340.333 117.864 339.936 118 339.392 118C338.508 118 337.5 118.023 336.366 118.068C335.233 118.136 334.077 118.193 332.898 118.238C331.72 118.306 330.598 118.34 329.532 118.34ZM349.355 118.34C347.995 118.34 346.929 118.159 346.159 117.796C345.388 117.411 344.844 116.935 344.527 116.368C344.232 115.779 344.085 115.178 344.085 114.566C344.085 113.863 344.232 113.285 344.527 112.832C344.821 112.379 345.252 112.061 345.819 111.88C348.063 110.996 349.933 110.135 351.429 109.296C352.925 108.435 354.058 107.585 354.829 106.746C355.599 105.885 356.007 105.035 356.053 104.196L356.971 105.828C356.653 105.465 356.313 105.182 355.951 104.978C355.588 104.774 355.157 104.627 354.659 104.536C354.16 104.445 353.548 104.4 352.823 104.4C351.621 104.4 350.567 104.491 349.661 104.672C348.754 104.831 347.983 105.001 347.349 105.182C346.737 105.341 346.215 105.42 345.785 105.42C345.535 105.42 345.286 105.318 345.037 105.114C344.787 104.887 344.583 104.604 344.425 104.264C344.266 103.924 344.187 103.573 344.187 103.21C344.187 102.802 344.266 102.485 344.425 102.258C344.606 102.009 344.923 101.827 345.377 101.714C346.533 101.442 347.768 101.215 349.083 101.034C350.397 100.853 351.644 100.762 352.823 100.762C354.115 100.762 355.191 100.887 356.053 101.136C356.914 101.363 357.605 101.68 358.127 102.088C358.648 102.473 359.011 102.915 359.215 103.414C359.441 103.913 359.555 104.423 359.555 104.944C359.555 105.579 359.351 106.27 358.943 107.018C358.535 107.766 357.855 108.559 356.903 109.398C355.951 110.214 354.681 111.053 353.095 111.914C351.531 112.775 349.581 113.625 347.247 114.464L348.165 113.648C348.278 114.079 348.471 114.373 348.743 114.532C349.037 114.668 349.445 114.736 349.967 114.736C350.783 114.736 351.61 114.702 352.449 114.634C353.31 114.543 354.194 114.464 355.101 114.396C356.007 114.305 356.925 114.26 357.855 114.26C358.761 114.26 359.475 114.487 359.997 114.94C360.541 115.371 360.813 115.915 360.813 116.572C360.813 116.98 360.677 117.32 360.405 117.592C360.155 117.864 359.759 118 359.215 118C358.331 118 357.322 118.023 356.189 118.068C355.055 118.136 353.899 118.193 352.721 118.238C351.542 118.306 350.42 118.34 349.355 118.34ZM371.317 118.34C369.527 118.34 368.053 118.023 366.897 117.388C365.764 116.731 364.925 115.847 364.381 114.736C363.837 113.603 363.565 112.311 363.565 110.86C363.565 109.681 363.781 108.503 364.211 107.324C364.665 106.123 365.299 105.035 366.115 104.06C366.931 103.063 367.906 102.269 369.039 101.68C370.195 101.068 371.476 100.762 372.881 100.762C374.604 100.762 375.987 101.215 377.029 102.122C378.072 103.006 378.593 104.343 378.593 106.134C378.593 107.381 378.219 108.423 377.471 109.262C376.723 110.101 375.703 110.735 374.411 111.166C373.119 111.597 371.68 111.812 370.093 111.812C368.779 111.812 367.827 111.619 367.237 111.234C366.671 110.826 366.387 110.373 366.387 109.874C366.387 109.602 366.455 109.398 366.591 109.262C366.727 109.103 366.965 109.024 367.305 109.024C367.555 109.024 367.861 109.069 368.223 109.16C368.586 109.228 369.096 109.262 369.753 109.262C370.773 109.262 371.68 109.137 372.473 108.888C373.267 108.616 373.901 108.253 374.377 107.8C374.853 107.324 375.091 106.791 375.091 106.202C375.091 105.522 374.921 105.012 374.581 104.672C374.241 104.332 373.675 104.162 372.881 104.162C371.793 104.162 370.819 104.502 369.957 105.182C369.119 105.862 368.45 106.757 367.951 107.868C367.475 108.956 367.237 110.123 367.237 111.37C367.237 112.073 367.362 112.707 367.611 113.274C367.861 113.841 368.257 114.283 368.801 114.6C369.368 114.917 370.127 115.076 371.079 115.076C372.349 115.076 373.403 114.94 374.241 114.668C375.08 114.396 375.783 114.09 376.349 113.75C376.916 113.387 377.392 113.07 377.777 112.798C378.185 112.526 378.571 112.39 378.933 112.39C379.273 112.39 379.511 112.503 379.647 112.73C379.806 112.934 379.885 113.263 379.885 113.716C379.885 114.215 379.659 114.736 379.205 115.28C378.775 115.824 378.163 116.323 377.369 116.776C376.599 117.229 375.692 117.603 374.649 117.898C373.629 118.193 372.519 118.34 371.317 118.34ZM387.581 118.34C386.425 118.34 385.473 118.193 384.725 117.898C383.977 117.603 383.422 117.229 383.059 116.776C382.719 116.323 382.549 115.835 382.549 115.314C382.549 114.929 382.663 114.611 382.889 114.362C383.139 114.113 383.49 113.988 383.943 113.988C384.193 113.988 384.408 114.033 384.589 114.124C384.793 114.215 385.009 114.317 385.235 114.43C385.485 114.543 385.779 114.645 386.119 114.736C386.482 114.827 386.947 114.872 387.513 114.872C388.919 114.872 390.109 114.713 391.083 114.396C392.081 114.056 392.772 113.535 393.157 112.832C392.976 112.379 392.613 112.027 392.069 111.778C391.525 111.529 390.879 111.313 390.131 111.132C389.383 110.951 388.601 110.758 387.785 110.554C386.992 110.327 386.244 110.055 385.541 109.738C384.861 109.398 384.306 108.956 383.875 108.412C383.445 107.868 383.229 107.165 383.229 106.304C383.229 105.42 383.49 104.627 384.011 103.924C384.533 103.221 385.224 102.632 386.085 102.156C386.947 101.68 387.899 101.317 388.941 101.068C389.984 100.819 391.027 100.705 392.069 100.728C392.772 100.728 393.361 100.841 393.837 101.068C394.313 101.295 394.665 101.589 394.891 101.952C395.141 102.315 395.265 102.689 395.265 103.074C395.265 103.482 395.152 103.811 394.925 104.06C394.721 104.309 394.404 104.434 393.973 104.434C393.769 104.434 393.577 104.423 393.395 104.4C393.237 104.377 393.055 104.366 392.851 104.366C392.647 104.343 392.375 104.332 392.035 104.332C390.766 104.332 389.667 104.513 388.737 104.876C387.808 105.216 387.117 105.737 386.663 106.44C386.799 106.848 387.139 107.177 387.683 107.426C388.227 107.675 388.873 107.891 389.621 108.072C390.392 108.253 391.185 108.446 392.001 108.65C392.84 108.854 393.611 109.126 394.313 109.466C395.039 109.783 395.628 110.214 396.081 110.758C396.535 111.302 396.761 111.993 396.761 112.832C396.761 114.101 396.342 115.144 395.503 115.96C394.665 116.776 393.554 117.377 392.171 117.762C390.789 118.147 389.259 118.34 387.581 118.34Z" fill="black" fill-opacity="0.8"/>
<path opacity="0.3" d="M174 171C174 168.791 175.791 167 178 167H466.25C468.459 167 470.25 168.791 470.25 171V211C470.25 213.209 468.459 215 466.25 215H178C175.791 215 174 213.209 174 211V171Z" fill="black" fill-opacity="0.8"/>
<path opacity="0.5" d="M174 249C174 246.791 175.791 245 178 245H417.5C419.709 245 421.5 246.791 421.5 249V289C421.5 291.209 419.709 293 417.5 293H178C175.791 293 174 291.209 174 289V249Z" fill="black" fill-opacity="0.2"/>
<path opacity="0.5" d="M174 327C174 324.791 175.791 323 178 323H445.25C447.459 323 449.25 324.791 449.25 327V367C449.25 369.209 447.459 371 445.25 371H178C175.791 371 174 369.209 174 367V327Z" fill="black" fill-opacity="0.2"/>
<path opacity="0.5" d="M174 405C174 402.791 175.791 401 178 401H466.25C468.459 401 470.25 402.791 470.25 405V445C470.25 447.209 468.459 449 466.25 449H178C175.791 449 174 447.209 174 445V405Z" fill="black" fill-opacity="0.2"/>
<path opacity="0.3" d="M531 86C531 83.7909 532.791 82 535 82H823C825.209 82 827 83.7909 827 86V606C827 608.209 825.209 610 823 610H535C532.791 610 531 608.209 531 606V86Z" fill="black" fill-opacity="0.2"/>
</g>
<path d="M156 32V34.25H687V32V29.75H156V32ZM711 56H708.75V501.5H711H713.25V56H711ZM687 525.5V523.25H156V525.5V527.75H687V525.5ZM132 501.5H134.25V56H132H129.75V501.5H132ZM156 525.5V523.25C143.988 523.25 134.25 513.512 134.25 501.5H132H129.75C129.75 515.997 141.503 527.75 156 527.75V525.5ZM711 501.5H708.75C708.75 513.512 699.012 523.25 687 523.25V525.5V527.75C701.497 527.75 713.25 515.997 713.25 501.5H711ZM687 32V34.25C699.012 34.25 708.75 43.9878 708.75 56H711H713.25C713.25 41.5025 701.497 29.75 687 29.75V32ZM156 32V29.75C141.503 29.75 129.75 41.5025 129.75 56H132H134.25C134.25 43.9878 143.988 34.25 156 34.25V32Z" fill="black" fill-opacity="0.32" mask="url(#path-2-inside-1_4_1790)"/>
</g>
<defs>
<clipPath id="paint0_diamond_4_1790_clip_path"><path d="M660 30H128V405H660V30Z"/></clipPath><linearGradient id="paint0_diamond_4_1790" x1="0" y1="0" x2="500" y2="500" gradientUnits="userSpaceOnUse">
<stop offset="0.666232"/>
<stop offset="0.847779" stop-opacity="0"/>
</linearGradient>
<linearGradient id="paint1_linear_4_1790" x1="181.914" y1="-9.125" x2="545.592" y2="584.496" gradientUnits="userSpaceOnUse">
<stop stop-color="white" stop-opacity="0"/>
<stop offset="1" stop-color="#333333" stop-opacity="0.08"/>
</linearGradient>
<clipPath id="clip0_4_1790">
<path d="M132 56C132 42.7452 142.745 32 156 32H687C700.255 32 711 42.7452 711 56V501.5C711 514.755 700.255 525.5 687 525.5H156C142.745 525.5 132 514.755 132 501.5V56Z" fill="white"/>
</clipPath>
</defs>
</svg>
