<svg width="24" height="24" viewBox="0 0 24 24" fill="none" xmlns="http://www.w3.org/2000/svg">
<path d="M4.69919 12.94C4.75919 13.04 4.94918 12.83 5.09918 12.75C5.23918 12.81 4.96918 12.92 4.87918 13.04C4.98918 13.07 5.22919 12.97 5.25919 13.03C5.22919 13.06 5.21918 13.08 5.15918 13.1C5.38918 13.05 5.31919 13.31 5.60919 13.23C5.58919 13.25 5.57917 13.27 5.55917 13.28C5.65917 13.19 5.77919 13.1 5.85919 13.05C5.88919 13.09 6.05919 13.03 5.91919 13.15C5.90919 13.12 5.84918 13.16 5.78918 13.18H5.87918C5.68918 13.37 5.75919 13.18 5.60919 13.28C5.73919 13.32 5.97918 13.28 5.96918 13.4C5.76918 13.56 5.78919 13.3 5.66919 13.52V13.36C5.39919 13.67 5.65919 13.28 5.35919 13.6C5.38919 13.77 5.56918 13.67 5.59918 13.85C5.73918 13.8 5.75917 13.72 5.89917 13.67C6.23917 13.71 5.47918 14.19 5.84918 14.13C6.00918 14.07 6.28918 13.9 6.21918 14.09L5.9592 14.22C6.0292 14.36 6.34918 14.05 6.28918 14.3C6.17918 14.34 6.13918 14.25 6.12918 14.3C6.00918 14.52 6.30918 14.27 6.34918 14.33L6.14917 14.49C6.27917 14.6 6.52917 14.65 6.67917 14.77C6.60917 14.81 6.5292 14.83 6.4892 14.91C6.7292 15.03 6.74919 15.33 6.75919 15.6L6.9892 15.54C6.9892 15.54 6.92918 15.63 6.87918 15.63C6.85918 15.75 6.99917 15.55 7.08917 15.54C7.12917 15.57 7.01919 15.67 6.94919 15.68C7.18919 15.7 7.52917 15.81 7.42917 16.08H7.35919C7.35919 16.25 7.8092 15.95 7.7092 16.16H7.66919C7.74919 16.44 8.08918 16.57 7.93918 16.94C8.21918 16.79 7.97918 17.24 8.34918 17C8.25918 17.25 8.16917 17.26 8.17917 17.53C8.19917 17.59 8.45918 17.44 8.53918 17.48L8.34918 17.61L8.60919 17.55L8.40918 17.75C8.40918 17.75 8.45918 17.75 8.49918 17.78C8.47918 17.73 8.54918 17.67 8.59918 17.63C8.74918 17.66 8.70918 18.06 8.62918 18.16C8.75918 18.24 8.88919 18.3 9.00919 18.36C8.94919 18.44 8.88918 18.4 8.81918 18.41C9.09918 18.4 8.6992 18.66 8.9592 18.65C8.9692 18.58 9.04918 18.53 9.06918 18.49C9.04918 18.71 9.19919 18.92 9.32919 19L9.2392 19.15C9.4292 19.49 9.68917 19.66 9.89917 19.96C9.82917 19.73 9.89919 19.35 9.94919 19.38V19.79C9.99919 19.6 9.8992 19.56 9.9892 19.38C10.0492 19.52 10.0192 19.9 9.9592 19.96H10.0592C10.0592 20.09 10.0392 20.12 10.0192 20.26C10.0592 20.06 10.1992 20.94 10.2592 20.57V20.71C10.2592 20.71 10.2892 20.74 10.2992 20.75C10.4992 20.42 10.5792 20.15 10.7392 19.88C10.6892 19.56 10.7692 19.53 10.7592 19.22C10.8792 19.15 11.0692 19.16 11.2092 18.91C11.2492 18.64 11.1492 18.67 11.1292 18.47C11.2292 18.67 11.3592 18.43 11.3692 18.68C11.5192 18.39 11.5692 18.29 11.6492 17.86C11.5692 17.84 11.5192 17.86 11.4892 17.79C11.4892 17.72 11.6192 17.73 11.6892 17.79V17.82C11.7092 17.53 11.8992 17.49 12.0792 17.44C12.2592 17.39 12.4292 17.33 12.3092 17.14V17.16L12.2592 16.87C12.3392 16.8 12.3492 17 12.4892 17C12.3392 16.64 12.7192 16.72 12.6392 16.44C13.1992 16.62 12.8792 15.98 13.2892 16L13.1692 15.94C13.0892 15.83 13.2692 15.93 13.3092 15.91C13.2192 15.86 13.1792 15.89 13.1292 15.83C13.2192 15.38 13.7692 15.17 14.1092 14.86C14.2292 14.74 13.5692 14.42 13.9492 14.41L14.1292 14.59C14.0492 14.15 14.4892 14.03 14.4492 13.62C14.4892 13.67 14.5492 13.71 14.5292 13.73C14.7192 13.77 14.6692 13.52 14.5492 13.44C14.5892 13.41 14.6692 13.5 14.7492 13.51C14.8792 13.51 14.6492 13.24 14.8192 13.31C14.8492 13.32 14.8592 13.36 14.8592 13.38C14.8092 13.3 14.9892 13.22 14.7892 13.14C14.9392 13.09 14.8292 12.9 14.9892 12.88C14.8292 12.7 15.1892 12.76 14.9292 12.57C15.2092 12.76 15.2692 12.54 15.1792 12.39C15.2492 12.47 15.3092 12.39 15.4092 12.49C15.4492 12.41 15.4392 12.31 15.2892 12.23C15.7192 12.31 15.1792 11.78 15.6692 11.98C15.6492 11.66 15.6692 11.4 15.7292 11.16C16.0092 11.35 15.6192 11.4 15.9292 11.58C15.9292 11.32 15.7492 11.06 15.9292 10.92C15.9992 10.9 16.0392 11.02 16.0792 11.07C16.0792 10.81 16.3292 10.73 16.2792 10.46C16.3092 10.48 16.3192 10.51 16.3392 10.54C16.3492 10.5 16.4292 10.49 16.2992 10.41L16.3192 10.46C16.0992 10.39 16.0092 10.08 15.9092 10.01C16.2492 10.3 16.1092 9.90001 16.5192 10.29C16.5092 10.25 16.4592 10.19 16.3692 10.14C16.4192 10.12 16.4692 10.14 16.5492 10.24C16.5492 10.08 16.3892 10.03 16.4592 9.93001C16.5192 9.97001 16.5292 10.01 16.5992 10.06C16.5092 9.93 16.4192 9.80001 16.5292 9.74001C16.5592 9.77001 16.6192 9.79001 16.5992 9.82001C16.6792 9.65001 16.4392 9.35001 16.6592 9.26001C16.8992 9.48001 16.7892 9.26001 17.0292 9.40001V9.26001L16.8792 9.22C16.9292 9.14 16.7992 8.96 16.9292 8.94L16.9892 9.06L17.0392 8.88L16.8992 8.91C16.8292 8.75 16.5892 8.73 16.7292 8.67C16.7392 8.71 16.7792 8.59 16.9492 8.64C16.8992 8.55 16.8392 8.46 16.9492 8.44C17.0392 8.47 17.1992 8.62 17.2592 8.64C17.0892 8.48 17.3192 8.42001 17.1392 8.24001C17.1792 8.29001 17.2992 8.37 17.3292 8.38L17.1892 8.25C17.2592 8.25 17.2892 8.25001 17.3892 8.32001C17.4892 8.23001 17.0692 8.17001 17.2792 8.12001C17.2792 8.14001 17.3092 8.15 17.3192 8.19C17.4692 8.1 17.3792 7.87 17.5292 7.8C17.7892 7.91 17.5292 7.94 17.7492 8.03C17.8192 7.83 17.6892 7.49001 17.8492 7.35001L17.7992 7.37001C17.4792 7.14001 18.0492 7.35 17.9392 7.16C17.9492 7.2 18.1092 7.3 18.0792 7.28C18.2092 7.2 18.1492 6.99 18.1492 6.75L18.2192 6.83C18.3392 6.81 18.3792 6.68 18.4592 6.63C18.3892 6.55 18.4292 6.52 18.2892 6.47C18.9292 6.55 18.2892 5.87 18.8292 5.92C18.8192 5.94 18.8692 6.03001 18.8792 6.01001L18.9092 5.79001C18.7492 5.71001 18.8092 5.76 18.6692 5.72C18.5992 5.64 18.5592 5.55001 18.5892 5.51001C18.6392 5.65001 18.8292 5.66 18.9292 5.67C18.8792 5.65 18.8392 5.6 18.7892 5.58C19.1092 5.65 18.4992 5.38001 18.7592 5.37001L18.8292 5.42C18.8192 5.35 18.7392 5.24001 18.7992 5.21001C18.9792 5.30001 18.8492 5.31001 18.9892 5.40001C19.0192 5.32001 18.7492 5.06001 18.9592 5.10001C18.9892 5.16001 18.9592 5.20001 18.9892 5.26001C19.2292 5.32001 19.1892 5.28 19.2492 5.25L19.4092 5.19H19.3392C18.9492 4.82 19.3692 4.96 19.1492 4.66C19.3492 4.95 19.2992 4.78 19.4792 4.91C19.5492 4.91 19.6392 4.91 19.6892 4.95C19.5692 4.8 19.8692 4.93001 19.6892 4.71001C19.7492 4.75001 19.7292 4.65001 19.8792 4.76001C19.8792 4.66001 19.7592 4.71001 19.6892 4.65001C19.5492 4.41001 20.1092 4.55001 19.9192 4.21001C19.8892 4.00001 19.6892 3.84001 19.6692 3.65001C19.7992 3.67001 19.8692 3.83 19.8692 3.83C19.9992 3.82 20.0192 3.75 19.9892 3.64C20.0392 3.69 20.0892 3.70001 20.1692 3.73001C20.1892 3.67001 19.9692 3.55001 20.0992 3.54001C20.1592 3.60001 20.2592 3.68 20.3192 3.75C20.2992 3.65 20.2192 3.52 20.2092 3.42C20.3292 3.47 20.3492 3.56 20.4092 3.63C20.4092 3.53 20.4292 3.38 20.2692 3.25H20.1792C20.1792 3.25 20.3392 3.34 20.3492 3.38C20.4492 3.53 20.2292 3.43001 20.1692 3.40001V3.33C19.7692 3.15 20.0992 3.55 20.0192 3.63L19.7792 3.43001L19.9392 3.66C19.8592 3.64 19.6992 3.56001 19.6892 3.49001C19.5192 3.47001 19.7492 3.61001 19.5692 3.57001C19.5392 3.57001 19.5292 3.55001 19.5292 3.54001L19.5692 3.65001C19.5692 3.65001 19.3792 3.54 19.4392 3.53C19.2092 3.55 19.5192 3.84001 19.2892 3.76001V3.74001C19.2692 3.96001 19.4592 3.88 19.6192 4.14L19.0892 3.92L19.2692 4.06C19.2692 4.06 19.2192 4.10001 19.1392 4.04001C19.2292 4.18001 19.2292 4.08 19.3292 4.2C19.0992 4.17 19.2792 4.47 18.9492 4.3C19.0792 4.42 19.1092 4.3 19.1592 4.44C18.8092 4.26 19.1592 4.57 18.9592 4.55C18.7992 4.42 18.9392 4.41 18.7392 4.39C18.9992 4.62 18.5892 4.49001 18.5992 4.59001C18.8292 4.74001 18.6092 4.78 18.6292 4.94C18.5592 4.89 18.3792 5.06001 18.2392 5.10001L18.1992 5.07001C18.4192 5.23001 18.3192 5.31 18.3192 5.41C18.1792 5.32 18.1292 5.27 18.0992 5.19L18.0592 5.26001C18.1192 5.32001 18.1492 5.37001 18.1492 5.43001L17.9892 5.3C17.9392 5.4 18.0792 5.61001 17.8892 5.65001C18.0492 5.76001 18.3992 5.84 18.4292 6.03C18.3392 5.98 18.1892 5.89001 18.1692 5.84001C18.1692 5.86001 18.2192 5.92 18.1692 5.92L18.0492 5.78C17.9492 5.79 18.1592 5.89 18.1192 5.92C17.9892 5.84 18.0092 5.9 17.9092 5.83C17.9092 5.81 17.9892 5.83 17.9492 5.78C17.8992 5.81 17.7892 5.82 17.6792 5.78C17.7492 5.82 17.8492 5.89001 17.8392 5.93001C17.7892 6.03001 17.6692 5.87 17.5692 5.88C17.6392 5.96 17.5192 5.96 17.6992 6.08C17.6792 6.11 17.5892 6.06 17.5292 6.03C17.5792 6.13 17.4192 6.26001 17.6492 6.34001H17.6692C17.7592 6.61001 17.3592 6.59001 17.3492 6.79001L17.2892 6.75C17.3092 6.89 17.2092 6.98 17.2992 7.13C17.2792 7.16 17.1492 7.13 17.0792 7.06C17.0792 7.16 17.1492 7.21 16.9792 7.25C16.9092 7.11 16.8692 7.21 16.9392 7.13C16.8292 7.19 16.7192 7.14001 16.8292 7.35001C16.6892 7.22001 16.5892 7.29 16.6092 7.36H16.7592C16.7592 7.43 16.7092 7.46 16.6692 7.5L16.4692 7.34001C16.0992 7.36001 16.6992 7.95001 16.1792 7.82001C16.2992 7.96001 16.3492 7.78 16.4892 7.94C16.4092 8.01 16.0492 7.91 16.0292 7.94C15.8392 7.98 16.2692 8.24 16.1192 8.31C16.2092 8.34 16.4192 8.45001 16.4292 8.59001C16.3492 8.66001 16.0492 8.5 16.0192 8.41C16.0192 8.39 16.0592 8.39 16.0792 8.41C16.0692 8.37 16.0592 8.31001 15.9592 8.29001L16.0292 8.35001C15.9292 8.35001 15.8592 8.47 15.7492 8.36C15.7792 8.47 15.8592 8.46 15.9292 8.44C15.7492 8.48 15.8192 8.61 15.6792 8.67C15.7292 8.67 15.8292 8.72001 15.8192 8.73001C15.6192 8.84001 15.9192 8.89 15.8792 9.02C15.7292 9.02 15.6192 8.83 15.6492 9C15.5292 9.02 15.4392 8.89001 15.3992 8.82001C15.4792 9.01001 15.1892 8.95001 15.1192 8.99001L15.0892 8.90001C15.1092 8.95001 15.0892 8.98001 15.0692 9.01001L15.2392 9.07001C15.2392 9.07001 15.1792 9.11001 15.1092 9.07001C15.1892 9.16001 15.3792 9.20001 15.4692 9.35001C15.3692 9.35001 15.4692 9.53 15.2592 9.42C15.4092 9.33 15.0492 9.31001 15.0892 9.18001C15.0992 9.22001 15.0892 9.24001 15.0392 9.26001C15.0092 9.26001 14.9992 9.23001 14.9992 9.21001C14.7392 9.22001 15.1892 9.41001 15.0992 9.54001C14.9992 9.45001 14.8692 9.44 14.8792 9.47C14.9192 9.42 15.0792 9.56 15.1392 9.67C14.9992 9.7 15.1392 9.80001 15.1092 9.84001L15.1792 9.82001C15.2792 9.91001 15.2392 9.94 15.2392 10.02C15.1492 9.97 15.2092 9.93001 15.1592 9.93001C15.3192 10.12 14.8592 9.95001 14.9392 10.12C14.8392 10.12 14.7292 9.99 14.6492 10C14.7292 10.19 14.4292 10.01 14.4792 10.2C14.6492 10.26 14.6192 10.24 14.7192 10.4V10.16L14.8692 10.41C14.9092 10.36 14.8392 10.24 14.8892 10.22C14.9792 10.35 14.9492 10.32 15.0892 10.38C14.8192 10.31 15.1292 10.61 14.9292 10.6L14.5592 10.36C14.3092 10.38 14.6092 10.71 14.4192 10.81H14.5192C14.6592 10.91 14.4792 10.91 14.4992 11C14.3792 10.92 14.3092 10.92 14.2192 10.9C14.3092 10.96 14.1392 11.01 14.3792 11.19L14.1692 11.16C14.0192 11.25 14.4292 11.53 14.3092 11.64C14.1992 11.52 14.0692 11.52 14.0292 11.37C13.9992 11.41 13.9592 11.44 14.0392 11.49C13.9492 11.47 14.1392 11.71 13.9892 11.68C14.0292 11.73 14.1592 11.82 14.1192 11.86C14.0892 11.85 14.0592 11.82 14.0592 11.82C14.1192 11.86 14.0992 11.95 14.2592 11.99C13.7892 11.88 14.0592 12.37 13.6492 12.28C13.6292 12.4 13.5992 12.54 13.5592 12.63C13.5292 12.6 13.4992 12.59 13.5192 12.58C13.3292 12.62 13.8392 12.88 13.6192 12.93C13.3692 12.87 13.5492 12.79 13.4492 12.79C13.0292 12.55 13.4092 12.98 13.1092 12.92V12.88C12.9192 12.86 13.1492 13.14 13.0492 13.24C13.0492 13.24 13.0192 13.21 12.9892 13.2C13.1492 13.41 13.1292 13.6 13.1192 13.74C12.9792 13.61 13.0592 13.64 12.8892 13.56C12.8892 13.62 13.1592 13.71 13.1492 13.84C13.0392 13.82 12.9192 13.84 12.7392 13.74L12.7892 13.64C12.5292 13.54 12.7192 13.76 12.6592 13.78L12.5592 13.71C12.5092 13.87 12.7492 14.03 12.6392 14.16L12.7192 14.19C12.9192 14.43 12.5392 14.17 12.6692 14.37L12.3992 14.24C12.4292 14.33 12.5292 14.58 12.5092 14.71C12.3592 14.54 12.3292 14.37 12.2692 14.23C12.2292 14.28 12.1792 14.42 12.2792 14.53C12.2692 14.49 12.2192 14.43 12.2792 14.43C12.4392 14.62 12.4792 14.76 12.4092 14.87C11.9392 14.55 12.1092 15.07 11.6892 14.91C11.7492 15.21 11.3792 15.23 11.2692 15.47C11.6992 15.63 11.2392 15.54 11.6392 15.77C11.6392 15.84 11.6092 15.85 11.5892 15.84H11.2592C11.1192 15.81 11.1992 15.75 11.1092 15.7C11.0092 15.79 10.9192 15.64 10.7692 15.65C10.9192 15.72 10.9492 15.81 10.8492 15.84L11.0892 15.86C11.1992 16.14 10.6792 15.79 10.7892 16.08L10.6992 15.95C10.7192 16.08 10.5092 16.25 10.7792 16.52C10.7292 16.51 10.6092 16.46 10.5992 16.41C10.5192 16.49 10.5292 16.65 10.5292 16.79C10.5492 16.9 10.5792 16.96 10.4792 16.91L10.3992 16.82C10.3992 16.82 10.5392 17 10.4492 16.93C10.4192 16.89 10.3792 16.84 10.3692 16.83C10.3992 16.86 10.4792 17.03 10.4292 16.98L10.3592 16.85C10.2592 16.74 10.4792 17.23 10.4392 17.44C10.2992 17.03 10.2492 16.92 10.2292 16.85V16.78C10.2292 16.78 10.2292 17.04 10.1992 17.36C10.1992 17.42 10.1792 17.47 10.1692 17.5C10.1592 16.86 10.0792 17.11 10.1092 16.81C10.0892 16.89 10.0192 17.12 9.9892 17.14C10.0092 17.05 9.8492 17.34 9.9892 17.01C10.1192 16.69 10.0792 16.77 10.0692 16.75L9.83917 17.11C9.97917 16.81 9.93919 16.84 9.85919 16.84C9.79919 16.85 9.61917 16.72 9.80917 16.54C9.69917 16.55 9.65918 16.49 9.53918 16.5L9.71918 16.38C9.66918 16.22 9.64918 16.14 9.49918 16.01L9.64917 15.95C9.59917 15.85 9.06918 16.19 8.99918 16.12L9.2392 15.91C9.1292 15.76 9.23917 15.44 8.89917 15.45C8.93917 15.43 9.01919 15.38 9.04919 15.4C9.00919 15.32 9.02918 14.99 8.68918 15.27C8.91918 15.1 8.59918 15.09 8.43918 15.08L8.61917 14.97C8.34917 15.05 8.28918 15.09 8.15918 15.04C8.15918 15 8.27919 14.92 8.25919 14.99C8.28919 14.85 8.05919 15.04 8.07919 14.88L8.2092 14.84C8.1692 14.75 8.10919 14.8 7.94919 14.84C7.84919 14.84 7.88917 14.66 8.02917 14.54C7.92917 14.6 7.76917 14.64 7.77917 14.56C7.82917 14.51 7.87918 14.5 7.90918 14.5C7.92918 14.28 7.56919 14.44 7.66919 14.23C7.72919 14.19 7.74919 14.16 7.75919 14.14C7.82919 14.25 7.87919 14.34 7.85919 14.34C8.01919 14.23 7.97918 14.12 8.24918 14.04C8.07918 14.05 7.73919 14.12 7.75919 13.98C7.76919 13.97 7.78917 13.95 7.80917 13.93H7.82919C7.82919 13.93 7.8092 13.89 7.7692 13.89C7.7692 13.84 7.7792 13.81 7.7692 13.79C7.8892 13.69 7.76918 13.64 7.74918 13.59C7.57918 13.72 7.5692 13.64 7.4592 13.79C7.4592 13.77 7.48919 13.79 7.50919 13.81C7.50919 13.81 7.52918 13.81 7.53918 13.81H7.5192C7.5192 13.81 7.56919 13.88 7.60919 13.92C7.49919 13.95 7.3992 13.96 7.4592 13.85C7.3292 13.9 7.19919 13.96 7.13919 13.99C7.33919 13.76 7.38917 13.56 7.52917 13.44C7.33917 13.38 7.24917 13.18 6.86917 13.32C6.79917 13.32 6.92918 13.21 6.96918 13.16C7.01918 13.16 7.02917 13.19 7.08917 13.16C6.94917 13.14 6.89918 12.96 6.65918 13.1C6.69918 12.93 6.90917 13.01 6.77917 12.9L6.85919 12.87C7.03919 12.36 5.98919 12.87 6.25919 12.25C6.24919 12.29 6.23919 12.31 6.19919 12.34C6.17919 11.87 5.53919 11.81 5.63919 11.27C5.63919 11.13 5.48917 11.23 5.33917 11.25L5.50919 11.1L5.22919 11.16C4.97919 11.14 5.51919 10.61 5.10919 10.65L4.99918 10.76C4.97918 10.68 4.78918 10.62 4.93918 10.53C4.90918 10.53 4.79917 10.6 4.83917 10.53L4.93918 10.46L4.66919 10.43C4.65919 10.26 5.06918 10.18 4.96918 9.99001C4.88918 9.95001 4.55919 10.01 4.50919 10.08C4.51919 10.11 4.49917 10.19 4.39917 10.26L4.30917 10.24C4.01917 10.43 3.68917 10.59 3.58917 10.87L3.82919 10.85L3.7092 10.98L3.63919 10.9C3.53919 11.04 3.67917 10.99 3.77917 10.96C3.70917 11.02 3.66918 11.07 3.65918 11.11L3.99918 11.01C3.89918 11.1 3.74919 11.12 3.72919 11.23C3.88919 11.19 3.94917 11.01 4.08917 11.03C3.98917 11.17 3.87917 11.23 4.02917 11.21C3.95917 11.27 3.90919 11.29 3.85919 11.29C3.97919 11.28 3.98918 11.39 4.15918 11.31C4.02918 11.47 4.31919 11.45 4.04919 11.63C4.12919 11.6 4.31917 11.57 4.36917 11.6C3.98917 11.75 4.46919 11.78 4.10919 12.01C4.43919 11.87 4.38918 12.14 4.62918 12.13C4.59918 12.14 4.54917 12.16 4.55917 12.14C4.57917 12.22 4.49919 12.3 4.47919 12.38C4.72919 12.22 4.84917 12.27 5.02917 12.22C4.84917 12.46 4.71919 12.37 4.50919 12.55C4.69919 12.41 4.79918 12.55 4.93918 12.4C4.83918 12.56 4.90919 12.5 4.72919 12.67C5.03919 12.47 4.81918 12.69 5.03918 12.6C4.94918 12.79 4.76917 12.82 4.92917 12.85C4.86917 12.96 4.7092 12.95 4.7092 12.95L4.69919 12.94ZM6.7392 14.73C6.7392 14.73 6.70919 14.7 6.69919 14.69C6.69919 14.69 6.7192 14.71 6.7392 14.73ZM6.86917 14.91C6.86917 14.91 6.83918 14.85 6.81918 14.83C6.87918 14.78 6.93919 14.75 6.94919 14.77C6.89919 14.79 6.89917 14.86 6.86917 14.92V14.91ZM7.79919 13.68C7.79919 13.68 7.81918 13.72 7.78918 13.75C7.77918 13.74 7.75919 13.73 7.72919 13.71H7.7092C7.7092 13.71 7.77919 13.68 7.79919 13.67V13.68Z" fill="black" fill-opacity="0.8"/>
</svg>
