<svg width="16" height="16" viewBox="0 0 16 16" fill="none" xmlns="http://www.w3.org/2000/svg">
<path d="M14.2864 4.90405C14.2598 4.86405 14.1864 4.80405 14.1864 4.83072L14.2931 4.95738V4.89738L14.2864 4.90405Z" fill="black" fill-opacity="0.8"/>
<path d="M13.9521 4.80408C13.9854 4.88408 14.0654 5.00408 14.1854 5.09741C14.0921 4.96408 14.1454 5.00408 14.0321 4.85075C14.0321 4.81741 14.0987 4.85741 14.1387 4.90408C14.1121 4.87075 14.1921 4.90408 14.1254 4.81741C14.0121 4.75075 13.9787 4.77741 14.0254 4.87741C13.9921 4.85741 13.9721 4.82408 13.9521 4.79741V4.80408Z" fill="black" fill-opacity="0.8"/>
<path d="M12.0719 6.32403H12.0985C12.0985 6.32403 12.0785 6.32403 12.0719 6.32403Z" fill="black" fill-opacity="0.8"/>
<path d="M10.9524 7.31739C10.9524 7.31739 10.9524 7.29073 10.939 7.27739C10.939 7.29073 10.939 7.30406 10.9524 7.31739Z" fill="black" fill-opacity="0.8"/>
<path d="M10.6465 7.37069C10.6465 7.37069 10.6599 7.37069 10.6665 7.37069C10.6532 7.36403 10.6399 7.36403 10.6465 7.37069Z" fill="black" fill-opacity="0.8"/>
<path d="M12.0734 6.32403H12.0068C12.0401 6.35736 12.0468 6.32403 12.0734 6.32403Z" fill="black" fill-opacity="0.8"/>
<path d="M14.0071 5.32406C14.0071 5.32406 14.0071 5.29739 13.9937 5.27739V5.30406L14.0071 5.32406Z" fill="black" fill-opacity="0.8"/>
<path d="M12.4385 5.76406H12.4452C12.4452 5.76406 12.4185 5.72406 12.4052 5.6974L12.4385 5.76406Z" fill="black" fill-opacity="0.8"/>
<path d="M12.7802 5.39076C12.7802 5.39076 12.8669 5.49742 12.9069 5.54409C12.8735 5.49742 12.8602 5.47076 12.8535 5.45742C12.8335 5.43742 12.8069 5.41742 12.7802 5.39076Z" fill="black" fill-opacity="0.8"/>
<path d="M13.5198 5.00409V4.97743C13.5198 4.97743 13.5198 4.99076 13.5198 5.00409Z" fill="black" fill-opacity="0.8"/>
<path d="M12.1665 5.99741C12.1665 5.99741 12.1332 5.97075 12.1265 5.96408C12.1399 5.97741 12.1532 5.98408 12.1665 5.99741Z" fill="black" fill-opacity="0.8"/>
<path d="M1.99894 5.55073C1.99894 5.55073 2.01227 5.5374 2.01894 5.53073C2.00561 5.5374 1.99894 5.54406 1.99894 5.55073Z" fill="black" fill-opacity="0.8"/>
<path d="M2.07967 4.64404H2.09301L2.14634 4.59071L2.07967 4.64404Z" fill="black" fill-opacity="0.8"/>
<path d="M7.93874 9.73736C7.89207 9.87069 7.83207 9.85736 7.7854 10.0107C7.81207 9.96402 7.91207 9.83069 7.93874 9.73736Z" fill="black" fill-opacity="0.8"/>
<path d="M13.9784 5.31735C13.9784 5.31735 13.9718 5.33069 13.9651 5.33069C13.9718 5.33069 13.9784 5.32402 13.9784 5.31735Z" fill="black" fill-opacity="0.8"/>
<path d="M7.7854 10.004V10.0174C7.7854 10.0107 7.7854 10.004 7.7854 10.004Z" fill="black" fill-opacity="0.8"/>
<path d="M9.48592 8.39076C9.48592 8.39076 9.51926 8.41742 9.53926 8.42409C9.52592 8.41742 9.51259 8.40409 9.48592 8.39076Z" fill="black" fill-opacity="0.8"/>
<path d="M10.1923 7.96408H10.1656C10.1656 7.96408 10.1856 7.96408 10.1923 7.96408Z" fill="black" fill-opacity="0.8"/>
<path d="M9.33378 8.82402C9.33378 8.82402 9.30045 8.81069 9.30712 8.83736C9.30712 8.83736 9.32044 8.83736 9.32044 8.84402C9.31377 8.82402 9.30711 8.81736 9.33378 8.82402Z" fill="black" fill-opacity="0.8"/>
<path d="M9.02498 9.13075L9.05166 9.14408L9.05832 9.13075H9.02498Z" fill="black" fill-opacity="0.8"/>
<path d="M2.97807 6.43069C2.99807 6.39736 3.02473 6.36403 3.0514 6.32403C2.98474 6.39736 2.91807 6.37736 2.97807 6.43069Z" fill="black" fill-opacity="0.8"/>
<path d="M13.9469 5.27072C13.9469 5.27072 13.9802 5.31072 13.9802 5.32405V5.31072C13.9802 5.31072 13.9602 5.28405 13.9469 5.27739V5.27072Z" fill="black" fill-opacity="0.8"/>
<path d="M10.1058 9.6174L10.0458 9.65073C10.0458 9.65073 10.0925 9.6374 10.1058 9.6174Z" fill="black" fill-opacity="0.8"/>
<path d="M5.18561 8.61073H5.16561C5.16561 8.61073 5.17227 8.61739 5.18561 8.61073Z" fill="black" fill-opacity="0.8"/>
<path d="M9.91259 9.81072C9.86592 9.78406 9.83925 9.77072 9.81925 9.77072C9.81925 9.77739 9.82592 9.79072 9.83925 9.80406L9.91259 9.81739V9.81072Z" fill="black" fill-opacity="0.8"/>
<path d="M2.50061 6.24403C2.54728 6.2907 2.64728 6.13736 2.73395 6.0707C2.82728 6.0907 2.66061 6.1907 2.61394 6.27736C2.68061 6.27736 2.82728 6.18403 2.84728 6.21736C2.82728 6.24403 2.82728 6.2507 2.79395 6.27736C2.93395 6.2107 2.90727 6.37736 3.08061 6.2907C3.07394 6.30403 3.06061 6.31736 3.05394 6.3307C3.11394 6.25736 3.18061 6.1907 3.22727 6.14403C3.24727 6.16403 3.34728 6.09736 3.27395 6.1907C3.26061 6.17736 3.22727 6.2107 3.19394 6.2307L3.25395 6.21736C3.15395 6.35736 3.18061 6.2307 3.09394 6.32403C3.17394 6.32403 3.32728 6.27736 3.32728 6.34403C3.21395 6.4707 3.21394 6.3107 3.14728 6.45736V6.36403C2.99394 6.5907 3.12728 6.31736 2.96061 6.55736C2.99395 6.65736 3.09395 6.5707 3.12728 6.6707C3.20728 6.61736 3.22061 6.56403 3.30061 6.51736C3.51394 6.4907 3.07394 6.8907 3.30061 6.80403C3.40061 6.74403 3.56061 6.59736 3.52727 6.72403L3.37394 6.84403C3.42728 6.92403 3.60727 6.68403 3.58061 6.84403C3.51394 6.88403 3.48728 6.84403 3.48061 6.86403C3.41394 7.01736 3.58727 6.81736 3.62061 6.8507L3.50727 6.97736C3.59394 7.02403 3.75394 7.01736 3.85394 7.0707C3.81394 7.10403 3.76061 7.12403 3.74727 7.18403C3.90061 7.21736 3.93394 7.40403 3.95394 7.56403L4.09394 7.49736C4.09394 7.49736 4.06061 7.55736 4.03395 7.5707C4.03395 7.64403 4.10061 7.50403 4.16061 7.48403C4.18728 7.49736 4.12727 7.5707 4.08061 7.5907C4.23394 7.56403 4.44728 7.58403 4.40728 7.75736L4.36061 7.77736C4.36727 7.8707 4.63394 7.62403 4.58061 7.7707H4.55394C4.62061 7.93736 4.84061 7.96403 4.76727 8.2107C4.93394 8.07736 4.81394 8.3907 5.02727 8.1907C4.98727 8.35736 4.93394 8.37736 4.95394 8.53736C4.96727 8.5707 5.12061 8.44403 5.17394 8.4507L5.06728 8.55736L5.22061 8.48403L5.11394 8.63736H5.16728C5.16728 8.63736 5.19394 8.56403 5.22727 8.53736C5.32061 8.53736 5.26061 8.71736 5.20061 8.77736L5.39394 8.7907C5.34727 8.8307 5.31395 8.8307 5.27395 8.84403C5.44061 8.7907 5.16727 8.9707 5.32061 8.91736C5.34061 8.88403 5.38727 8.85736 5.41394 8.83736C5.37394 8.9307 5.42728 8.98403 5.50061 9.00403L5.42061 9.0707C5.48061 9.16403 5.62061 9.19736 5.70061 9.28403C5.70061 9.21736 5.8406 9.09736 5.8806 9.1107L5.77395 9.23736C5.86061 9.18403 5.79394 9.1707 5.91394 9.1107C5.93394 9.15736 5.80727 9.26403 5.74727 9.28403H5.82728C5.79395 9.31736 5.76728 9.3307 5.72061 9.3707C5.80728 9.31736 5.67394 9.5507 5.82061 9.4507L5.78727 9.48403C5.87394 9.5707 5.95394 9.5707 6.02727 9.63736C6.12727 9.53736 6.13395 9.5907 6.23395 9.5307C6.25395 9.6107 6.23394 9.7507 6.30061 9.80403C6.39394 9.80403 6.40061 9.7307 6.47395 9.6907C6.38728 9.78403 6.45394 9.83736 6.36061 9.8707C6.44727 9.9307 6.47395 9.9507 6.64061 9.9707C6.66728 9.92403 6.67394 9.89736 6.70727 9.8707C6.74061 9.8707 6.70728 9.9507 6.66061 9.9907H6.64728C6.88728 9.96403 6.62728 10.504 6.90061 10.3974H6.88728H7.07394C7.10061 10.4507 6.98061 10.444 6.95394 10.524C7.17394 10.4374 7.16061 10.7774 7.36061 10.7774C7.31394 10.9974 7.42728 11.104 7.54061 11.1774C7.65394 11.2574 7.76061 11.304 7.82061 11.5374V11.4174C7.87394 11.344 7.86061 11.5307 7.89394 11.584C7.89394 11.4907 7.86061 11.4374 7.89394 11.3974C7.94727 11.424 8.00061 11.4707 8.05394 11.524C8.29394 11.2774 8.61394 11.204 8.96727 10.9507C9.12061 10.8307 8.75395 10.5107 9.03395 10.5374C9.06728 10.584 9.08728 10.644 9.10728 10.6974C9.13395 10.3907 9.39394 10.4174 9.41394 10.1574C9.43394 10.1907 9.46727 10.2307 9.45394 10.2374C9.56727 10.2974 9.56061 10.1374 9.49395 10.0707C9.52061 10.0574 9.56061 10.1307 9.60728 10.1507C9.68728 10.1707 9.56728 9.9707 9.66728 10.044C9.68061 10.0574 9.68728 10.0774 9.68728 10.0907C9.66728 10.0307 9.78061 10.0174 9.66728 9.93736C9.76061 9.93736 9.72061 9.79736 9.81394 9.81736C9.72728 9.68403 9.95395 9.78403 9.80728 9.62403C9.96061 9.7907 10.0206 9.66403 9.98061 9.55736C10.0206 9.61736 10.0606 9.57736 10.1139 9.65736C10.1473 9.61736 10.1473 9.55736 10.0606 9.48403C10.3206 9.6107 10.0406 9.19736 10.3206 9.40403C10.3406 9.2107 10.3806 9.05736 10.4406 8.92403C10.5939 9.08403 10.3539 9.04403 10.5206 9.2107C10.5473 9.05736 10.4606 8.86403 10.5873 8.81736C10.6339 8.81736 10.6406 8.89736 10.6606 8.93736C10.6873 8.78403 10.8473 8.77736 10.8406 8.6107C10.8539 8.62403 10.8606 8.6507 10.8673 8.6707C10.8806 8.6507 10.9273 8.65736 10.8539 8.58403V8.61736C10.7273 8.53736 10.7006 8.33736 10.6473 8.27736C10.8273 8.5107 10.7806 8.2507 11.0006 8.55736C11.0006 8.5307 10.9739 8.48403 10.9273 8.43736C10.9539 8.43736 10.9873 8.45736 11.0273 8.5307C11.0473 8.43736 10.9473 8.37736 11.0006 8.3307C11.0339 8.36403 11.0406 8.3907 11.0739 8.43736C11.0339 8.34403 10.9873 8.2507 11.0606 8.23736C11.0806 8.26403 11.1139 8.28403 11.1006 8.29736C11.1673 8.2107 11.0473 7.9907 11.1939 7.9707C11.3206 8.14403 11.2739 7.9907 11.4073 8.11736V8.03736L11.3273 7.9907C11.3673 7.95736 11.3073 7.82403 11.3806 7.83736L11.4073 7.91736L11.4539 7.81736H11.3606C11.3339 7.70403 11.1873 7.64403 11.2806 7.6307C11.2806 7.65736 11.3206 7.5907 11.4206 7.6507C11.4006 7.5907 11.3739 7.52403 11.4339 7.5307C11.4806 7.56403 11.5739 7.68403 11.6073 7.70403C11.5139 7.57736 11.6673 7.58403 11.5739 7.44403C11.5939 7.47736 11.6606 7.5507 11.6806 7.56403L11.6073 7.45736C11.6539 7.4707 11.6673 7.47736 11.7206 7.53736C11.7939 7.49736 11.5339 7.38403 11.6739 7.39736C11.6739 7.4107 11.6939 7.41736 11.6939 7.44403C11.7939 7.41736 11.7606 7.26403 11.8606 7.2507C12.0139 7.36403 11.8406 7.33736 11.9739 7.42403C12.0339 7.31736 11.9873 7.0907 12.1006 7.03736H12.0739C11.9006 6.83736 12.2273 7.0707 12.1806 6.93736C12.1806 6.96403 12.2739 7.05736 12.2539 7.0307C12.3406 7.00403 12.3206 6.8707 12.3473 6.72403L12.3873 6.78403C12.4606 6.7907 12.5006 6.72403 12.5539 6.7107C12.5139 6.6507 12.5473 6.63736 12.4606 6.58403C12.8473 6.7507 12.5206 6.22403 12.8473 6.35736C12.8339 6.3707 12.8606 6.4307 12.8739 6.41736L12.9139 6.2907C12.8273 6.21736 12.8539 6.2507 12.7739 6.20403C12.7339 6.14403 12.7206 6.08403 12.7406 6.06403C12.7539 6.15736 12.8739 6.19736 12.9339 6.22403C12.9073 6.20403 12.8873 6.1707 12.8606 6.14403C13.0473 6.24403 12.7006 5.9707 12.8606 6.0107L12.9006 6.05736C12.9006 6.0107 12.8673 5.93736 12.9006 5.92403C13.0073 6.0107 12.9206 5.9907 13.0006 6.0707C13.0273 6.0307 12.8873 5.82403 13.0139 5.8907C13.0273 5.9307 13.0073 5.9507 13.0139 5.9907C13.1606 6.0707 13.1339 6.03736 13.1739 6.0307L13.2806 6.02403L13.2339 6.0107C13.0273 5.72403 13.2739 5.87736 13.1673 5.66403C13.2673 5.8707 13.2473 5.76403 13.3473 5.8707C13.3939 5.88403 13.4473 5.89736 13.4739 5.9307C13.4139 5.81736 13.5873 5.9507 13.5006 5.7907C13.5339 5.82403 13.5339 5.76403 13.6139 5.85736C13.6206 5.79736 13.5473 5.80403 13.5073 5.75736C13.4406 5.58403 13.7739 5.7707 13.6939 5.53736C13.6939 5.40403 13.5873 5.27736 13.5939 5.15736C13.6673 5.1907 13.7006 5.29736 13.7006 5.29736C13.7873 5.31736 13.8006 5.27736 13.7939 5.2107C13.8206 5.24403 13.8473 5.26403 13.9006 5.29736C13.9139 5.26403 13.7939 5.15736 13.8739 5.1707C13.9073 5.21736 13.9606 5.28403 13.9873 5.33736C13.9873 5.27736 13.9539 5.18403 13.9539 5.11736C14.0206 5.1707 14.0273 5.22403 14.0539 5.27736C14.0606 5.21736 14.0873 5.1307 14.0073 5.02403L13.9539 5.0107C13.9539 5.0107 14.0406 5.08403 14.0473 5.1107C14.0939 5.21736 13.9739 5.12403 13.9339 5.0907V5.04403C13.7073 4.86403 13.8806 5.16403 13.8206 5.19736L13.6939 5.0307L13.7673 5.19736C13.7206 5.1707 13.6273 5.0907 13.6273 5.0507C13.5206 5.0107 13.6539 5.1307 13.5406 5.07736C13.5273 5.0707 13.5206 5.05736 13.5139 5.0507L13.5273 5.12403C13.5006 5.08403 13.4206 5.02403 13.4606 5.0307C13.3206 5.00403 13.4806 5.2307 13.3473 5.14403V5.1307C13.3139 5.25736 13.4406 5.24403 13.5139 5.4307L13.2073 5.20403L13.3073 5.31736C13.3073 5.31736 13.2739 5.3307 13.2339 5.28403C13.2806 5.3907 13.2873 5.32403 13.3406 5.4107C13.2006 5.3507 13.2806 5.56403 13.1006 5.39736C13.1673 5.4907 13.2006 5.42403 13.2139 5.52403C13.0139 5.3507 13.2006 5.60403 13.0806 5.5507C12.9939 5.44403 13.0806 5.46403 12.9606 5.4107C13.1006 5.5907 12.8539 5.44403 12.8606 5.50403C12.9873 5.6307 12.8473 5.62403 12.8406 5.71736C12.8006 5.6707 12.6739 5.74403 12.5806 5.74403L12.5606 5.72403C12.6806 5.86403 12.6073 5.88403 12.6006 5.9507C12.5273 5.8707 12.5006 5.83736 12.4873 5.78403L12.4539 5.81736C12.4873 5.86403 12.5006 5.89736 12.4939 5.93736L12.4073 5.8307C12.3673 5.87736 12.4339 6.0307 12.3139 6.02403C12.4006 6.11736 12.6139 6.2307 12.6139 6.3507C12.5606 6.30403 12.4739 6.22403 12.4739 6.18403C12.4739 6.19736 12.4939 6.24403 12.4673 6.2307L12.4073 6.12403C12.3473 6.1107 12.4606 6.20403 12.4339 6.21736C12.3673 6.14403 12.3673 6.18403 12.3139 6.12403C12.3139 6.1107 12.3606 6.13736 12.3406 6.09736C12.3073 6.1107 12.2339 6.09736 12.1739 6.0507C12.2139 6.0907 12.2673 6.14403 12.2606 6.1707C12.2206 6.21736 12.1606 6.10403 12.1006 6.0907C12.1406 6.1507 12.0606 6.12403 12.1673 6.2307C12.1539 6.24403 12.1006 6.19736 12.0673 6.1707C12.0939 6.23736 11.9739 6.2907 12.1139 6.37736H12.1273C12.1273 6.37736 12.1273 6.37736 12.1273 6.38403C12.1539 6.56403 11.9139 6.47736 11.8873 6.59736L11.8539 6.56403C11.8539 6.6507 11.7806 6.68403 11.8206 6.7907C11.8073 6.80403 11.7273 6.75736 11.6873 6.7107C11.6806 6.7707 11.7139 6.8107 11.6073 6.80403C11.5806 6.7107 11.5406 6.76403 11.5939 6.72403C11.5206 6.73736 11.4539 6.6907 11.5006 6.8307C11.4273 6.72403 11.3539 6.7507 11.3606 6.79736L11.4539 6.8307C11.4406 6.86403 11.4139 6.87736 11.3873 6.8907L11.2806 6.76403C11.0473 6.7107 11.3606 7.1707 11.0539 6.99736C11.1139 7.10403 11.1606 7.00403 11.2339 7.12403C11.1739 7.1507 10.9673 7.02403 10.9539 7.03736C10.8339 7.0307 11.0739 7.26403 10.9673 7.27736C11.0139 7.3107 11.1339 7.41736 11.1339 7.49736C11.0806 7.52403 10.9073 7.3707 10.9006 7.3107C10.9006 7.29736 10.9273 7.3107 10.9406 7.31736C10.9406 7.2907 10.9406 7.2507 10.8739 7.22403L10.9073 7.2707C10.8473 7.2507 10.7939 7.3107 10.7339 7.22403C10.7406 7.29736 10.7873 7.30403 10.8339 7.30403C10.7206 7.29736 10.7473 7.38403 10.6539 7.39736C10.6873 7.4107 10.7406 7.4507 10.7339 7.46403C10.6006 7.4907 10.7806 7.57736 10.7406 7.6507C10.6473 7.61736 10.6006 7.48403 10.6006 7.59736C10.5273 7.58403 10.4806 7.4907 10.4606 7.44403C10.4939 7.57736 10.3139 7.48403 10.2739 7.49736V7.43736C10.2739 7.4707 10.2606 7.48403 10.2473 7.49736L10.3473 7.56403C10.3473 7.56403 10.3073 7.57736 10.2673 7.54403C10.3073 7.61736 10.4206 7.6707 10.4606 7.77736C10.4006 7.75736 10.4473 7.88403 10.3273 7.77736C10.4273 7.7507 10.2073 7.6707 10.2473 7.59736C10.2473 7.62403 10.2339 7.6307 10.2073 7.6307C10.1939 7.61736 10.1873 7.60403 10.1873 7.59736C10.0273 7.55736 10.2873 7.7507 10.2206 7.8107C10.1673 7.73736 10.0873 7.70403 10.0873 7.7307C10.1139 7.70403 10.2073 7.82403 10.2273 7.89736C10.1406 7.8907 10.2206 7.97736 10.1939 7.9907H10.2406C10.2939 8.05736 10.2673 8.0707 10.2606 8.11736C10.2073 8.0707 10.2539 8.05736 10.2206 8.04403C10.3006 8.18403 10.0339 8.00403 10.0673 8.11736C10.0073 8.09736 9.94728 8.00403 9.90061 7.9907C9.93395 8.12403 9.76061 7.95736 9.77395 8.07736C9.87395 8.14403 9.85395 8.12403 9.90061 8.24403L9.92728 8.09736L9.99395 8.27736C9.99395 8.27736 9.99394 8.1707 10.0273 8.1707C10.0673 8.26403 10.0539 8.24403 10.1339 8.29736C9.97394 8.20403 10.1339 8.44403 10.0139 8.39736L9.80728 8.18403C9.65395 8.1507 9.80727 8.39736 9.67394 8.42403L9.73395 8.43736C9.80728 8.5307 9.69394 8.49736 9.70727 8.55736C9.64061 8.48403 9.6006 8.47736 9.54727 8.44403C9.6006 8.49736 9.48728 8.49736 9.61394 8.64403L9.48727 8.5907C9.38727 8.61736 9.61394 8.86403 9.52727 8.89736C9.46727 8.80403 9.39394 8.78403 9.3806 8.68403C9.3606 8.70403 9.32727 8.7107 9.3806 8.75736C9.32727 8.72403 9.42061 8.9107 9.33394 8.86403C9.35394 8.90403 9.42728 8.97736 9.40061 8.99736C9.38728 8.98403 9.36728 8.96403 9.36728 8.96403C9.40061 8.99736 9.38061 9.04403 9.47395 9.10403C9.19395 8.9507 9.31394 9.29736 9.07394 9.16403C9.05394 9.2307 9.02061 9.3107 8.98727 9.35736C8.96727 9.3307 8.95394 9.32403 8.96727 9.32403C8.84727 9.31736 9.13395 9.55736 8.99395 9.5507C8.84728 9.4707 8.96728 9.45736 8.90061 9.4307C8.66061 9.2107 8.85395 9.53736 8.68061 9.4507V9.42403C8.56728 9.37736 8.68061 9.5907 8.61394 9.6307C8.61394 9.6307 8.59394 9.6107 8.58061 9.59736C8.66061 9.7507 8.62728 9.85736 8.61394 9.94403C8.54061 9.83736 8.58727 9.8707 8.48727 9.7907C8.47394 9.82403 8.6406 9.9307 8.6206 10.004C8.55394 9.9707 8.4806 9.96403 8.3806 9.86403L8.41394 9.81736C8.26061 9.71736 8.36728 9.87736 8.33394 9.85736L8.28061 9.79736C8.27394 9.84403 8.38061 10.0107 8.32728 10.044L8.36061 10.0907C8.42061 10.304 8.28727 10.0107 8.32061 10.1774L8.23395 9.98403C8.24061 10.044 8.24727 10.244 8.21394 10.3307C8.2006 10.1374 8.21394 10.0174 8.19394 9.91736C8.18061 9.92403 8.16061 9.9707 8.18061 10.0907C8.18061 10.064 8.18061 9.99736 8.18728 10.0307C8.21394 10.224 8.19394 10.3507 8.15394 10.3907C8.12061 10.0707 8.09395 10.144 8.06728 10.1307C8.05395 10.0974 8.0406 10.0374 8.04727 9.89736C7.99394 10.044 7.99395 9.76403 7.97395 9.7707C7.86061 10.0774 7.96061 9.7707 7.82061 10.064C7.79394 10.064 7.79394 10.0574 7.80061 10.0374C7.81394 9.96403 7.83394 9.89736 7.86061 9.83736C7.90727 9.75736 7.90728 9.7907 7.94728 9.7307C7.94728 9.69736 8.02061 9.61736 8.06728 9.5507C8.00061 9.63736 7.96061 9.66403 7.98727 9.6307C7.95394 9.66403 7.92728 9.70403 7.90061 9.74403C7.84061 9.79736 7.86727 9.73736 7.89394 9.6707C7.92061 9.6107 7.95394 9.54403 7.86061 9.56403L7.95394 9.51736C7.87394 9.51736 7.81394 9.3707 7.60061 9.5107C7.62061 9.47736 7.66728 9.4107 7.70061 9.4107C7.63394 9.2907 7.30727 9.3907 7.34061 9.2107L7.40061 9.16403C7.40061 9.16403 7.27394 9.2307 7.30061 9.16403C7.32061 9.14403 7.36061 9.11736 7.35394 9.10403C7.32728 9.1107 7.21394 9.1507 7.22061 9.09736L7.30061 9.05736C7.28061 8.89736 7.01394 9.05736 6.90728 9.02403C7.06061 8.8707 7.04061 8.74403 7.03395 8.68403L7.05394 8.66403C6.96728 8.53736 6.74728 8.6107 6.58728 8.57736C6.69395 8.3507 6.45394 8.30403 6.44728 8.1107C6.43394 8.1507 6.32061 8.2307 6.29394 8.2307C6.30061 8.17736 6.12061 8.27736 6.26727 8.13736V8.1507C6.39394 7.9907 6.31394 7.98403 6.28061 7.94403L6.08728 8.12403C6.26061 7.75736 5.73394 7.9707 5.92728 7.67736C5.86061 7.70403 5.82728 7.67736 5.76061 7.69736L5.86061 7.59736C5.82061 7.5107 5.80061 7.46403 5.70061 7.4107L5.78727 7.35736C5.74727 7.30403 5.44061 7.5907 5.39394 7.5507L5.53395 7.3907C5.45395 7.31736 5.50728 7.10403 5.29395 7.16403C5.31395 7.14403 5.3606 7.10403 5.3806 7.1107C5.34727 7.0707 5.34061 6.86403 5.14728 7.08403C5.28061 6.9507 5.08061 6.9907 4.98061 7.00403L5.08728 6.9107C4.92728 7.00403 4.88728 7.03736 4.80728 7.01736C4.80728 6.9907 4.87395 6.9307 4.86728 6.9707C4.88061 6.87736 4.74061 7.0307 4.74727 6.9307L4.82728 6.88403C4.79395 6.83736 4.76061 6.8707 4.66728 6.92403C4.60061 6.93736 4.61395 6.82403 4.70061 6.7307C4.64061 6.77736 4.54727 6.8307 4.54727 6.77736C4.58061 6.73736 4.60727 6.7307 4.62061 6.72403C4.62061 6.5907 4.40727 6.73736 4.45394 6.59736C4.48727 6.56403 4.50061 6.54403 4.50727 6.5307C4.56061 6.58403 4.59395 6.63736 4.58728 6.63736C4.68061 6.54403 4.65394 6.48403 4.81394 6.39736C4.71394 6.4307 4.50061 6.51736 4.50061 6.43736C4.50728 6.42403 4.51394 6.41736 4.52727 6.39736H4.54061C4.54061 6.39736 4.52061 6.3707 4.50061 6.37736C4.50061 6.3507 4.50061 6.3307 4.49395 6.31736C4.56728 6.23736 4.48727 6.22403 4.46727 6.20403C4.36727 6.30403 4.36061 6.26403 4.30061 6.3707C4.30061 6.35736 4.31394 6.36403 4.33394 6.3707C4.33394 6.3707 4.34728 6.3707 4.35394 6.3707H4.34061C4.34061 6.3707 4.38061 6.40403 4.40061 6.42403C4.33395 6.45736 4.27395 6.48403 4.30728 6.40403C4.23395 6.45736 4.15394 6.5107 4.11394 6.53736C4.22061 6.3707 4.24061 6.23736 4.32061 6.14403C4.20061 6.1307 4.12728 6.02403 3.90061 6.1707C3.86061 6.1707 3.93394 6.09736 3.95394 6.05736C3.98061 6.0507 3.99394 6.06403 4.02727 6.04403C3.94061 6.05736 3.90061 5.9507 3.76061 6.0707C3.77394 5.96403 3.90727 5.97736 3.82061 5.9307L3.86728 5.89736C3.94728 5.56403 3.32727 6.02403 3.45394 5.6107C3.45394 5.63736 3.44728 5.6507 3.42728 5.6707C3.38061 5.3907 2.98061 5.4507 3.01395 5.10403C3.00728 5.02403 2.92061 5.10403 2.82728 5.13736L2.92728 5.02403L2.75395 5.09736C2.59395 5.11736 2.90061 4.71736 2.64728 4.80403L2.58728 4.88403C2.56728 4.83736 2.44728 4.8307 2.53395 4.7507C2.52061 4.76403 2.44728 4.81736 2.47395 4.76403L2.52727 4.70403L2.35394 4.72403C2.33394 4.62403 2.58728 4.5107 2.51395 4.41736C2.46061 4.40403 2.26061 4.4907 2.23395 4.53736C2.24061 4.5507 2.23394 4.60403 2.17394 4.66403H2.11394C1.94728 4.82403 1.75394 4.9707 1.70728 5.15736L1.85394 5.10403L1.78727 5.19736L1.74061 5.16403C1.68728 5.26403 1.76728 5.2107 1.83394 5.18403C1.79394 5.2307 1.77394 5.26403 1.76727 5.2907L1.97395 5.18403C1.91395 5.25736 1.82727 5.2907 1.82061 5.35736C1.91394 5.30403 1.94061 5.1907 2.02727 5.18403C1.97394 5.28403 1.90728 5.33736 2.00061 5.29736C1.96061 5.34403 1.92728 5.36403 1.90061 5.3707C1.97395 5.34403 1.98728 5.41736 2.08728 5.33736C2.02061 5.45736 2.19395 5.39736 2.03395 5.5507C2.08061 5.52403 2.20061 5.4707 2.22727 5.4907C2.00061 5.63736 2.30061 5.58403 2.08728 5.77736C2.28728 5.63736 2.27395 5.8107 2.42061 5.77736C2.40728 5.7907 2.37394 5.8107 2.37394 5.79736C2.38728 5.84403 2.34728 5.90403 2.33394 5.9507C2.47394 5.81736 2.55394 5.8307 2.66728 5.7707C2.57394 5.94403 2.48061 5.9107 2.36728 6.0507C2.48061 5.93736 2.54728 6.00403 2.62728 5.89736C2.57395 6.0107 2.61395 5.96403 2.51395 6.0907C2.69395 5.92403 2.56728 6.0907 2.70061 6.00403C2.65395 6.1307 2.54728 6.17736 2.64728 6.1707C2.61394 6.24403 2.51395 6.26403 2.51395 6.26403L2.50061 6.24403ZM3.8806 7.02403C3.8806 7.02403 3.86061 7.0107 3.85394 7.0107C3.85394 7.0107 3.86727 7.01736 3.8806 7.02403ZM3.97395 7.11736C3.97395 7.11736 3.95395 7.0907 3.94061 7.07736C3.97395 7.03736 4.00728 7.0107 4.02061 7.01736C3.99394 7.03736 3.99394 7.07736 3.98061 7.11736H3.97395ZM4.46727 6.2307C4.46727 6.2307 4.48061 6.25736 4.46727 6.27736C4.46061 6.27736 4.44728 6.2707 4.42728 6.26403L4.41394 6.27736C4.41394 6.27736 4.45394 6.24403 4.46727 6.2307Z" fill="black" fill-opacity="0.8"/>
<path d="M4.31207 6.33737C4.31207 6.33737 4.3054 6.33737 4.29874 6.33737C4.29874 6.35071 4.29207 6.35737 4.2854 6.37071L4.31874 6.34404H4.31207V6.33737Z" fill="black" fill-opacity="0.8"/>
<path d="M12.1005 6.3307C12.1005 6.3307 12.1138 6.3307 12.1205 6.33737H12.1072L12.1005 6.3307Z" fill="black" fill-opacity="0.8"/>
<path d="M5.03166 8.5574L5.05832 8.53073L5.02498 8.54406L5.03166 8.5574Z" fill="black" fill-opacity="0.8"/>
<path d="M12.939 6.17071C12.939 6.17071 12.959 6.18404 12.9724 6.19071C12.9657 6.19071 12.9524 6.17737 12.939 6.17071Z" fill="black" fill-opacity="0.8"/>
<path d="M13.1786 5.97743H13.2453C13.212 5.97743 13.192 5.97743 13.1786 5.97743Z" fill="black" fill-opacity="0.8"/>
<path d="M13.3931 5.85743C13.3931 5.85743 13.3664 5.82409 13.3531 5.81076L13.3931 5.85743Z" fill="black" fill-opacity="0.8"/>
<path d="M10.8739 8.6174C10.8739 8.6174 10.8739 8.6174 10.8739 8.63073C10.8739 8.66407 10.8806 8.64407 10.8739 8.6174Z" fill="black" fill-opacity="0.8"/>
<path d="M11.426 7.59738C11.426 7.59738 11.446 7.65072 11.446 7.67072C11.466 7.67072 11.4794 7.65738 11.426 7.59738Z" fill="black" fill-opacity="0.8"/>
<path d="M10.1124 9.61739V9.61073L10.1058 9.6174L10.1124 9.61739Z" fill="black" fill-opacity="0.8"/>
<path d="M11.4052 7.70404C11.4385 7.70404 11.4452 7.69071 11.4452 7.67071C11.4252 7.67071 11.4052 7.67737 11.4052 7.70404Z" fill="black" fill-opacity="0.8"/>
<path d="M14.1604 5.18403H14.1737C14.1737 5.18403 14.1604 5.1707 14.1604 5.16403V5.18403Z" fill="black" fill-opacity="0.8"/>
<path d="M14.1582 5.16409V5.14409C14.1582 5.14409 14.1515 5.15076 14.1582 5.16409Z" fill="black" fill-opacity="0.8"/>
<path d="M14.1448 5.09738V5.14405C14.1448 5.14405 14.1714 5.13071 14.1448 5.09738Z" fill="black" fill-opacity="0.8"/>
<path d="M13.8922 5.35739L13.9255 5.39739C13.9255 5.39739 13.9055 5.37739 13.8922 5.35739Z" fill="black" fill-opacity="0.8"/>
<path d="M13.8403 5.43743C13.8403 5.43743 13.9603 5.47743 13.9537 5.43076L13.927 5.39743C13.967 5.4641 13.7937 5.35743 13.8403 5.43743Z" fill="black" fill-opacity="0.8"/>
<path d="M13.1118 5.27074L13.1984 5.24407C13.1518 5.21741 13.0851 5.17741 13.1051 5.14407C12.9184 5.09741 13.2051 5.21741 13.1184 5.27074H13.1118Z" fill="black" fill-opacity="0.8"/>
<path d="M12.8848 5.39076C12.8981 5.34409 12.8314 5.33743 12.8114 5.31076C12.8248 5.36409 12.8314 5.37743 12.8848 5.39076Z" fill="black" fill-opacity="0.8"/>
<path d="M11.627 6.64408L11.5403 6.55075C11.527 6.58408 11.5736 6.58408 11.627 6.64408Z" fill="black" fill-opacity="0.8"/>
<path d="M11.8583 7.35074L11.9317 7.38407L11.865 7.29074L11.8583 7.35074Z" fill="black" fill-opacity="0.8"/>
<path d="M11.0722 6.84403L11.0655 6.82403L11.0588 6.89736L11.0722 6.84403Z" fill="black" fill-opacity="0.8"/>
<path d="M8.99399 8.98404L9.11398 9.09071C9.11398 9.05737 8.98732 8.92404 8.99399 8.98404Z" fill="black" fill-opacity="0.8"/>
<path d="M8.2727 9.93075C8.22603 9.86408 8.19269 9.82408 8.21936 9.91075C8.23269 9.91075 8.2727 9.95742 8.2727 9.93075Z" fill="black" fill-opacity="0.8"/>
<path d="M6.16706 7.90408L6.22706 7.89075L6.1604 7.88408L6.16706 7.90408Z" fill="black" fill-opacity="0.8"/>
</svg>
