<svg width="64" height="64" viewBox="0 0 64 64" fill="none" xmlns="http://www.w3.org/2000/svg">
<path d="M14.0794 6.16772C14.346 6.06106 14.5594 6.30104 14.5594 6.56771C14.6394 6.38104 14.9594 6.701 15.0927 6.27433C14.7194 5.76767 14.2127 5.82103 13.8394 6.30103C13.706 6.16769 13.786 5.98102 13.786 5.87435C13.4927 6.22102 13.306 6.88773 13.626 7.42106C13.7594 6.72773 13.8927 6.99434 14.0794 6.19434V6.16772Z" fill="black" fill-opacity="0.4"/>
<path d="M3.67532 46.1678C3.67532 46.1678 3.59533 45.9811 3.54199 45.9811C3.59533 46.1145 3.62199 46.1945 3.67532 46.1678Z" fill="black" fill-opacity="0.4"/>
<path d="M4.02616 29.0212L3.81283 29.4745C4.02616 29.5012 3.97283 29.2345 4.02616 29.0212Z" fill="black" fill-opacity="0.4"/>
<path d="M11.0641 8.51432C11.0641 8.51432 11.1441 8.35439 11.1441 8.24772L11.0107 8.40771L11.0641 8.51432Z" fill="black" fill-opacity="0.4"/>
<path d="M3.48574 21.3411C3.48574 21.3411 3.32574 21.261 3.21908 21.2344L3.48574 21.5011V21.3411Z" fill="black" fill-opacity="0.4"/>
<path d="M15.6253 5.42122L15.732 5.39453V5.07454L15.6253 5.42122Z" fill="black" fill-opacity="0.4"/>
<path d="M4.44612 55.6078V55.5812C4.31279 55.4746 4.36612 55.5545 4.44612 55.6078Z" fill="black" fill-opacity="0.4"/>
<path d="M55.1716 58.781C54.3716 58.781 55.6249 57.6343 54.5316 57.7676C54.7449 57.8743 54.3182 59.021 55.1716 58.781Z" fill="black" fill-opacity="0.4"/>
<path d="M22.2087 60.4878C22.2087 60.4878 22.3687 60.6211 22.5553 60.5411C22.5553 60.5144 22.5287 60.4878 22.502 60.4611C22.4487 60.5411 22.3687 60.5678 22.2087 60.4611V60.4878Z" fill="black" fill-opacity="0.4"/>
<path d="M27.1674 60.4879C27.1674 60.4879 27.1141 60.4079 27.0874 60.3812H26.9274L27.1674 60.4879Z" fill="black" fill-opacity="0.4"/>
<path d="M37.223 7.42122C37.3031 7.82122 36.583 7.95448 37.4631 7.92782C37.3564 7.76782 37.2764 7.60789 37.223 7.42122Z" fill="black" fill-opacity="0.4"/>
<path d="M10.902 8.51432L11.0107 8.40771C11.0107 8.40771 10.9287 8.2477 10.8753 8.22103C10.9287 8.35436 10.9287 8.43438 10.8753 8.48771L10.902 8.51432Z" fill="black" fill-opacity="0.4"/>
<path d="M25.542 56.0612C25.6753 56.2479 25.8353 56.3812 25.9953 56.4612C26.022 56.4078 26.0753 56.3812 26.0753 56.3279L25.542 56.0879V56.0612Z" fill="black" fill-opacity="0.4"/>
<path d="M61.0401 30.8344C60.8801 31.0744 60.3467 30.8076 60.2667 30.5143C60.4534 30.141 59.6534 29.4743 60.4534 29.5543V29.6876C61.2267 29.3943 61.0134 28.6476 61.0401 28.0343L59.9734 27.9276C61.5201 26.3543 59.4134 23.8477 60.7734 22.9943C60.5067 22.621 60.5067 22.141 60.2401 21.7676H60.8001C60.9334 20.7543 61.0134 20.221 60.8801 18.941L61.2801 19.2076C61.3067 18.4876 59.6534 18.301 59.6267 17.6076L60.4801 17.3943C60.4801 16.301 61.2001 14.381 60.0534 13.101C60.1867 13.101 60.4267 13.101 60.5334 13.3143C60.4534 12.5943 60.1601 10.3543 59.1734 11.0743C59.8667 10.7277 58.5334 9.58101 57.8134 9.15434L58.3467 8.94096C57.3334 8.80763 57.2267 8.88768 56.4801 8.32768C56.4267 8.16768 56.5601 8.00766 56.6667 8.061C56.3734 7.63433 55.9734 8.06103 55.6001 7.34103L56.0801 7.28764C55.5467 6.75431 55.4667 6.91435 54.8801 6.99435C54.4001 6.88768 53.8667 6.08763 54.0001 5.60763C53.7334 5.82096 53.2267 5.95435 52.9067 5.66101C52.9334 5.47435 53.1467 5.42102 53.2267 5.42102C52.2401 4.51436 51.3067 5.28764 50.6667 4.54098C50.6934 4.35431 50.6667 4.24763 50.6134 4.1943C51.6001 4.4343 52.3201 4.83433 52.2401 4.80766C52.4534 4.32766 51.6534 3.9543 52.5601 3.52763C51.7067 3.60763 50.4001 4.08768 49.6801 3.74101C49.6534 3.68768 49.6267 3.63432 49.6001 3.55432L49.7067 3.50102C49.5201 3.42102 49.3601 3.44769 49.1734 3.50102C48.9334 3.36769 48.7734 3.31431 48.5067 3.28764C48.4534 2.86097 47.4667 2.99435 47.2001 2.99435C47.2267 3.55435 46.7734 3.47428 47.2001 3.92761C47.1467 3.90095 47.2534 3.84762 47.4934 3.84762C47.5467 3.84762 47.6001 3.84765 47.6534 3.79431V3.84762C47.8934 3.84762 48.2401 3.84762 48.6401 3.84762C48.2934 4.11428 47.9734 4.32769 47.5467 4.00769C47.3601 4.38103 47.1734 4.72768 47.0667 4.91435C46.5867 4.14102 45.6534 3.71434 45.5201 3.23434C44.4534 3.55434 42.9867 3.44767 42.3201 4.48767C42.0267 4.62101 41.9734 4.19436 41.8667 4.00769C42.0534 3.90103 42.2401 3.92762 42.3467 3.76762C41.7334 4.03429 40.5334 3.87431 40.4001 4.62097C39.6267 4.30097 40.8267 3.95433 39.7867 4.061L39.9201 3.84762C37.8401 2.67428 36.5334 5.74099 34.2401 4.22099C34.4001 4.30099 34.4801 4.35434 34.5067 4.48767C31.8934 3.82101 29.0934 5.101 26.5067 4.061C25.7601 3.84766 25.6801 4.32769 25.2534 4.67436L25.0934 4.061L24.3201 4.75436C23.2267 5.26102 22.4267 3.26102 21.0667 4.24768L21.2534 4.64767C20.7467 4.56767 19.6801 4.88768 19.7601 4.40768C19.7067 4.48768 19.6001 4.83431 19.4134 4.62097V4.30099L18.1867 4.83435C17.2534 4.59435 18.3467 3.58096 16.9601 3.52763C16.4534 3.66096 15.4934 4.461 15.7067 4.64767C15.9201 4.64767 16.2401 4.83434 16.2401 5.15434L15.7601 5.31433C15.7334 5.68767 15.6534 6.06095 15.6534 6.43429C15.6001 6.35429 15.5467 6.30096 15.4401 6.35429L15.2801 7.02096L15.6534 6.83435C15.6534 6.83435 15.6534 6.80763 15.6534 6.78097C15.7067 7.18097 15.8934 7.55428 16.4267 7.84762L17.2267 7.28764L17.4934 7.74101H16.8267C17.2001 8.19434 17.4401 7.82099 17.7334 7.55432C17.7867 7.79432 17.9201 7.95433 18.0801 8.061L18.8534 7.18095C18.9601 7.55428 18.5067 7.90097 19.0401 8.1143C19.4134 7.7143 18.6934 7.28762 19.3067 7.02096C19.6801 7.44762 19.5734 7.79436 20.0267 7.42102C20.0801 7.66102 20.0001 7.82095 19.8134 7.92761C20.2134 7.63428 20.8801 7.79433 21.0667 7.31433C21.4667 7.84767 22.4267 7.181 22.3734 8.061C22.5067 7.84766 23.0667 7.36769 23.4401 7.34103C22.7734 8.40769 24.8267 7.39431 24.6401 8.54098C25.1467 7.58098 26.4267 8.11435 27.3067 7.58102C27.2534 7.66102 27.1734 7.82095 27.0934 7.76762C27.6001 7.84762 27.7334 8.14099 28.0534 8.30099C28.1067 7.52765 28.8801 7.34096 29.3067 6.86096C29.9201 7.60763 28.9334 7.76762 29.1201 8.51428C29.0934 7.87428 30.1867 7.87436 29.9734 7.34103C30.4267 7.82103 30.3734 7.58099 30.6134 8.22099C30.6934 7.23432 31.0401 8.06097 31.4401 7.44763C32.1067 7.92763 31.6001 8.35433 32.3467 8.061C32.6934 8.35433 32.0534 8.70097 32.0534 8.70097C32.8001 8.70097 32.4001 7.98099 32.5601 7.55432C33.4667 7.34099 32.9867 8.08767 33.2801 8.48767C33.8401 8.30101 34.2667 7.60765 34.6934 7.63432C34.7201 7.76765 34.8001 7.79431 34.6934 7.95431C35.2801 7.36764 36.4534 7.92762 37.1467 7.18095C37.2001 7.23428 37.2267 7.3143 37.2267 7.36764C37.1201 6.9943 37.0934 6.62096 37.1201 6.35429C37.4667 6.35429 37.7334 5.87429 37.8667 6.35429C37.6534 6.35429 37.6534 6.54103 37.5467 6.67436L37.8934 6.46098C38.2134 7.15431 37.4134 6.70098 37.4134 7.20764C38.1067 6.99431 38.9067 6.40761 39.4401 6.59428C39.5467 7.26095 38.2134 6.83436 38.9067 7.42102L38.0801 7.15434C38.6934 8.22101 37.5734 7.07432 38.1601 8.22099C39.2267 8.40766 39.3601 7.87433 40.4267 8.061C40.6667 7.68766 40.3467 7.50098 40.5867 7.12765C42.1067 6.46098 41.7867 8.83428 42.9067 7.92761C43.2001 7.47428 43.3067 6.62101 44.1067 7.07434L43.8401 7.84762C44.8801 7.92762 44.4267 6.75428 45.5201 7.26095C45.3334 7.55428 44.6934 7.52763 44.8534 7.60763C45.5467 8.22096 45.3601 7.18095 45.8934 7.18095L46.0001 7.87431C46.5334 7.82098 47.1467 7.66096 47.7067 7.52763C48.1867 7.3943 48.7201 7.261 49.2267 7.31433C49.1201 7.501 48.9334 7.68761 49.1201 7.92761C50.4001 7.79428 51.6267 8.80765 52.2401 9.79431L52.9601 9.58102C52.9601 9.58102 52.9334 9.90095 52.7734 9.92761C52.9601 10.4076 53.0401 9.66099 53.3334 9.63432C53.5734 9.79432 53.3601 10.1143 53.1201 10.141C54.0267 10.2477 55.5467 11.2877 55.3334 12.4077L55.0934 12.3277C55.1734 12.9943 56.5067 12.5677 56.2401 13.3943L56.1067 13.3143C56.4001 14.781 56.8534 16.461 55.9734 17.981C56.8267 18.2477 55.6001 19.7943 56.7734 19.901C56.1867 20.941 55.9734 20.6476 55.5734 22.1143C55.5201 22.5143 56.3201 22.701 56.4267 23.181H55.8134L56.4534 23.8476L55.7067 24.1943L55.8667 24.6477C55.8934 24.461 56.1334 24.2743 56.3201 24.301C56.5867 25.021 55.8934 26.0343 55.5734 26.061L56.1067 27.741C55.8667 27.7143 55.7867 27.421 55.6267 27.2076C56.2667 28.1143 54.9867 27.3676 55.5467 28.1943C55.6801 28.0876 55.9201 28.2476 56.0267 28.2743C55.6534 28.6743 55.6534 29.6077 55.8134 30.301L55.3867 30.1677C55.2801 31.421 55.6001 32.8076 55.5734 34.1943C55.7601 33.6876 56.5067 33.7943 56.5867 34.1943L55.9467 34.3543C56.3467 34.621 56.1867 33.9276 56.6934 34.461C56.6134 34.9943 55.9467 34.8076 55.7334 34.5143L55.9467 35.1543C55.7601 35.181 55.6534 35.0477 55.4134 34.9943C55.4667 35.021 55.4934 35.0743 55.4934 35.101C54.8801 35.661 55.3867 34.701 55.1734 34.7544C55.0401 34.9144 54.9334 34.9677 54.8801 34.9943C55.0401 34.8343 55.1201 34.7544 55.1734 34.7544C55.2267 34.6744 55.3067 34.5676 55.4134 34.4343C55.4134 34.381 55.0401 34.8077 54.8801 34.9943C54.7201 35.021 54.6401 34.8077 54.4001 34.8077C54.5601 34.621 54.2934 34.1943 54.2934 33.8476L54.3734 33.7676C53.8667 34.301 53.7867 34.061 53.5467 34.061C53.8401 33.7143 53.9734 33.6076 54.1601 33.5276L54.0267 33.421C53.8401 33.581 53.7334 33.6343 53.6001 33.6343L53.9734 33.2343C53.7867 33.1277 53.2267 33.4477 53.2534 32.9943C52.9067 33.3677 52.5334 34.2477 52.0801 34.3277C52.2401 34.1143 52.5334 33.741 52.6667 33.6876C52.6134 33.6876 52.4534 33.821 52.4801 33.6876L52.8534 33.3943C52.8801 33.1543 52.5601 33.661 52.5067 33.5543C52.7467 33.261 52.6401 33.2877 52.8267 33.0477C52.8801 33.0477 52.8001 33.2343 52.9067 33.1276C52.8534 32.9943 52.9067 32.7276 53.0667 32.461C52.9334 32.6476 52.7201 32.861 52.6401 32.861C52.4534 32.7543 52.8801 32.4343 52.9067 32.221C52.6934 32.4077 52.7734 32.0876 52.4001 32.541C52.3467 32.4876 52.5067 32.2743 52.6134 32.141C52.3734 32.2743 52.1601 31.8743 51.8667 32.4343V32.4877H51.8401C51.1734 32.701 51.4667 31.741 51.0134 31.7143L51.1467 31.5543C50.8267 31.581 50.6934 31.341 50.2934 31.581C50.2401 31.5277 50.4001 31.2077 50.5867 31.0477C50.3734 31.0477 50.2134 31.2077 50.2401 30.8077C50.5867 30.6477 50.4001 30.541 50.5334 30.7277C50.4801 30.461 50.6401 30.1943 50.1067 30.461C50.4801 30.1143 50.3734 29.8743 50.2134 29.9276L50.1067 30.301C49.9734 30.301 49.9201 30.1944 49.8667 30.0877L50.3201 29.6076C50.4801 28.701 48.8267 30.1677 49.4401 28.9144C49.0667 29.2077 49.4401 29.3143 48.9867 29.6876C48.8801 29.501 49.3334 28.621 49.2801 28.5677C49.2801 28.1143 48.4534 29.1543 48.4001 28.781C48.2667 28.9943 47.9201 29.501 47.5734 29.5276C47.4667 29.341 47.9201 28.541 48.1867 28.4877C48.2401 28.4877 48.2401 28.5943 48.1867 28.6477C48.2934 28.6477 48.4534 28.621 48.5334 28.3543L48.3467 28.5143C48.4001 28.2476 48.0801 28.0343 48.3467 27.7676C48.0534 27.821 48.0534 28.0343 48.1067 28.221C48.0267 27.741 47.6534 27.9276 47.4667 27.5276C47.4667 27.661 47.3601 27.9277 47.3334 27.901C47.0134 27.421 46.9334 28.1944 46.5867 28.1677C46.5867 27.7677 46.9867 27.3943 46.5601 27.5543C46.4534 27.261 46.7467 26.941 46.9067 26.8077C46.4267 27.101 46.3734 26.301 46.1867 26.1677L46.4267 26.0343C46.2667 26.1143 46.1867 26.0876 46.0801 26.0343V26.5143C46.0801 26.5143 45.8934 26.381 45.9467 26.1943C45.7601 26.461 45.8401 26.9944 45.5467 27.341C45.4667 27.0744 45.1201 27.5277 45.1734 26.8877C45.5734 27.181 45.2267 26.2477 45.6267 26.221C45.5467 26.2743 45.4401 26.2744 45.3601 26.1677C45.3601 26.0877 45.3867 26.0344 45.4401 26.0077C45.0667 25.3677 45.1201 26.6743 44.6934 26.621C44.7734 26.2743 44.6401 25.9544 44.5601 26.0077C44.7467 26.0077 44.5867 26.5943 44.4267 26.861C44.1601 26.5676 44.1334 27.0743 44.0001 27.021L44.1601 27.1543C44.1067 27.501 43.9734 27.4743 43.8134 27.581C43.8134 27.3144 43.9734 27.3943 43.8934 27.2609C43.7334 27.8743 43.4134 26.6476 43.1467 27.101C42.9867 26.8876 43.0401 26.4343 42.9067 26.301C42.6401 26.8077 42.4267 25.901 42.1334 26.3543C42.3467 26.781 42.3201 26.6743 42.2134 27.181C42.3734 27.021 42.5334 26.8877 42.6934 26.7277C42.6134 26.9677 42.5334 27.2343 42.4801 27.4743C42.6401 27.4743 42.7467 27.101 42.8534 27.181C42.7734 27.6076 42.7734 27.4743 42.9067 27.8476C42.5601 27.181 42.6134 28.3276 42.2667 27.9276L41.9467 26.781C41.3601 26.4076 41.4401 27.581 40.8801 27.5276L41.1201 27.6343C41.2534 28.0877 40.8801 27.821 40.8267 28.0877C40.6401 27.741 40.4801 27.661 40.2934 27.4743C40.4534 27.7143 39.9201 27.661 40.3201 28.3543L39.8401 28.061C39.3601 28.1677 40.1601 29.2343 39.8401 29.3676C39.6267 28.9676 39.3067 28.8877 39.3067 28.4877C39.2001 28.5677 39.0667 28.621 39.2534 28.8077C39.0134 28.6743 39.3334 29.4477 39.0401 29.2343C39.1467 29.3943 39.4134 29.6877 39.3334 29.741C39.2801 29.6877 39.2001 29.6076 39.2001 29.6076C39.3334 29.741 39.2801 29.9277 39.6534 30.141C38.5334 29.5277 39.1201 30.8343 38.1601 30.301C38.1067 30.541 38.0001 30.8343 37.8934 30.9943C37.8134 30.9143 37.7601 30.861 37.8134 30.861C37.3601 30.8076 38.5067 31.7677 38.0001 31.7143C37.4401 31.3943 37.8667 31.3409 37.6267 31.2609C36.6667 30.3809 37.4934 31.661 36.8001 31.2876V31.2076C36.3467 31.021 36.8534 31.8476 36.6134 31.9543C36.6134 31.9543 36.5334 31.8743 36.4801 31.821C36.8267 32.4077 36.7467 32.8076 36.7201 33.1276C36.4001 32.7276 36.6134 32.861 36.1867 32.541C36.1867 32.6743 36.8001 33.101 36.7467 33.3676C36.5067 33.2343 36.2134 33.181 35.7867 32.8077L35.9201 32.621C35.3334 32.221 35.7334 32.8344 35.5734 32.8344L35.3601 32.621C35.2001 32.941 35.7601 33.4743 35.4934 33.6876L35.6801 33.821C36.1067 34.4877 35.2534 33.6344 35.5467 34.1677L34.9334 33.661C34.9867 33.8743 35.1734 34.5143 35.1201 34.781C34.8001 34.2743 34.7467 33.8743 34.6134 33.5276C34.5334 33.6076 34.4801 33.7943 34.5601 34.0343C34.5601 33.981 34.5601 33.9543 34.6134 33.981C34.9601 34.5143 35.0401 34.8876 34.8534 35.0477C33.7867 33.9543 34.1067 35.261 33.1201 34.5677C33.2267 35.2877 32.3201 35.0477 32.0267 35.4743C33.0134 36.1677 31.9467 35.6076 32.8534 36.4343C32.8534 36.5676 32.7734 36.5943 32.7201 36.541L31.9467 36.301C31.6267 36.1143 31.8401 36.0343 31.6267 35.8476C31.3867 35.981 31.1734 35.581 30.8267 35.4743C31.1734 35.741 31.2267 35.981 30.9867 35.981L31.5467 36.221C31.7601 36.941 30.5867 35.741 30.8001 36.461L30.6134 36.1143C30.6401 36.4076 30.1067 36.621 30.6934 37.4476C30.5601 37.3676 30.2934 37.181 30.2934 37.0477C29.8667 37.2877 30.3467 38.5143 29.6534 38.3543L29.4667 38.1143C29.4667 38.1143 29.7601 38.621 29.4667 38.4877C29.3867 38.4077 29.2801 38.2476 29.2267 38.2743C29.2801 38.381 29.4401 38.8077 29.2267 38.7544L29.0401 38.461C28.4534 38.5143 29.1467 39.5276 29.0401 39.9276C28.4001 39.3143 27.9467 39.3677 27.7334 39.3943L27.6534 39.3143C27.2001 39.6077 27.5734 40.461 27.4934 41.0477C26.5867 40.5943 26.5067 41.501 25.7867 41.4743C25.9467 41.5277 26.2667 41.9544 26.2667 42.0877C26.0534 42.0344 26.4801 42.7277 25.9201 42.1677H25.9467C25.3067 41.661 25.3067 41.981 25.1734 42.0877L25.9201 42.8344C24.4801 42.1144 25.4667 44.1143 24.2934 43.3676C24.4001 43.6343 24.2934 43.741 24.4267 44.0077L24.0267 43.6076C23.7067 43.741 23.5467 43.7943 23.3601 44.1943L23.1201 43.8476C22.9334 43.981 24.1067 45.181 24.0001 45.341L23.3601 44.8077C23.0934 45.101 22.2934 44.861 22.5867 45.661C22.5067 45.581 22.3201 45.3943 22.3467 45.3143C22.2134 45.421 21.4401 45.421 22.3467 46.1943C21.7867 45.6876 22.0267 46.4343 22.1067 46.8077L21.7334 46.4077C22.1334 47.021 22.2667 47.1543 22.2401 47.4743C22.1601 47.4743 22.0001 47.3143 22.0001 47.2609C21.8401 47.3143 22.2934 47.7143 21.9467 47.6876L21.7601 47.3676C21.6001 47.4743 21.7601 47.6077 21.9734 47.981C22.0534 48.221 21.6001 48.1677 21.2267 47.821C21.4401 48.061 21.6534 48.4077 21.4667 48.4077C21.3067 48.2743 21.2534 48.1676 21.2267 48.1143C20.7201 48.1143 21.3601 48.9143 20.8001 48.701C20.6667 48.5676 20.5867 48.5143 20.5334 48.4877C20.7201 48.301 20.9067 48.1677 20.9067 48.221C20.5334 47.8743 20.3201 47.9544 19.9201 47.341C20.0801 47.741 20.4801 48.541 20.1601 48.5143C20.1067 48.4876 20.0801 48.461 20.0001 48.4077V48.3543C20.0001 48.3543 19.9201 48.4076 19.9467 48.5143C19.8401 48.5143 19.7601 48.5143 19.7067 48.5143C19.3867 48.2476 19.3601 48.5143 19.2801 48.5943C19.6801 48.9676 19.5201 49.021 19.9467 49.2343C19.8934 49.2343 19.9201 49.181 19.9467 49.101C19.9467 49.101 19.9467 49.0476 19.9467 49.021H19.9734C19.9734 49.021 20.0534 48.9144 20.1334 48.8344C20.2934 49.101 20.4001 49.3143 20.0801 49.181C20.2934 49.4743 20.5334 49.7676 20.6401 49.9276C19.9734 49.5009 19.4667 49.3943 19.0934 49.101C19.0934 49.5543 18.7201 49.7944 19.3334 50.6744C19.3601 50.8344 19.0401 50.541 18.9067 50.461C18.8801 50.3543 18.9067 50.301 18.8267 50.1943C18.9067 50.5143 18.5334 50.6743 19.0134 51.2076C18.6134 51.1543 18.6134 50.6477 18.4801 50.9677L18.3467 50.781C17.0667 50.4343 18.9867 52.8343 17.4134 52.301C17.5201 52.3277 17.5734 52.3543 17.6534 52.4077C16.6134 52.5143 16.9601 54.0343 15.6534 53.8743C15.3334 53.8743 15.6534 54.221 15.8401 54.5677L15.3601 54.1943L15.7067 54.8344C15.8401 55.421 14.2401 54.221 14.6401 55.2076L14.9601 55.4476C14.8001 55.501 14.8001 55.9543 14.4801 55.6076C14.5334 55.661 14.7467 55.9277 14.5601 55.821L14.3201 55.6076L14.4534 56.2477C14.0801 56.301 13.5734 55.341 13.2534 55.6076C13.2534 55.741 13.4134 56.1676 13.6001 56.4343C13.2267 56.4343 12.8534 56.4343 12.4534 56.1943C12.2134 55.981 12.7734 55.901 12.9067 55.7676C11.6534 55.7143 10.9601 54.7277 9.86673 54.4077C9.92006 54.3543 10.0801 54.3543 10.1867 54.381C10.0267 54.2743 9.92007 53.9543 9.6534 54.2743L9.8934 54.3277C9.76007 55.021 8.40007 54.621 8.1334 54.7544C9.25341 54.2744 7.60006 53.661 9.14673 53.2076C9.0134 53.1543 8.74674 53.1277 8.56007 53.3143C8.50674 53.101 8.58673 52.9676 8.96006 52.941C8.34673 52.4876 8.16007 52.9143 7.76007 52.301C7.94674 52.221 8.08007 52.301 8.32007 52.221C7.8134 52.141 7.30673 51.9543 7.20007 51.3143C7.3334 51.3143 7.44007 51.181 7.4934 51.341C7.0934 50.461 5.94674 49.901 6.18674 48.6477C7.06674 48.9143 6.4534 48.221 7.20007 48.141C7.12007 47.981 7.04006 47.741 6.96006 47.501L6.58673 47.7943C6.58673 47.181 6.0534 46.621 6.2934 46.0877L6.61341 46.541L6.48006 45.3676L6.18674 46.0343C5.81341 45.3943 5.2534 46.1143 5.44007 45.2609C5.52007 45.421 5.44007 44.6477 5.8934 44.301C5.6534 43.981 5.4134 43.6876 5.60007 43.2076C5.84007 43.0743 6.42673 43.3143 6.58673 43.2076C5.9734 42.9143 6.42674 41.741 5.76007 41.3676C5.92007 41.501 6.32007 41.501 6.40007 41.4476L5.8934 41.181C6.0534 40.8876 6.1334 40.861 6.4534 40.8877C6.5334 40.0077 5.4934 41.1543 5.92007 40.141C5.9734 40.221 6.02673 40.1943 6.10673 40.3543C6.32007 39.3143 5.78674 38.3543 6.02674 37.3943C6.7734 37.101 6.21341 38.221 6.85341 37.901C6.72007 36.5143 5.94674 35.0477 6.1334 33.7143L6.0534 33.9543C4.98673 33.7676 6.58673 32.9677 6.0534 32.301C6.1334 32.461 6.64007 32.5143 6.5334 32.461C6.6934 31.5543 6.26674 30.5943 5.94674 29.2076L6.2134 29.3676C6.4534 28.8343 6.34673 27.9543 6.48006 27.3676C6.2134 27.2076 6.24007 26.861 5.86673 27.0743C7.4134 25.2877 5.04007 23.661 6.32007 22.061C6.32007 22.2477 6.56007 22.5143 6.56007 22.3543L6.32007 20.9943C5.86674 21.101 6.0534 21.181 5.68007 21.4476C5.4134 21.2876 5.20007 20.8877 5.20007 20.5677C5.4934 21.181 5.94673 20.5677 6.2134 20.301C6.08007 20.3543 5.92007 20.2477 5.76007 20.301C6.58674 19.581 4.82673 20.1943 5.38673 19.2076L5.62673 19.2609C5.4934 18.8876 5.1734 18.5677 5.2534 18.1677C5.78673 18.0077 5.49341 18.541 5.94674 18.5677C5.92007 18.0077 4.9334 17.4743 5.46674 16.9943C5.62674 17.2343 5.62674 17.5543 5.76007 17.7943C6.40007 17.261 6.24007 17.181 6.32007 16.781L6.61341 15.901L6.4534 16.141C5.06674 15.4477 6.2134 14.861 5.46674 13.8743C6.18674 14.861 5.94673 14.0876 6.5334 14.2743C6.72007 14.0876 6.96007 13.8476 7.12007 13.9543C6.74674 13.4743 7.60007 13.4743 7.12007 12.781C7.30674 12.8343 7.28007 12.4077 7.70674 12.6744C7.70674 12.1677 7.36006 12.6743 7.14673 12.541C6.8534 11.501 8.56006 11.3143 8.48006 9.981C8.80006 9.021 8.48007 8.40769 9.04007 7.50102C9.49341 7.55435 9.28007 8.22099 9.28007 8.22099C9.86674 8.11432 10.1067 7.84769 10.4001 7.42102C10.4001 7.60769 10.5867 7.68765 10.8001 7.79431C11.0934 7.58098 10.6401 7.02098 11.2534 7.04765C11.2534 7.28765 11.3334 7.63434 11.3067 7.901C11.5734 7.55434 11.8134 7.02097 12.1867 6.70097C12.4267 6.96764 12.1067 7.26099 12.0801 7.55432C12.4534 7.20766 13.1467 6.80763 13.1734 6.27429L12.8001 6.16769C12.9867 6.08769 13.0134 6.59433 12.9334 6.72766C12.6667 7.28766 12.2934 6.78095 12.1867 6.59428L12.4534 6.35429C11.7067 5.39429 11.2001 7.04769 10.6667 7.34103L10.5067 6.46098L10.2401 7.42102C10.0001 7.31436 9.62673 6.9943 9.86673 6.70097C9.1734 6.64764 9.6534 7.20762 9.0134 7.10095C8.9334 7.10095 8.9334 7.02099 8.9334 6.96765C8.8534 7.15432 8.74674 7.31435 8.66674 7.50102C8.64007 7.28769 8.2134 7.10101 8.56007 6.99435C7.46674 7.28768 7.86674 8.51429 7.1734 8.35429V8.24768C6.5334 9.44768 7.54673 8.75428 7.54673 9.92761C7.0134 9.79428 6.48007 9.68765 5.92007 9.63432L6.37341 10.061C6.37341 10.061 6.10673 10.381 5.92007 10.221C6.02673 10.861 6.18673 10.2743 6.40007 10.7277C5.5734 11.0477 5.92007 12.4077 4.98674 12.221C5.36007 12.5943 5.54674 11.7676 5.60007 12.5143C4.5334 12.381 5.54673 13.3143 4.96006 13.7676C4.4534 13.4743 4.90674 12.9677 4.26674 13.4743C5.12007 14.0077 3.84007 14.6477 4.02674 15.2343C4.24007 15.2343 4.34673 15.3943 4.40007 15.5543C4.18673 15.4743 4.08007 15.3677 4.02674 15.2343C3.92007 15.2343 3.78673 15.2343 3.62673 15.2876C3.60007 15.4476 4.1334 15.501 4.40007 15.581C4.5334 15.981 4.3734 16.621 4.56007 17.181C4.32007 17.1276 4.16007 18.701 3.8934 19.4743H3.76007C4.50674 19.6077 4.34674 20.381 4.50674 20.941C4.0534 20.941 3.89341 20.8076 3.70674 20.5143V21.0477C3.94674 21.181 4.08007 21.341 4.16007 21.6876L3.60007 21.5543C3.62674 22.2743 4.24007 22.9943 3.86673 23.901C4.3734 23.9543 5.28007 23.181 5.62673 24.141C5.36006 24.1677 4.88007 24.221 4.7734 23.9543C4.80007 24.0343 5.0134 24.2477 4.88007 24.4077L4.42674 24.0343C4.21341 24.461 4.82673 24.2476 4.7734 24.5943C4.3734 24.5943 4.48007 24.8343 4.18674 24.781C4.16007 24.701 4.34674 24.4876 4.18674 24.3543C4.10674 24.7276 3.8934 25.181 3.5734 25.341C3.78673 25.3144 4.10673 25.341 4.16007 25.6076C4.18673 26.3276 3.68007 25.8476 3.4934 26.2743C3.76007 26.4343 3.4934 26.8877 4.08007 26.9144C4.08007 27.1277 3.8134 27.1543 3.6534 27.2343C3.92007 27.6077 3.7334 28.941 4.34673 28.541L4.40007 28.4343V28.4877C5.0134 29.6877 4.08007 30.9943 4.34673 32.1943H4.16007C4.3734 32.9143 4.2934 33.7677 4.72006 34.301C4.72006 34.5143 4.34674 34.8076 4.1334 34.701C4.2934 35.2343 4.50674 35.3144 4.18674 36.0877C3.84007 35.5277 3.89341 36.2743 3.94674 35.5276C3.78674 36.2476 3.46674 36.4077 4.00007 37.1543C3.49341 36.8877 3.36007 37.6876 3.52007 38.0343L3.8934 37.5276C3.9734 37.901 3.92007 38.2477 3.8934 38.5677L3.22674 38.381C2.42674 39.821 4.6134 40.9944 3.22674 42.0877C3.68007 42.461 3.54673 41.2877 4.10673 41.6343C4.02673 42.301 3.06673 42.9943 3.06673 43.2076C2.6934 44.1143 4.02674 44.061 3.78674 45.021C4.02674 44.8876 4.66673 44.781 4.88007 45.501C4.80007 46.1677 3.89341 46.3277 3.70674 45.901C3.70674 45.741 3.76007 45.661 3.84007 45.661C3.76007 45.4477 3.6534 45.1544 3.38673 45.421L3.62673 45.501C3.38673 45.821 3.4134 46.7543 3.0134 46.541C3.22673 47.0476 3.41341 46.7543 3.52007 46.381C3.20007 47.261 3.4934 47.6343 3.30673 48.7277C3.44007 48.541 3.70674 48.381 3.70674 48.541C3.52007 50.0343 4.2134 49.1544 4.4534 50.0877C4.2134 50.701 3.54674 50.0877 4.08007 50.9677C4.00007 51.6343 3.52007 51.261 3.2534 51.0476C3.92007 51.8743 3.52007 52.8877 3.68007 53.4743C3.54673 53.341 3.41341 53.2076 3.28007 53.0476C3.49341 53.3143 3.62673 53.5276 3.7334 53.7676L4.02674 53.2876C4.08007 53.6076 4.18674 53.8209 4.02674 53.9276C4.42674 54.0609 4.64007 53.3676 5.28007 53.6876C5.28007 54.141 6.08007 54.541 5.6534 54.9943C5.1734 53.8477 5.20007 55.4743 4.5334 54.621C4.72007 54.7543 4.82674 54.9676 4.9334 55.2876C4.90674 55.3676 4.80006 55.3143 4.72006 55.2876C5.0134 56.621 5.60007 55.3677 6.37341 56.301C6.00007 56.4077 6.08007 56.9677 6.26674 57.0743C5.92007 56.6743 6.53341 56.5143 7.04007 56.6477C7.4134 57.3943 7.78673 57.0743 8.0534 57.3676L7.8134 56.9677C8.16006 56.8077 8.40007 57.101 8.88007 57.2876C8.74674 57.5276 8.40007 57.1543 8.4534 57.3676C9.2534 57.2076 9.14673 58.6743 10.1067 58.7277C10.3467 59.101 9.84007 59.341 10.0801 59.6343C11.1467 59.6343 10.8801 60.5143 12.0001 60.5143C11.8667 59.9543 11.7867 60.0877 12.5867 59.821C12.0267 59.821 11.4934 59.6876 10.9334 59.6076C11.3601 59.5276 11.7601 59.421 12.1334 59.3143C11.7067 59.1543 11.0667 59.261 10.8534 59.0476C11.4401 58.8876 11.3334 58.9676 11.3067 58.5143C11.6267 59.421 12.5867 58.5676 13.1467 59.181L12.8534 60.3277C13.9201 61.1277 15.0934 60.1143 16.4001 60.4077L15.9734 60.1943C16.1334 59.7143 16.7734 60.1409 17.1734 59.9276C17.1467 60.3276 17.3867 60.461 17.5734 60.701C17.5734 60.4076 18.5067 60.7276 18.6401 59.9276L19.2267 60.461C20.2667 60.6743 20.4267 59.341 21.4134 59.4743C21.1201 59.901 21.5734 60.1943 20.9067 60.4877C21.2534 60.4877 21.5467 60.5677 21.5467 60.301C21.7334 60.541 22.4801 59.7677 22.7734 60.141C22.9067 59.9543 22.9601 59.5543 23.3334 59.581C23.3867 59.661 23.3334 59.7676 23.3334 59.7676C23.3334 59.581 23.9201 59.501 23.6001 59.0743C24.6401 60.301 26.4801 58.9943 27.3601 60.0343C28.0801 59.901 28.9601 59.7677 29.6267 59.741C29.5734 59.8477 29.6267 59.9277 29.4934 59.901C30.4001 60.2743 30.0534 58.781 31.0934 59.181C31.6267 59.8209 30.5334 59.5276 30.8801 59.7676C31.0134 61.0743 32.1334 59.581 32.8267 60.3543L32.6667 60.4343C33.2001 60.8876 33.9734 59.9543 34.8534 60.0343C34.8534 60.0343 34.8001 60.141 34.8534 60.221C35.4401 59.5543 36.5867 59.341 37.4134 59.1543C37.1467 59.661 37.0401 59.4209 37.2001 59.9276C37.5734 59.8476 37.0934 59.101 37.8401 58.941C38.0801 59.2076 38.6134 59.4744 38.6934 60.0077H37.9734C38.3467 60.7544 38.8801 60.0077 39.2534 60.141L39.2001 60.461C40.2934 60.3543 40.2934 59.581 41.4667 59.6343L41.3334 59.3943C41.9734 58.621 41.8667 59.8209 42.5067 59.2609L42.6934 60.061C43.1201 59.8743 44.1601 59.2877 44.9334 59.1543C44.5067 59.741 43.6267 60.0343 43.0667 60.381C43.4934 60.381 44.4801 60.3276 44.6934 59.9276C44.5334 60.0076 44.3201 60.1944 44.1601 60.0877C44.6667 59.4744 45.3334 59.1543 46.1867 59.181C46.0534 60.701 48.2667 59.581 49.1734 60.701C50.8001 59.981 52.6934 60.2476 54.5067 59.101C53.2801 58.461 55.0134 58.7543 54.2401 57.7943C54.5601 57.5276 54.6934 57.421 54.7734 57.4476C55.2801 57.3943 55.7867 57.2876 56.2934 57.1276C56.8001 57.1543 56.1334 57.6343 56.3467 57.821C57.2001 57.1543 57.0401 57.901 57.7867 57.6343C57.3867 57.4477 57.6001 56.9143 58.1334 56.5677L57.1201 56.8344C57.6001 55.341 58.8001 56.5143 59.1201 54.861L59.2001 55.4743C59.4934 54.7277 60.6401 52.8076 59.8934 51.7943C60.0801 51.7143 60.4534 51.6343 60.4267 51.981C61.2267 50.1943 60.0534 47.6876 60.6134 46.701L60.9067 46.8077C60.8267 46.5143 60.3467 46.3276 60.6401 45.9543C60.7734 45.9543 60.9334 46.061 60.9601 45.9543C60.8534 45.7943 60.4267 45.2077 60.6134 44.8344L60.9601 45.1543C61.3601 43.6877 60.1334 42.8877 59.9467 41.661C60.8267 41.661 61.1201 40.5143 61.2534 39.9276H61.3867C61.4934 38.2209 60.6667 37.0476 60.3201 35.4476C61.2801 34.461 60.7201 32.1143 61.2534 30.5143L61.0401 30.8344ZM47.9201 3.36764V3.44763C47.9201 3.44763 47.9467 3.23428 48.0001 3.18095C48.2934 3.12762 48.3734 3.23436 48.4001 3.34103C48.2667 3.34103 48.1067 3.341 47.8934 3.39433L47.9201 3.36764ZM49.2801 7.23434C49.2801 7.23434 49.0401 7.23434 48.9601 7.23434C49.0134 7.23434 49.1201 7.23434 49.2801 7.23434ZM50.0001 7.34103C50.0001 7.15436 50.1067 6.96768 50.2401 6.99435C50.1334 7.10101 50.4001 7.26102 50.5334 7.50102C50.4001 7.42102 50.2134 7.36767 50.0001 7.31433V7.34103ZM19.3601 48.781C19.3601 48.781 19.4401 48.7276 19.5467 48.781C19.5467 48.8076 19.5201 48.861 19.5201 48.9143L19.5734 48.9677C19.5734 48.9677 19.4401 48.8077 19.3867 48.7544L19.3601 48.781ZM55.2801 36.1943C55.2801 36.1943 55.2534 36.1943 55.2267 36.221C55.2534 36.1677 55.2801 36.141 55.3067 36.1143C55.3067 36.141 55.3067 36.1676 55.3067 36.1943H55.2801ZM55.0934 35.741C55.4401 35.3943 55.4401 35.6076 55.5734 35.2609C55.5734 35.421 55.4667 35.6343 55.3867 35.8476C55.2534 35.8476 55.0134 36.0343 55.0934 35.741ZM22.8534 50.781C22.8534 50.781 22.7467 50.861 22.6934 50.9143C22.5334 50.781 22.4001 50.6476 22.4534 50.621C22.5334 50.7276 22.6934 50.7276 22.8534 50.781ZM22.5334 51.1276C22.5334 51.1276 22.4801 51.2077 22.4801 51.2343C22.4801 51.2343 22.4801 51.181 22.5334 51.1276ZM56.4001 47.8476L56.3467 47.7676C56.7467 48.621 56.2934 49.3677 55.8134 50.061C55.3067 50.7277 54.8267 51.181 55.0667 51.901V51.821C55.0667 52.2477 55.0134 52.6477 54.9601 53.0743C54.5867 53.4743 54.8001 52.5944 54.3467 52.7544C54.3467 54.2744 53.0667 54.1143 52.6667 55.101C51.9201 54.7276 51.4134 55.0744 50.8534 55.421C50.2934 55.7677 49.6001 56.141 49.0401 55.741L49.1734 56.0877C48.9867 56.461 48.8267 55.9276 48.6401 55.8743C48.6934 56.141 48.9601 56.141 48.8267 56.3543C47.8667 56.7276 46.2134 56.5143 44.7467 56.301C43.2534 56.0877 41.7334 55.7676 40.2667 55.6076C39.1734 55.501 39.6534 57.4476 38.2934 56.5943L38.6934 55.9276C36.5067 56.7276 34.2401 55.901 32.0801 56.5677C32.2134 56.4077 32.2134 56.221 32.4267 56.221C31.9734 55.741 30.7467 56.2209 30.7467 56.5943C30.4267 56.5409 30.6667 56.2476 30.4534 56.0343C30.0001 55.741 29.3067 56.6477 29.0667 56.1677C29.0134 56.0877 29.2001 56.0077 29.2801 55.981C28.9867 56.221 27.8934 55.9277 28.1867 56.4877C27.3867 56.221 26.6401 56.7277 26.0001 56.4077C25.5734 57.021 24.6134 56.1143 24.5067 56.9943C24.5601 56.0877 23.0934 56.2743 22.5867 56.701C22.7467 56.4343 22.1334 56.4076 22.3467 56.0343C21.7601 56.0343 21.2267 56.221 21.3334 56.6744C20.2667 55.581 19.2001 57.5544 18.5867 56.1677C18.5867 56.1677 18.5601 56.1677 18.5334 56.1677C18.4001 55.901 18.3201 55.6877 18.1601 55.421C18.8267 55.821 18.7467 56.1409 19.3067 56.5943C18.8534 56.1676 19.0667 55.9276 18.6401 55.6076C19.0667 55.821 18.8801 55.6877 19.4134 56.061C18.7201 55.3677 19.3867 55.8477 19.0401 55.341C19.5201 55.5277 19.7334 55.9277 19.6801 55.581C19.9734 55.7143 20.0801 56.0877 20.0801 56.0877C20.2401 55.9277 19.6267 55.501 19.3601 55.181C19.3867 54.8343 19.8401 55.4743 20.1867 55.661C20.1867 55.3943 19.7601 54.8344 19.8667 54.7544C19.9734 54.8344 20.0001 54.8343 20.1067 54.9677C19.8134 54.4343 20.4534 54.5677 20.0801 53.901C20.1334 53.9277 20.1867 53.981 20.2401 54.0077C19.9467 53.7677 19.6801 53.5277 19.4934 53.341C19.5467 53.261 19.2801 52.8876 19.6534 53.181C19.6001 53.2076 19.7334 53.3677 19.8134 53.4743L19.7334 53.2609C20.2934 53.6609 19.8134 53.5277 20.1867 53.901C20.1867 53.581 19.9201 53.021 20.1867 53.0476C20.6934 53.501 20.0801 53.4743 20.6667 53.741H20.3201C21.2267 54.3543 20.1601 53.7943 21.1201 54.461C21.4934 54.3543 21.1201 53.9543 21.4934 53.8476C21.2801 53.5276 21.0667 53.4743 20.8534 53.1543C20.6934 52.3543 22.3467 54.061 21.9201 53.2076C21.6534 52.8343 21.0667 52.221 21.5467 52.3543L22.0534 52.941C22.3201 52.7543 21.3867 52.0344 21.9734 52.1677C22.1601 52.4077 21.9734 52.5143 22.0801 52.541C22.6667 52.8076 21.8667 52.141 21.9734 52.0077L22.4801 52.461C22.6401 52.141 22.5334 51.5276 22.7201 51.181C22.8534 51.341 22.9601 51.5276 23.1734 51.6076C23.2534 51.021 23.9201 50.941 24.5334 50.8877L24.2401 50.3543C24.2401 50.3543 24.4801 50.4876 24.5334 50.5943C24.8267 50.5943 24.2667 50.3276 24.1601 50.1143C24.2134 50.0076 24.5067 50.2477 24.5867 50.4077C24.4534 49.8477 24.4267 49.021 25.1201 49.2076L25.2001 49.3676C25.5467 49.3676 24.5334 48.3276 25.0934 48.541L25.1467 48.6477C25.7067 48.4077 25.7601 47.6077 26.6934 47.901C26.1334 47.261 27.3601 47.7677 26.5067 46.9143C27.1467 47.101 27.2267 47.2877 27.8401 47.2343C27.9734 47.181 27.4401 46.5943 27.4401 46.4077L27.8934 46.8344L27.5734 46.2477L28.1867 46.6744V46.461C28.1867 46.461 27.8934 46.3543 27.7601 46.221C27.7067 45.8743 28.4267 46.141 28.6667 46.3543V45.6343C28.8267 45.821 28.8267 45.9277 28.8801 46.0877C28.6134 45.4477 29.3867 46.4876 29.1467 45.9276C29.0134 45.8476 28.9067 45.661 28.8001 45.581C29.1467 45.741 29.3601 45.5543 29.3867 45.2876L29.6534 45.6076C30.0001 45.3943 30.0534 44.8876 30.3734 44.5943C30.1334 44.5943 29.6267 44.0343 29.6534 43.901L30.1601 44.3277C29.9201 43.981 29.8934 44.2477 29.6534 43.7943C29.8134 43.741 30.2667 44.221 30.3467 44.4343V44.141C30.3467 44.141 30.5067 44.381 30.6667 44.541C30.4267 44.1943 31.3601 44.7543 30.9334 44.1943L31.0934 44.3277C31.3867 44.0343 31.3601 43.741 31.5734 43.4476C31.1734 43.0476 31.3601 43.0477 31.0934 42.6477C31.3867 42.5943 31.9201 42.6743 32.1067 42.4343C32.0534 42.0876 31.8134 42.061 31.6267 41.7676C32.0001 42.1143 32.1867 41.8477 32.3467 42.221C32.5334 41.901 32.5867 41.821 32.6134 41.181C32.4267 41.0743 32.3201 41.0477 32.2134 40.9144C32.2134 40.8077 32.5067 40.9143 32.6667 41.101V41.1543C32.5067 40.2477 34.6134 41.3143 34.1334 40.2743V40.3277L34.0534 39.6343C34.2667 39.5543 34.2401 39.981 34.5867 40.0877C34.2934 39.1544 35.2001 39.6343 35.0401 38.9677C36.3467 39.7943 35.7067 38.141 36.6667 38.5143L36.4001 38.2743C36.2134 37.9543 36.6401 38.3277 36.7467 38.3277C36.5334 38.141 36.4267 38.1944 36.3467 38.0077C36.6401 37.0744 37.9734 37.0476 38.8267 36.621C39.1201 36.461 37.6267 35.2077 38.5334 35.501L38.9334 36.0343C38.8267 34.9943 39.8934 35.0743 39.8667 34.141C39.9467 34.2743 40.0801 34.4076 40.0534 34.461C40.5067 34.701 40.4267 34.1143 40.1334 33.8476C40.2401 33.7943 40.4001 34.0877 40.5867 34.1677C40.8801 34.2744 40.3734 33.501 40.7734 33.7676C40.8267 33.821 40.8534 33.901 40.8801 33.9543C40.7734 33.741 41.2001 33.6876 40.7467 33.3676C41.1201 33.3676 40.8801 32.861 41.2534 32.941C40.9067 32.4076 41.7601 32.8343 41.1467 32.221C41.7867 32.861 41.9734 32.4077 41.7601 32.0077C41.9201 32.221 42.0534 32.1143 42.2934 32.4077C42.3734 32.301 42.2934 32.1677 41.9734 31.821C42.8001 32.5143 41.7334 30.8876 42.6401 31.9276C42.5867 31.3676 42.7201 30.941 42.9601 30.621C43.2534 31.4743 42.6667 30.8343 43.0667 31.6876C43.0934 31.261 43.0667 30.461 43.4134 30.621C43.5201 30.7276 43.4401 31.021 43.4667 31.1543C43.6534 30.7277 43.9467 31.1544 44.1867 30.6744C44.1867 30.7544 44.1601 30.861 44.1334 30.9144C44.1867 30.8877 44.2401 31.0477 44.2401 30.6477L44.1867 30.7544C44.1067 30.141 44.4534 29.5276 44.5067 29.2076C44.3201 30.381 44.8001 29.5277 44.4801 30.9943C44.5067 30.9143 44.5867 30.7276 44.6134 30.461C44.6667 30.541 44.6401 30.701 44.5601 31.021C44.7467 30.8343 44.7734 30.381 44.9601 30.4343C44.9067 30.621 44.8534 30.701 44.8001 30.9144C44.9601 30.541 45.1467 30.1943 45.2534 30.4077C45.2001 30.5143 45.1734 30.6743 45.1467 30.6477C45.3867 30.6477 45.9467 29.821 46.0801 30.3277C45.6001 31.0477 46.0534 30.621 45.6801 31.2876L45.9201 31.1543L46.0534 30.8077C46.0534 30.8077 46.5601 30.4877 46.5334 30.8077L46.2667 30.9943L46.5601 31.0477L46.6134 30.7277C46.9601 30.5143 47.1734 29.9543 47.2267 30.2743C47.1467 30.2743 47.3601 30.4077 47.1734 30.8077C47.3867 30.6743 47.6267 30.541 47.6267 30.8077C47.4934 31.021 47.0934 31.421 46.9867 31.5543C47.4667 31.1277 47.4401 31.7143 47.9467 31.2609C47.8134 31.3676 47.5734 31.661 47.5201 31.741L47.8934 31.3943C47.8667 31.581 47.8134 31.6343 47.6001 31.8743C47.7601 32.1143 48.1334 31.101 48.1334 31.6076C48.0801 31.6076 48.0534 31.6877 47.9734 31.7143C48.0801 32.0877 48.6401 31.8477 48.7201 32.221C48.3201 32.861 48.4001 32.221 48.0801 32.7544C48.4801 32.9144 49.3334 32.621 49.5201 32.9943V32.8877C50.2401 32.1143 49.4134 33.4743 49.8934 33.2343C49.8134 33.261 49.4667 33.661 49.5467 33.5543C49.6534 33.8743 50.1601 33.7143 50.6934 33.7143L50.4801 33.901C50.4534 34.1943 50.7201 34.2743 50.7734 34.4877C50.9867 34.301 51.0401 34.4077 51.2267 34.061C50.6667 35.6077 52.5601 34.061 52.1067 35.3943C52.0534 35.3677 51.8401 35.501 51.8934 35.5276L52.3734 35.6076C52.6401 35.2343 52.5067 35.3676 52.6667 35.021C52.8801 34.8343 53.0934 34.7543 53.1734 34.8077C52.8267 34.9143 52.6934 35.3943 52.6134 35.6343C52.6934 35.5277 52.8001 35.421 52.9067 35.2876C52.5601 36.061 53.5201 34.5943 53.4134 35.2076L53.2534 35.3943C53.4134 35.3943 53.7067 35.181 53.7601 35.3143C53.4667 35.7677 53.5201 35.421 53.2267 35.7676C53.3867 35.8476 54.1334 35.181 53.8934 35.6876C53.7334 35.7676 53.6534 35.6876 53.5201 35.7676C53.2534 36.3543 53.3601 36.2477 53.3867 36.4077L53.4134 36.781L53.4667 36.5943C54.5067 35.6609 53.9467 36.6743 54.7467 36.141C54.0001 36.6477 54.4001 36.4877 54.0001 36.9677C53.9467 37.1543 53.9201 37.3677 53.7867 37.4743C54.1867 37.181 53.7067 37.901 54.3201 37.4743C54.2134 37.6343 54.4267 37.5809 54.0801 37.9276C54.3201 37.9276 54.2667 37.6343 54.4267 37.4476C55.0667 37.101 54.4001 38.461 55.2801 38.0077C55.3334 38.0077 55.3867 37.981 55.4401 37.9543C55.4401 38.141 55.4934 38.3276 55.4934 38.5143C55.4934 38.5143 55.4934 38.5143 55.4667 38.5143C55.4934 38.5943 55.3334 38.9676 55.5201 38.941L55.5734 38.8877C55.6001 39.1543 55.6267 39.421 55.6267 39.741C56.1867 39.741 56.0534 40.221 56.5067 40.541C56.3201 41.3676 55.8934 42.301 55.9201 43.3143C56.1867 44.0343 56.4001 43.5276 56.7201 43.8476C56.2134 43.901 56.2667 44.9143 55.8934 44.381C55.9734 45.581 56.0001 45.9277 56.4001 47.4743C56.6134 47.3143 56.6934 47.1276 56.8801 47.2076C56.9601 47.4743 56.6667 47.8476 56.4267 47.7943L56.4001 47.8476Z" fill="black" fill-opacity="0.4"/>
<path d="M56.6566 8.08789C56.6566 8.08789 56.7366 8.14119 56.7632 8.22119C56.7632 8.14119 56.7099 8.08789 56.6566 8.08789Z" fill="black" fill-opacity="0.4"/>
<path d="M47.5132 3.87435C47.5132 3.87435 47.4599 3.90099 47.4066 3.92765C47.4599 3.98099 47.4866 4.0077 47.5399 4.06104L47.6199 3.87435H47.4866H47.5132Z" fill="black" fill-opacity="0.4"/>
<path d="M4.10449 28.8611C4.10449 28.8611 4.15783 28.8078 4.1845 28.8078C4.15783 28.8078 4.13116 28.8078 4.10449 28.8345V28.8611Z" fill="black" fill-opacity="0.4"/>
<path d="M55.7295 23.2611H55.8628L55.7561 23.1278L55.7295 23.2611Z" fill="black" fill-opacity="0.4"/>
<path d="M6.58408 14.7278C6.58408 14.7278 6.42408 14.6745 6.34408 14.6478L6.58408 14.7278Z" fill="black" fill-opacity="0.4"/>
<path d="M10.0732 54.6745C10.0732 54.6745 10.1266 54.7011 10.1532 54.7011C10.3666 54.7544 10.2332 54.7011 10.0732 54.6745Z" fill="black" fill-opacity="0.4"/>
<path d="M5.81283 44.6211C5.91949 44.7544 6.02616 44.8877 6.0795 45.0211C6.13283 44.7811 6.13283 44.6211 5.81283 44.6211Z" fill="black" fill-opacity="0.4"/>
<path d="M6.04382 45.6345C6.15048 45.3945 6.12382 45.2079 6.04382 45.0479C6.01715 45.2345 5.93715 45.4479 6.04382 45.6345Z" fill="black" fill-opacity="0.4"/>
<path d="M13.0132 7.71444C13.0132 7.71444 13.0132 7.66111 13.0132 7.63444L12.9066 7.74113H13.0132V7.71444Z" fill="black" fill-opacity="0.4"/>
<path d="M13.297 7.34115L13.0837 7.55444C13.0837 7.55444 13.2703 7.52781 13.297 7.34115Z" fill="black" fill-opacity="0.4"/>
<path d="M9.43228 9.55444C9.64561 9.44778 10.1256 9.50112 10.2856 9.23446L10.2056 9.10107C10.2856 9.39441 9.35228 9.15444 9.43228 9.55444Z" fill="black" fill-opacity="0.4"/>
<path d="M4.89933 11.7144L5.486 10.8877C5.21933 10.941 4.846 11.021 5.006 10.5677C3.85933 11.4477 5.53933 10.5677 4.89933 11.6877V11.7144Z" fill="black" fill-opacity="0.4"/>
<path d="M3.78116 14.6212C3.78116 14.0612 3.46116 14.5945 3.35449 14.5412C3.48783 14.9145 3.54116 14.9945 3.78116 14.6212Z" fill="black" fill-opacity="0.4"/>
<path d="M3.67366 35.1811L3.16699 35.1278C3.24699 35.5011 3.35366 35.1277 3.67366 35.1811Z" fill="black" fill-opacity="0.4"/>
<path d="M6.31074 39.0744L6.63074 38.7277L6.17741 38.541L6.31074 39.0744Z" fill="black" fill-opacity="0.4"/>
<path d="M2.68449 41.3944L2.60449 41.2344L2.79116 41.8477L2.68449 41.3944Z" fill="black" fill-opacity="0.4"/>
<path d="M26.2932 60.9945L26.1865 60.3545C25.9199 60.4612 25.8665 61.1812 26.2932 60.9945Z" fill="black" fill-opacity="0.4"/>
<path d="M41.9103 60.5678C41.5903 60.5144 41.2437 60.2744 41.0837 60.3544C41.2437 60.6744 41.6703 60.8611 41.9103 60.5678Z" fill="black" fill-opacity="0.4"/>
<path d="M60.7712 27.1811L60.9845 27.5011L60.8245 26.9411L60.7712 27.1811Z" fill="black" fill-opacity="0.4"/>
<path d="M51.917 32.221C51.7837 32.381 51.8637 32.381 51.917 32.461V32.221Z" fill="black" fill-opacity="0.4"/>
<path d="M54.0432 33.5011C54.0432 33.5011 54.1766 33.4211 54.2299 33.3411L53.9899 33.5011H54.0432Z" fill="black" fill-opacity="0.4"/>
<path d="M31.7816 35.9277C32.2616 36.1411 32.0482 36.5678 32.6349 36.7811C32.4482 36.6478 32.1549 36.0077 31.7816 35.9277Z" fill="black" fill-opacity="0.4"/>
<path d="M39.0376 29.3411C39.0376 29.3411 38.9043 29.2878 38.9309 29.3945C38.9309 29.3945 38.9843 29.3945 38.9843 29.4211C38.9309 29.3411 38.9309 29.3145 39.0376 29.3411Z" fill="black" fill-opacity="0.4"/>
<path d="M37.9899 30.4344L38.0966 30.5144V30.4611L37.9899 30.4344Z" fill="black" fill-opacity="0.4"/>
<path d="M20.6041 54.3812C20.4707 54.3012 20.3374 54.1946 20.1774 54.0879C20.4707 54.3546 20.4441 54.5945 20.6041 54.3812Z" fill="black" fill-opacity="0.4"/>
<path d="M41.5403 33.1545C41.3803 33.0478 41.247 32.9945 41.167 32.9945C41.167 33.0211 41.2203 33.0744 41.247 33.1278L41.5403 33.1811V33.1545Z" fill="black" fill-opacity="0.4"/>
<path d="M34.5016 34.4077C34.5016 34.4077 34.5016 34.3011 34.4482 34.2477C34.4482 34.3011 34.4749 34.3544 34.5016 34.4077Z" fill="black" fill-opacity="0.4"/>
<path d="M19.8128 49.3678C19.8128 49.3678 19.8128 49.3945 19.8128 49.4211C19.8662 49.4211 19.8928 49.4744 19.9462 49.4744L19.8395 49.3411V49.3678H19.8128Z" fill="black" fill-opacity="0.4"/>
<path d="M51.8916 32.5677C51.8916 32.5677 51.8916 32.621 51.8649 32.6477V32.5943H51.8916V32.5677Z" fill="black" fill-opacity="0.4"/>
<path d="M27.9195 47.0211L27.8128 46.9411L27.8662 47.0478L27.9195 47.0211Z" fill="black" fill-opacity="0.4"/>
<path d="M53.8128 37.1545C53.8128 37.1545 53.9195 37.0211 53.9728 36.9678L53.8128 37.1545Z" fill="black" fill-opacity="0.4"/>
<path d="M44.0761 30.9678C44.0228 31.0744 44.0761 31.0211 44.0761 30.9678V30.9678Z" fill="black" fill-opacity="0.4"/>
<path d="M47.0899 30.8345C47.0899 30.8345 46.9032 30.9411 46.8232 30.9678C46.8232 31.0478 46.8766 31.1011 47.0899 30.8345Z" fill="black" fill-opacity="0.4"/>
<path d="M46.7191 30.8345C46.7191 30.8345 46.7457 30.9678 46.8524 30.9411C46.8524 30.8878 46.8257 30.7812 46.7191 30.8345Z" fill="black" fill-opacity="0.4"/>
<path d="M55.4899 34.9411C55.6766 34.9411 55.6766 34.7011 55.7832 34.5944C55.5966 34.7011 55.5432 34.7011 55.4899 34.9411Z" fill="black" fill-opacity="0.4"/>
<path d="M50.6878 30.9945L51.0345 30.6211C50.9012 30.6211 50.9012 30.7811 50.6878 30.9945Z" fill="black" fill-opacity="0.4"/>
<path d="M48.0757 32.3011L47.9691 32.6211L48.3157 32.2744L48.0757 32.3011Z" fill="black" fill-opacity="0.4"/>
<path d="M49.6774 29.0211H49.8374L49.9441 28.9945L49.6774 29.0211Z" fill="black" fill-opacity="0.4"/>
<path d="M37.8376 29.9012L38.3176 30.3012C38.2909 30.1679 37.7843 29.6612 37.8376 29.9012Z" fill="black" fill-opacity="0.4"/>
<path d="M34.8478 33.661C34.8478 33.661 35.1945 33.7143 35.1678 33.6343C34.9012 33.4477 34.6612 33.3944 34.8478 33.661Z" fill="black" fill-opacity="0.4"/>
<path d="M25.0107 42.4611V42.7011L25.0907 42.6745L25.0107 42.4611Z" fill="black" fill-opacity="0.4"/>
<path d="M22.0754 17.1545C22.0754 16.9945 22.1554 17.2879 22.1821 16.8879C22.1021 16.3812 21.9954 16.3545 21.9154 16.7812C21.8887 16.6478 21.9154 16.4612 21.9154 16.3545C21.8621 16.6745 21.8354 17.2345 21.9154 17.8478C21.9154 17.2078 21.9687 17.4745 21.9687 16.7279C22.0221 16.6479 22.0754 16.9412 22.0754 17.1812V17.1545Z" fill="black" fill-opacity="0.4"/>
<path d="M15.8649 18.4611C16.0249 18.5944 16.0249 18.5145 16.1049 18.4878H15.8649V18.4611Z" fill="black" fill-opacity="0.4"/>
<path d="M21.3857 18.0078C21.3857 18.0078 21.3857 17.9011 21.3857 17.8211C21.3857 17.8478 21.3857 17.8745 21.3857 17.9011V18.0078Z" fill="black" fill-opacity="0.4"/>
<path d="M17.0041 16.7278C17.0041 16.7278 16.8974 16.5678 16.8441 16.4878L16.9774 16.7278H17.0041Z" fill="black" fill-opacity="0.4"/>
<path d="M22.292 16.0879L22.3187 16.0612V15.7412L22.292 16.0879Z" fill="black" fill-opacity="0.4"/>
<path d="M23.9691 30.4878C24.0491 30.7011 23.9691 31.3945 24.2091 31.6611C23.9691 31.2078 24.3157 30.9678 23.9691 30.4878Z" fill="black" fill-opacity="0.4"/>
<path d="M16.284 28.621C16.284 28.621 16.3107 28.5677 16.3373 28.5677C16.2573 28.621 16.2307 28.621 16.2573 28.541C16.2573 28.5943 16.204 28.6477 16.284 28.6477V28.621Z" fill="black" fill-opacity="0.4"/>
<path d="M17.2191 29.4211C17.2191 29.4211 17.2457 29.3411 17.2724 29.3145H17.2191V29.4211Z" fill="black" fill-opacity="0.4"/>
<path d="M25.0656 19.6077C25.0656 19.6077 25.2523 19.341 25.359 19.2077C25.119 19.5277 24.9323 19.5543 25.0656 19.6077Z" fill="black" fill-opacity="0.4"/>
<path d="M21.3557 17.9545C21.3557 17.9545 21.3557 17.9545 21.3557 17.9278C21.3557 17.8478 21.3291 17.7679 21.3024 17.7145C21.3024 17.8479 21.3291 17.9278 21.3024 17.9545H21.3557Z" fill="black" fill-opacity="0.4"/>
<path d="M19.7866 25.7944C19.6799 25.9544 19.5999 26.0611 19.5732 26.1411C19.5999 26.1144 19.6266 26.0878 19.6799 26.0344L19.7866 25.7944Z" fill="black" fill-opacity="0.4"/>
<path d="M21.6462 16.7546C21.6462 16.7546 21.6995 17.1812 21.6995 17.2878C21.6995 17.1812 21.7528 17.1012 21.7528 16.9412L21.6728 16.7546H21.6462Z" fill="black" fill-opacity="0.4"/>
<path d="M21.4612 30.9144C21.4612 30.9144 21.4078 30.9944 21.3545 31.0477C21.3812 31.021 21.4078 30.9411 21.4612 30.9144Z" fill="black" fill-opacity="0.4"/>
<path d="M30.2087 20.861C30.2087 20.861 30.2087 20.8611 30.2087 20.9144C30.2353 20.9144 30.2353 20.8877 30.2087 20.861Z" fill="black" fill-opacity="0.4"/>
<path d="M13.9191 22.4878C13.5724 22.7011 13.8924 22.8611 13.6791 23.1011C13.8124 23.0477 14.0791 23.0211 14.0791 23.0478C13.8124 23.3944 14.5324 23.1811 14.6391 23.3945C14.2924 23.5545 13.7857 23.3944 14.0791 23.6077C13.8391 23.7677 13.4657 23.6878 13.2524 23.6611C13.7057 23.8478 13.0124 24.1144 12.9324 24.2744L12.7191 24.1678C12.7191 24.1678 12.8524 24.3011 12.8524 24.3544L13.3057 24.2211C13.3057 24.2211 13.2524 24.3545 13.0391 24.4078C13.3591 24.4078 13.8124 24.2211 14.2391 24.3011C14.0257 24.4344 14.5324 24.5145 13.9191 24.6745C14.0791 24.3545 13.3057 24.8344 13.1724 24.5944C13.2524 24.6211 13.2524 24.7011 13.1724 24.7811C13.1191 24.7811 13.0391 24.7811 13.0124 24.7811C12.5324 25.2078 13.7324 24.7811 13.7857 25.0478C13.4391 25.1011 13.1457 25.2878 13.2257 25.3145C13.2257 25.1811 13.7857 25.1011 14.0791 25.1278C13.8657 25.3678 14.3191 25.2611 14.3191 25.3678L14.4257 25.2345C14.7724 25.1545 14.7457 25.2611 14.9057 25.3411C14.6391 25.4478 14.6924 25.2878 14.5857 25.3678C15.2257 25.2878 14.0791 25.8745 14.5324 25.9011C14.3457 26.0611 13.9191 26.1411 13.7857 26.3011C14.2924 26.3278 13.4391 26.7278 13.8924 26.8078C14.2924 26.5411 14.1858 26.5944 14.6658 26.5411L14.1858 26.3278L14.9324 26.2744C14.9324 26.2744 14.5591 26.1945 14.6124 26.0878C15.0124 26.0345 14.9057 26.0878 15.2524 25.8744C14.6657 26.3011 15.7591 25.9544 15.3857 26.3011L14.3191 26.8078C13.9724 27.3144 15.0924 26.9678 15.0124 27.3945L15.1191 27.1811C15.5457 26.9677 15.2791 27.3145 15.4924 27.3145C15.1457 27.5278 15.0657 27.6611 14.9057 27.8477C15.1457 27.6877 15.0391 28.0878 15.7057 27.6344L15.3857 28.0611C15.3857 28.4345 16.4524 27.6078 16.5057 27.8744C16.1324 28.0878 15.9991 28.3811 15.6524 28.4344C15.7057 28.5144 15.7057 28.6211 15.9191 28.4344C15.7857 28.6477 16.4791 28.2478 16.2657 28.5678C16.4257 28.4878 16.7191 28.1944 16.7724 28.3011C16.7191 28.3544 16.6391 28.4344 16.6391 28.4344C16.7724 28.3011 16.9324 28.3545 17.1724 27.9811C16.5057 29.0478 17.7057 28.3811 17.2257 29.3145C17.4657 29.3145 17.7057 29.3678 17.8657 29.4211C17.7857 29.5011 17.7591 29.5811 17.7591 29.5278C17.7591 29.9544 18.5057 28.6478 18.4791 29.1278C18.2657 29.7411 18.1857 29.3411 18.1324 29.6077C17.4924 30.7277 18.5057 29.6078 18.2924 30.3811L18.2124 30.4344C18.1324 30.8877 18.7457 30.1411 18.9057 30.3278C18.9057 30.3278 18.8524 30.4344 18.8257 30.5144C19.2524 29.9811 19.5724 29.8744 19.8124 29.7677C19.5724 30.2211 19.6257 29.9811 19.4924 30.4878C19.5991 30.4611 19.7591 29.6878 19.9724 29.6344C19.9457 29.9278 19.9724 30.1945 19.8391 30.7278H19.6524C19.5191 31.4211 19.8924 30.7278 19.9457 30.8878L19.8391 31.1811C20.1591 31.1811 20.3457 30.4077 20.6124 30.5144V30.2744C20.9324 29.5544 20.6657 30.7278 20.9324 30.1944L20.8524 30.9678C21.0124 30.8078 21.3324 30.2744 21.5191 30.1411C21.3591 30.7278 21.0924 30.9678 20.9057 31.2878C20.9857 31.2878 21.1724 31.2344 21.3057 31.0478C21.3057 31.0744 21.2524 31.1011 21.2524 31.0478C21.4657 30.4611 21.6524 30.1411 21.8391 30.1678C21.7324 31.6878 22.3457 30.5945 22.5324 31.7411C22.9057 31.1545 23.3857 31.9278 23.8657 31.7411C23.4924 30.5945 23.9991 31.6878 23.7324 30.4878C23.8124 30.4078 23.8657 30.4078 23.8657 30.4878L24.3457 31.1278C24.5057 31.4478 24.3191 31.4211 24.3724 31.6877C24.6391 31.7144 24.6124 32.1677 24.8791 32.4344C24.7191 32.0344 24.7991 31.8211 24.9857 31.9277L24.6124 31.4478C24.7457 30.7544 25.2257 32.3277 25.3591 31.6077V32.0078C25.4924 31.7411 26.0791 31.7678 25.8124 30.7811C25.8924 30.8878 26.0791 31.1811 26.0524 31.2878C26.5591 31.2344 26.3991 29.9277 26.9857 30.2744L27.1191 30.5411C27.1191 30.5411 26.9324 30.0078 27.1724 30.1944C27.2257 30.3011 27.3057 30.4611 27.3591 30.4611C27.3591 30.3544 27.2257 29.9011 27.4124 29.9811L27.5457 30.3011C28.1324 30.3544 27.5457 29.2611 27.6524 28.8878C28.2391 29.5278 28.6924 29.5278 28.9057 29.5011L28.9857 29.5811C29.4391 29.2611 29.0391 28.4345 28.9857 27.9011C29.9457 28.2478 29.8391 27.3411 30.5324 27.1811C30.3457 27.1811 29.9191 26.8611 29.8924 26.7545C30.1057 26.7545 29.4657 26.2477 30.1857 26.5944H30.1591C30.9057 26.8877 30.8257 26.5945 30.9057 26.4078L29.9457 25.9811C31.5724 26.0878 29.7591 24.7544 31.1191 24.8878C30.8791 24.7278 30.9058 24.5944 30.6657 24.4344L31.2257 24.5411C31.4124 24.2478 31.5191 24.1144 31.4124 23.7144L31.8124 23.8211C31.8657 23.5811 30.2124 23.4211 30.1857 23.2611H31.0391C31.0391 22.8877 31.7591 22.4611 30.9857 22.1678C31.1191 22.1678 31.3591 22.1678 31.3857 22.2211C31.4124 22.0611 31.8657 21.4477 30.7457 21.6877C31.4924 21.5811 30.7457 21.2877 30.3991 21.1811L30.9591 21.1011C30.2124 21.1011 30.0257 21.1278 29.7857 20.9678C29.8391 20.9144 30.0257 20.8611 30.1057 20.8611C30.1591 20.7278 29.5724 20.8611 29.7857 20.6478H30.1591C30.1591 20.4345 29.9724 20.5144 29.5457 20.5411C29.3057 20.5411 29.5724 20.2211 30.0257 20.0078C29.7324 20.0878 29.3057 20.1411 29.4124 20.0078C29.5724 19.9278 29.7057 19.9278 29.7591 19.9011C29.9991 19.4745 28.9857 19.7678 29.4124 19.3678C29.5724 19.2878 29.6524 19.2344 29.7057 19.1811C29.7857 19.3944 29.8391 19.5811 29.8124 19.5811C30.2924 19.3945 30.2657 19.1544 31.0124 19.0211C30.5857 19.0211 29.7057 19.1278 29.8391 18.8611C29.8924 18.8344 29.9191 18.8078 29.9724 18.7545H30.0257C30.0257 18.7545 29.9991 18.6745 29.8924 18.6745C29.9457 18.5678 29.9724 18.5144 29.9457 18.4611C30.2924 18.2211 30.0257 18.1411 29.9991 18.0344C29.5191 18.3278 29.5457 18.1944 29.1991 18.5144C29.1991 18.4877 29.2524 18.5144 29.3057 18.5144C29.3057 18.5144 29.3324 18.5144 29.3857 18.5144H29.3324C29.3324 18.5144 29.4391 18.6478 29.4924 18.7278C29.1991 18.8078 28.9591 18.8611 29.1724 18.6211C28.8524 18.7811 28.5057 18.9145 28.3457 18.9945C28.9591 18.4878 29.1724 18.0344 29.5457 17.7144C29.1191 17.6611 28.9591 17.2345 28.0257 17.8211C27.8657 17.8478 28.1857 17.5545 28.2924 17.4211C28.3991 17.3945 28.4257 17.4211 28.5591 17.3678C28.2391 17.4211 28.1591 17.0744 27.5991 17.5544C27.7057 17.1811 28.1591 17.1544 27.8924 17.0478L28.0791 16.9145C28.4257 15.6078 26.2391 17.7678 26.6924 16.2478C26.6924 16.3545 26.6657 16.4077 26.6124 16.5144C26.3724 15.5544 25.1991 16.3811 25.0124 15.2078C24.9057 14.9411 24.7191 15.3677 24.5057 15.6877L24.6391 15.1011L24.2657 15.7144C23.9191 16.1678 24.1591 14.1411 23.5991 15.0211V15.4211C23.4657 15.3145 23.1724 15.6078 23.2524 15.1278C23.2524 15.2078 23.1724 15.5545 23.1457 15.3145V14.9945C23.0657 15.1545 22.9324 15.3145 22.8257 15.5011C22.6124 15.2611 22.9591 14.2478 22.5857 14.1678C22.4257 14.2745 22.1857 15.0744 22.2391 15.2878C22.2924 15.2878 22.3724 15.5011 22.3724 15.7944L22.2657 15.9544C22.2657 16.3278 22.2657 16.7277 22.2657 17.1011C22.2657 17.0211 22.2657 16.9411 22.2124 16.9945V17.6611L22.2657 17.4744V17.4211C22.2657 17.8211 22.2924 18.2211 22.3724 18.5144L22.5057 17.9544V18.4078H22.4257C22.4524 18.8345 22.5057 18.4611 22.5591 18.1944C22.5591 18.4344 22.5591 18.5944 22.5591 18.7011L22.7457 17.8211C22.7457 18.1945 22.6124 18.5411 22.6658 18.7545C22.7724 18.3545 22.6924 17.9277 22.8257 17.6877C22.8257 18.1144 22.7724 18.4611 22.8791 18.1144C22.8791 18.3544 22.8257 18.5144 22.7724 18.5944C22.8791 18.3277 22.9324 18.4878 23.0391 18.0078C23.0124 18.5145 23.2791 17.9011 23.0924 18.7811C23.1458 18.5678 23.3324 18.1411 23.4124 18.1144C23.0657 19.1011 23.5991 18.2211 23.2524 19.3145C23.5991 18.4078 23.5991 18.9944 23.8924 18.5411C23.8657 18.6211 23.7857 18.7544 23.7857 18.7011C23.8124 18.8078 23.7324 19.0745 23.7057 19.2345C24.0257 18.5145 24.1857 18.4078 24.4524 18.0078C24.2124 18.7278 23.9991 18.8078 23.7324 19.4744C23.9991 18.8878 24.1324 18.9678 24.3457 18.4878C24.1857 18.9411 24.2924 18.7278 24.0257 19.3145C24.5057 18.4611 24.1591 19.1811 24.4791 18.7011C24.3191 19.1811 24.0524 19.5011 24.2924 19.3145C24.1857 19.6078 23.9191 19.8477 23.9191 19.8477C23.9724 19.9011 24.3191 19.2611 24.5591 18.8878C24.7724 18.7811 24.3191 19.3944 24.1591 19.7144C24.3191 19.5811 24.7457 19.0478 24.7724 19.1278C24.7191 19.2344 24.6924 19.2611 24.5857 19.3945C24.9857 18.9678 24.7991 19.5011 25.3324 18.9945C25.3057 19.0478 25.2524 19.1011 25.2257 19.1545C25.4657 18.8611 25.7057 18.5677 25.8657 18.3544C25.9191 18.3811 26.2657 18.0878 25.9724 18.4611C25.9724 18.4344 25.8124 18.5678 25.7057 18.6745L25.8924 18.5678C25.4657 19.1278 25.6791 18.7011 25.3324 19.0745C25.5457 18.9678 26.0524 18.6478 25.9991 18.8611C25.5457 19.3678 25.6791 18.8878 25.3591 19.3945L25.4391 19.1278C24.7991 19.9811 25.4391 19.0211 24.7457 19.9277C24.7191 20.1677 25.0924 19.7678 25.0657 20.0078C25.3591 19.7678 25.4657 19.6078 25.7591 19.3678C26.4257 19.1011 24.6124 20.6478 25.3857 20.1678C25.7591 19.9011 26.4524 19.3944 26.1591 19.7677L25.5191 20.1944C25.5191 20.3544 26.4524 19.6078 26.1324 20.0344C25.8657 20.1944 25.8391 20.0878 25.7857 20.1678C25.3591 20.5945 26.1857 19.9811 26.2391 20.0344L25.6791 20.4344C25.8391 20.5144 26.3724 20.4077 26.5591 20.5144C26.3724 20.5944 26.1858 20.6744 25.9991 20.8078C26.3991 20.8611 26.1324 21.2878 25.7857 21.5811L26.3724 21.4744C26.3724 21.4744 26.1324 21.5811 26.0257 21.6077C25.8391 21.7411 26.3724 21.5011 26.6124 21.4744C26.6657 21.5011 26.2924 21.6345 26.1324 21.6611C26.6391 21.6611 27.2791 21.8478 26.6924 22.1144H26.5057C26.2924 22.2478 27.7324 22.1144 27.1991 22.2744H27.0924C26.8524 22.5677 27.4124 22.9145 26.5057 23.0745C27.3591 23.1811 26.1324 23.2878 27.2791 23.4478C26.6657 23.5278 26.4791 23.4478 26.0524 23.5811C25.9991 23.6078 26.7457 23.7945 26.8524 23.9011L26.2391 23.7677L26.8524 24.0078L26.1324 23.8744L26.2657 23.9811C26.2657 23.9811 26.5591 23.9811 26.7191 24.0611C26.9591 24.2478 26.2391 24.1945 25.9457 24.0611L26.3457 24.4611C26.1057 24.3544 26.0524 24.3011 25.9191 24.2211C26.4791 24.5678 25.3057 24.0078 25.8124 24.3011C25.9457 24.3278 26.1591 24.4345 26.2657 24.4878C25.8924 24.4078 25.8391 24.4878 25.9457 24.6478L25.5724 24.4344C25.4124 24.5144 25.5724 24.8078 25.4924 24.9678C25.6791 25.0211 26.3191 25.4211 26.3191 25.5278L25.7591 25.1811C26.0791 25.4477 25.9991 25.2611 26.3724 25.6077C26.2657 25.6344 25.7324 25.2345 25.5724 25.0745L25.7057 25.2611C25.5457 25.1544 25.4657 25.0744 25.2791 24.9411C25.5724 25.2077 24.6657 24.6478 25.1991 25.1278L25.0391 25.0211C24.9324 25.1544 25.0391 25.3411 24.9857 25.4744C25.3857 25.8744 25.2524 25.8211 25.5457 26.1944C25.3057 26.1678 24.9324 25.9278 24.8524 26.0344C24.9591 26.3278 25.1457 26.4078 25.3057 26.7011C24.9857 26.3011 24.8791 26.4345 24.7191 26.0878C24.6391 26.2478 24.6391 26.3011 24.6391 26.7545C24.7724 26.9145 24.8524 26.9678 24.9324 27.1278C24.9324 27.2344 24.7191 26.9944 24.6124 26.7811V26.7278C24.7191 27.5545 23.4124 25.6611 23.7057 26.7011V26.6478V27.2345C23.5724 27.1811 23.6257 26.8611 23.4657 26.5678C23.5191 27.4745 23.1191 26.5411 23.0924 27.1278C22.6924 25.6611 22.6391 27.3144 22.3457 26.3544V26.7011C22.3457 27.0478 22.3191 26.4878 22.2657 26.4078C22.2657 26.6745 22.3191 26.7278 22.3191 26.9145C21.8924 27.3678 21.4924 26.3811 21.3057 25.9811C21.2257 25.8745 20.7457 27.7411 20.7991 26.8878L21.0391 26.2744C20.5057 26.9411 20.5324 26.0611 19.9991 26.5411C20.0791 26.4078 20.1857 26.2478 20.2124 26.2478C20.3991 25.7945 20.0524 26.1144 19.8391 26.4611C19.8391 26.4078 20.0257 26.1411 20.1057 25.9811C20.2124 25.7145 19.6524 26.4345 19.8924 25.9811C19.9457 25.9011 19.9991 25.8744 20.0257 25.8477C19.8657 26.0077 19.9191 25.6878 19.6257 26.1678C19.7057 25.9011 19.3057 26.2477 19.4391 25.9277C18.9857 26.3544 19.4924 25.5811 18.9057 26.2211C19.5191 25.5544 19.2524 25.5811 18.9057 25.7944C19.1191 25.6344 19.0657 25.5545 19.3591 25.3145C19.3057 25.2611 19.1191 25.3145 18.7991 25.6611C19.5191 24.8611 17.9191 25.9544 18.9591 25.0478C18.4257 25.1544 18.0257 25.1011 17.7057 24.9945C18.5057 24.5945 17.9191 25.1811 18.7191 24.7011C18.2924 24.7544 17.5724 24.9411 17.6524 24.6478C17.7324 24.5411 18.0257 24.5144 18.1857 24.4611C17.7591 24.4078 18.1057 24.0611 17.5991 24.0344C17.6791 24.0344 17.7857 24.0078 17.8391 24.0078C17.8124 23.9811 17.9457 23.8745 17.5457 24.0078H17.6524C17.0924 24.2478 16.4257 24.1945 16.1057 24.2478C17.2524 24.0345 16.3457 23.9544 17.8124 23.7144C17.7324 23.7144 17.5457 23.7144 17.2791 23.7944C17.3591 23.7411 17.4924 23.6878 17.8124 23.6611C17.5457 23.5811 17.1457 23.7145 17.1457 23.5811C17.3324 23.5811 17.4124 23.5811 17.6524 23.5278C17.2524 23.5278 16.8791 23.5278 17.0124 23.3678C17.1191 23.3678 17.2791 23.3144 17.2791 23.3678C17.1724 23.2078 16.2124 23.1278 16.5857 22.8611C17.4391 22.9144 16.8524 22.7811 17.5991 22.7545L17.3857 22.6478L17.0124 22.7011C17.0124 22.7011 16.5057 22.4878 16.7457 22.4078L17.0391 22.5144L16.9057 22.3011L16.6124 22.4078C16.2391 22.2745 15.6791 22.3544 15.8924 22.2211C15.9724 22.2744 15.8924 22.0878 16.3457 22.0878C16.1057 22.0078 15.8924 21.9011 16.0791 21.8477C16.3191 21.8477 16.9057 21.9811 17.0391 22.0078C16.4257 21.8478 16.9057 21.7411 16.2657 21.5278C16.3991 21.5811 16.7991 21.6611 16.8791 21.6611L16.3991 21.5011C16.5591 21.5011 16.6391 21.5011 16.9591 21.5811C17.0924 21.4478 16.0257 21.4211 16.4791 21.3145C16.5057 21.3145 16.5858 21.3411 16.6658 21.3945C16.9058 21.2611 16.4524 20.9411 16.7457 20.8611C17.4657 21.0744 16.8791 21.0478 17.4924 21.2078C17.4391 20.9678 16.8257 20.4344 17.0924 20.2744H16.9857C16.0524 19.7677 17.5191 20.3545 17.1457 20.0078C17.1991 20.0611 17.6524 20.3278 17.5457 20.2478C17.7857 20.1945 17.4657 19.8478 17.3324 19.4478L17.5457 19.6344C17.8124 19.6878 17.8124 19.5278 17.9724 19.5011C17.7857 19.3145 17.8391 19.2878 17.5191 19.0745C18.8791 19.8478 17.3324 18.0078 18.4791 18.7278C18.4791 18.7278 18.5857 18.9677 18.6124 18.9411V18.5944C18.2924 18.2477 18.3991 18.4078 18.1324 18.1678C17.9724 17.9278 17.8924 17.7144 17.9457 17.6877C18.0524 18.0077 18.4257 18.2477 18.6124 18.4344L18.3457 18.0878C18.9591 18.6478 17.7857 17.3411 18.2924 17.6611L18.4257 17.8477C18.4257 17.7144 18.2657 17.3945 18.3724 17.4211C18.7191 17.8478 18.4524 17.6611 18.7191 18.0344C18.7724 17.9544 18.3191 17.0744 18.7191 17.4744C18.7724 17.6344 18.7191 17.6611 18.7457 17.8211C19.1724 18.2745 19.0924 18.1411 19.2257 18.1944L19.5191 18.3544L19.3857 18.2211C18.7724 16.9678 19.4657 17.8745 19.1991 16.9945C19.4391 17.8478 19.4124 17.4478 19.6791 17.9811C19.7857 18.1145 19.9191 18.2478 19.9991 18.4078C19.8391 17.9278 20.2657 18.7011 20.0524 18.0078C20.1324 18.1945 20.1324 18.0077 20.3191 18.4344C20.3191 18.2477 20.1591 18.1411 20.0791 17.9011C19.9724 17.2078 20.6924 18.5411 20.5857 17.6077C20.6657 17.2077 20.5324 16.5678 20.6658 16.1944C20.7991 16.4878 20.7724 16.8878 20.7724 16.8878C20.9324 17.1544 20.9857 17.0745 21.0657 16.8345C21.0657 16.9945 21.1191 17.1545 21.1991 17.3411C21.2524 17.2878 21.1191 16.6478 21.2791 16.9145C21.2791 17.1278 21.3324 17.4744 21.3324 17.6877C21.3857 17.5011 21.4124 17.1277 21.4924 16.9411C21.5457 17.2611 21.4924 17.4477 21.4924 17.6877C21.5457 17.5811 21.5991 17.4211 21.6524 17.1811C21.5991 17.5811 21.5191 16.9944 21.4657 16.8078L21.5191 16.6745C21.3057 15.5545 21.2524 16.9144 21.1191 16.8611L21.0391 16.0344V16.7278C20.9324 16.5145 20.8257 16.0611 20.8791 15.9277C20.6924 15.5544 20.8524 16.2478 20.6391 15.8211C20.6124 15.7411 20.6124 15.7144 20.6124 15.6877L20.5591 15.9544C20.5591 15.7678 20.3991 15.3944 20.5057 15.4744C20.1591 15.0744 20.3457 16.1678 20.0791 15.5811V15.5278C19.8924 15.8744 20.2391 16.1144 20.2657 16.8611L19.6257 15.4744L19.8124 16.0611C19.8124 16.0611 19.7057 16.0344 19.6257 15.7944C19.6791 16.2211 19.7324 16.0344 19.8124 16.4344C19.4657 15.9544 19.5724 16.8078 19.1457 15.9544C19.3057 16.4078 19.4124 16.2211 19.4124 16.5678C18.9324 15.6345 19.3324 16.8077 19.0124 16.4344C18.7991 15.9277 19.0657 16.1411 18.7191 15.7677C19.0657 16.6211 18.3724 15.7144 18.3457 15.9277C18.4524 16.1144 18.4791 16.2211 18.4791 16.3011C18.3724 16.0878 18.3457 15.9811 18.3457 15.9277C18.2924 15.8477 18.2124 15.7411 18.1324 15.5811C18.0791 15.5811 18.3457 16.0611 18.4791 16.2744C18.4791 16.4344 18.2657 16.4078 18.2391 16.6211C18.1057 16.4078 17.7057 16.4878 17.4124 16.4078L17.3324 16.3011C17.7591 16.9144 17.5191 16.9144 17.5191 17.1011C17.2524 16.7544 17.1458 16.6211 17.0924 16.4078L16.9857 16.5144C17.1191 16.7277 17.1724 16.8344 17.1457 16.9678L16.7991 16.5411C16.6657 16.7011 16.9591 17.2611 16.5591 17.1545C16.9324 17.5278 17.6791 18.0344 17.7857 18.4344C17.5724 18.2477 17.2257 17.9278 17.1991 17.7944C17.1991 17.8211 17.3324 18.0078 17.1991 17.9544L16.9324 17.5544C16.7191 17.4744 17.1724 17.8744 17.0924 17.8744C16.7991 17.6078 16.8524 17.7145 16.6124 17.5011C16.6124 17.4478 16.7724 17.5545 16.6924 17.4211C16.5857 17.4211 16.3191 17.3678 16.0791 17.2078C16.2657 17.3411 16.4791 17.5544 16.4791 17.6344C16.3724 17.7944 16.0791 17.3678 15.8391 17.3145C16.0257 17.5278 15.7324 17.4478 16.1857 17.8211C16.1591 17.8478 15.9191 17.6877 15.7857 17.6077C15.9191 17.8477 15.5724 18.0078 16.1591 18.3011H16.2124V18.3278C16.5057 18.8878 15.5991 18.6477 15.6524 19.0211L15.4924 18.9145C15.5991 19.1811 15.4391 19.3411 15.7591 19.6077C15.7591 19.6611 15.3857 19.5544 15.1724 19.4478C15.2524 19.6344 15.4391 19.7144 15.0657 19.7944C14.7991 19.5278 14.7724 19.7144 14.8791 19.5544C14.6657 19.6611 14.3457 19.5811 14.7724 19.9544C14.3191 19.7144 14.1324 19.8745 14.2391 20.0078H14.6391C14.6391 20.0078 14.6124 20.1945 14.5324 20.2478L13.9191 20.0078C13.0124 20.2211 15.0657 21.0211 13.6791 21.0211C14.1324 21.2077 14.0257 20.8611 14.5591 21.0745C14.4524 21.2078 13.4657 21.2345 13.4657 21.3145C13.0657 21.5278 14.3991 21.6878 14.1057 21.9011C14.3457 21.9011 14.9857 21.9278 15.1991 22.1144C15.0924 22.2478 14.1858 22.2478 13.9991 22.1144C13.9991 22.0611 14.0524 22.0611 14.1324 22.0611C14.0524 22.0078 13.9457 21.9011 13.6791 21.9544L13.9191 22.0078C13.6791 22.0878 13.6791 22.3278 13.3057 22.2478C13.5191 22.4078 13.6791 22.3278 13.8124 22.2478L13.9191 22.4878ZM30.1324 18.3011C30.1324 18.3011 30.1324 18.4078 30.0524 18.4611C30.0524 18.4611 29.9991 18.4078 29.9457 18.4078H29.8924C29.8924 18.4078 30.0791 18.3545 30.1591 18.3278L30.1324 18.3011ZM26.8791 20.5144L26.8257 20.4878C26.8257 20.4878 26.8524 20.4877 26.8791 20.5144ZM27.0124 20.7278C27.0124 20.7278 27.0124 20.6478 26.9857 20.6211C27.1457 20.5411 27.3324 20.4611 27.3324 20.4878C27.1991 20.5411 27.1457 20.6478 27.0124 20.7278Z" fill="black" fill-opacity="0.4"/>
<path d="M29.4045 18.5677H29.3512C29.3245 18.5944 29.2978 18.6477 29.2712 18.6744L29.4312 18.5943L29.4045 18.5677Z" fill="black" fill-opacity="0.4"/>
<path d="M16.2087 18.4878C16.2087 18.4878 16.262 18.4877 16.2887 18.5144H16.2353V18.4878H16.2087Z" fill="black" fill-opacity="0.4"/>
<path d="M26.292 23.8211L26.4253 23.8477L26.3187 23.7944L26.292 23.8211Z" fill="black" fill-opacity="0.4"/>
<path d="M19.8882 18.3278C19.8882 18.3278 19.8082 18.1678 19.7816 18.1144L19.8882 18.3278Z" fill="black" fill-opacity="0.4"/>
<path d="M17.9691 24.1943C17.9691 24.1943 17.9691 24.1943 17.9957 24.1943C18.1024 24.1943 18.0491 24.1943 17.9691 24.1943Z" fill="black" fill-opacity="0.4"/>
<path d="M16.5003 22.221C16.5003 22.221 16.687 22.3011 16.7403 22.3277C16.7937 22.3011 16.7937 22.2744 16.5003 22.221Z" fill="black" fill-opacity="0.4"/>
<path d="M19.5166 25.5011L19.4899 25.5278H19.5166V25.5011Z" fill="black" fill-opacity="0.4"/>
<path d="M16.7417 22.4344C16.7417 22.4344 16.8203 22.3811 16.7403 22.3277C16.7137 22.3544 16.6351 22.3811 16.7417 22.4344Z" fill="black" fill-opacity="0.4"/>
<path d="M21.8128 17.8745C21.8128 17.8745 21.8395 17.8745 21.8395 17.7412V17.8745H21.8128Z" fill="black" fill-opacity="0.4"/>
<path d="M21.0126 17.9544C21.0126 17.9544 21.2259 18.3544 21.2526 18.2211V18.0611C21.2526 18.3544 20.9859 17.6077 21.0126 17.9544Z" fill="black" fill-opacity="0.4"/>
<path d="M19.568 15.9277C19.4613 15.741 19.3013 15.4744 19.3813 15.3944C18.848 14.8878 19.6213 15.821 19.3013 15.8477L19.568 15.9277Z" fill="black" fill-opacity="0.4"/>
<path d="M18.3128 15.5011C18.3128 15.7145 18.3395 15.7678 18.5262 15.9011C18.5795 15.7678 18.3662 15.6345 18.3128 15.5011Z" fill="black" fill-opacity="0.4"/>
<path d="M15.037 19.6611L14.5837 19.4478C14.5837 19.4478 14.7703 19.5278 15.037 19.6611Z" fill="black" fill-opacity="0.4"/>
<path d="M17.217 21.3411L17.537 21.3944L17.0837 21.2077L17.217 21.3411Z" fill="black" fill-opacity="0.4"/>
<path d="M13.4899 20.8877L13.6499 21.101L13.5699 20.941L13.4899 20.8877Z" fill="black" fill-opacity="0.4"/>
<path d="M16.7137 29.6611L17.087 29.1545C17.087 29.1545 16.5004 29.7411 16.7137 29.6611Z" fill="black" fill-opacity="0.4"/>
<path d="M20.5784 30.8345C20.5517 31.1545 20.6317 31.3678 20.765 31.0745C20.685 31.0212 20.6583 30.7545 20.5784 30.8345Z" fill="black" fill-opacity="0.4"/>
<path d="M31.0353 26.2211L30.9287 26.0078L30.8753 26.0611L31.0353 26.2211Z" fill="black" fill-opacity="0.4"/>
</svg>
